<svg width="25" height="12" viewBox="0 0 25 12" fill="none" xmlns="http://www.w3.org/2000/svg">
<path d="M22.6721 11.992C22.476 11.9923 22.2818 11.9532 22.1007 11.877C21.9196 11.8009 21.7552 11.6891 21.6169 11.5483L13.9788 3.81119C13.7477 3.577 13.4733 3.39123 13.1714 3.26449C12.8694 3.13774 12.5457 3.07251 12.2189 3.07251C11.892 3.07251 11.5683 3.13774 11.2663 3.26449C10.9644 3.39123 10.69 3.577 10.4589 3.81119L2.83274 11.5382C2.695 11.6827 2.53024 11.7979 2.34806 11.8772C2.16589 11.9565 1.96995 11.9982 1.77169 11.9999C1.57343 12.0017 1.37681 11.9634 1.1933 11.8874C1.00979 11.8113 0.843079 11.699 0.702881 11.5569C0.562683 11.4149 0.451809 11.246 0.37673 11.0601C0.301651 10.8742 0.263872 10.675 0.265595 10.4741C0.267317 10.2733 0.308508 10.0748 0.386765 9.89021C0.465021 9.70565 0.578772 9.53873 0.721386 9.39919L8.34755 1.6722C9.37494 0.633285 10.7672 0.049793 12.2189 0.0497932C13.6705 0.0497933 15.0628 0.633286 16.0902 1.6722L23.7283 9.40928C23.9372 9.62084 24.0796 9.89044 24.1372 10.184C24.1949 10.4775 24.1653 10.7818 24.0523 11.0583C23.9392 11.3348 23.7477 11.5711 23.502 11.7373C23.2563 11.9035 22.9675 11.9921 22.6721 11.992Z" fill="#3A3A3A"/>
</svg>
