<svg width="106" height="94" viewBox="0 0 106 94" fill="none" xmlns="http://www.w3.org/2000/svg">
<rect width="106" height="94" rx="8" fill="#1F1F1F"/>
<path d="M17.875 42V12.9091H25.7159V23.9886H25.8295C26.1136 23.25 26.5303 22.5729 27.0795 21.9574C27.6288 21.3324 28.3106 20.8352 29.125 20.4659C29.9394 20.0871 30.8864 19.8977 31.9659 19.8977C33.4053 19.8977 34.7737 20.2812 36.071 21.0483C37.3778 21.8153 38.4384 23.0227 39.2528 24.6705C40.0767 26.3182 40.4886 28.4583 40.4886 31.0909C40.4886 33.6098 40.0956 35.6979 39.3097 37.3551C38.5331 39.0123 37.4915 40.2481 36.1847 41.0625C34.8873 41.8769 33.4621 42.2841 31.9091 42.2841C30.8864 42.2841 29.9725 42.1184 29.1676 41.7869C28.3722 41.446 27.6903 40.9867 27.1222 40.4091C26.5634 39.822 26.1326 39.1591 25.8295 38.4205H25.6591V42H17.875ZM25.5455 31.0909C25.5455 32.1515 25.6828 33.0701 25.9574 33.8466C26.2415 34.6136 26.6392 35.2102 27.1506 35.6364C27.6714 36.053 28.2917 36.2614 29.0114 36.2614C29.7311 36.2614 30.3419 36.0578 30.8438 35.6506C31.3551 35.2339 31.7434 34.642 32.0085 33.875C32.2831 33.0985 32.4205 32.1705 32.4205 31.0909C32.4205 30.0114 32.2831 29.0881 32.0085 28.321C31.7434 27.5445 31.3551 26.9527 30.8438 26.5455C30.3419 26.1288 29.7311 25.9205 29.0114 25.9205C28.2917 25.9205 27.6714 26.1288 27.1506 26.5455C26.6392 26.9527 26.2415 27.5445 25.9574 28.321C25.6828 29.0881 25.5455 30.0114 25.5455 31.0909ZM54.2244 42.3977C51.8949 42.3977 49.8873 41.9527 48.2017 41.0625C46.5256 40.1629 45.233 38.875 44.3239 37.1989C43.4242 35.5133 42.9744 33.4962 42.9744 31.1477C42.9744 28.8939 43.429 26.9242 44.3381 25.2386C45.2472 23.553 46.5303 22.2415 48.1875 21.304C49.8447 20.3665 51.8002 19.8977 54.054 19.8977C55.7017 19.8977 57.1932 20.1534 58.5284 20.6648C59.8636 21.1761 61.0047 21.9195 61.9517 22.8949C62.8987 23.8608 63.6278 25.035 64.1392 26.4176C64.6506 27.8002 64.9062 29.358 64.9062 31.0909V32.9091H45.4176V28.5909H57.6903C57.6809 27.9659 57.5199 27.4167 57.2074 26.9432C56.9044 26.4602 56.4924 26.0862 55.9716 25.821C55.4602 25.5464 54.8778 25.4091 54.2244 25.4091C53.59 25.4091 53.0076 25.5464 52.4773 25.821C51.947 26.0862 51.5208 26.4555 51.1989 26.929C50.8864 27.4025 50.7206 27.9564 50.7017 28.5909V33.25C50.7017 33.9508 50.8485 34.5758 51.142 35.125C51.4356 35.6742 51.857 36.1051 52.4062 36.4176C52.9555 36.7301 53.6184 36.8864 54.3949 36.8864C54.9347 36.8864 55.4271 36.8106 55.8722 36.6591C56.3267 36.5076 56.715 36.2898 57.0369 36.0057C57.3589 35.7121 57.5956 35.3617 57.7472 34.9545H64.9062C64.66 36.4697 64.0777 37.786 63.1591 38.9034C62.2405 40.0114 61.0237 40.8731 59.5085 41.4886C58.0028 42.0947 56.2415 42.3977 54.2244 42.3977ZM78.5604 42.3977C76.2308 42.3977 74.2232 41.9527 72.5376 41.0625C70.8615 40.1629 69.5689 38.875 68.6598 37.1989C67.7602 35.5133 67.3104 33.4962 67.3104 31.1477C67.3104 28.8939 67.7649 26.9242 68.674 25.2386C69.5831 23.553 70.8662 22.2415 72.5234 21.304C74.1806 20.3665 76.1361 19.8977 78.3899 19.8977C80.0376 19.8977 81.5291 20.1534 82.8643 20.6648C84.1996 21.1761 85.3407 21.9195 86.2876 22.8949C87.2346 23.8608 87.9638 25.035 88.4751 26.4176C88.9865 27.8002 89.2422 29.358 89.2422 31.0909V32.9091H69.7536V28.5909H82.0263C82.0168 27.9659 81.8558 27.4167 81.5433 26.9432C81.2403 26.4602 80.8284 26.0862 80.3075 25.821C79.7962 25.5464 79.2138 25.4091 78.5604 25.4091C77.9259 25.4091 77.3435 25.5464 76.8132 25.821C76.2829 26.0862 75.8568 26.4555 75.5348 26.929C75.2223 27.4025 75.0566 27.9564 75.0376 28.5909V33.25C75.0376 33.9508 75.1844 34.5758 75.478 35.125C75.7715 35.6742 76.1929 36.1051 76.7422 36.4176C77.2914 36.7301 77.9543 36.8864 78.7308 36.8864C79.2706 36.8864 79.763 36.8106 80.2081 36.6591C80.6626 36.5076 81.0509 36.2898 81.3729 36.0057C81.6948 35.7121 81.9316 35.3617 82.0831 34.9545H89.2422C88.996 36.4697 88.4136 37.786 87.495 38.9034C86.5765 40.0114 85.3596 40.8731 83.8445 41.4886C82.3388 42.0947 80.5774 42.3977 78.5604 42.3977Z" fill="#FFB907"/>
<path d="M32.5582 65.1918C32.0398 65.1918 31.5692 65.0941 31.1467 64.8988C30.7241 64.6999 30.3885 64.4141 30.1399 64.0412C29.8913 63.6648 29.767 63.2102 29.767 62.6776C29.767 62.2088 29.8594 61.8288 30.044 61.5376C30.2287 61.2429 30.4755 61.0121 30.7844 60.8452C31.0934 60.6783 31.4343 60.554 31.8072 60.4723C32.1836 60.3871 32.5618 60.3196 32.9418 60.2699C33.4389 60.206 33.842 60.158 34.1509 60.1261C34.4634 60.0906 34.6907 60.032 34.8327 59.9503C34.9783 59.8686 35.0511 59.7266 35.0511 59.5241V59.4815C35.0511 58.956 34.9073 58.5476 34.6197 58.2564C34.3356 57.9652 33.9041 57.8196 33.3253 57.8196C32.7251 57.8196 32.2546 57.951 31.9137 58.2138C31.5728 58.4766 31.3331 58.7571 31.1946 59.0554L30.0014 58.6293C30.2145 58.1321 30.4986 57.745 30.8537 57.468C31.2124 57.1875 31.603 56.9922 32.0256 56.8821C32.4517 56.7685 32.8707 56.7116 33.2827 56.7116C33.5455 56.7116 33.8473 56.7436 34.1882 56.8075C34.5327 56.8679 34.8647 56.994 35.1843 57.1857C35.5075 57.3775 35.7756 57.6669 35.9886 58.054C36.2017 58.4411 36.3082 58.9595 36.3082 59.6094V65H35.0511V63.892H34.9872C34.902 64.0696 34.7599 64.2596 34.5611 64.462C34.3622 64.6644 34.0977 64.8366 33.7674 64.9787C33.4371 65.1207 33.0341 65.1918 32.5582 65.1918ZM32.75 64.0625C33.2472 64.0625 33.6662 63.9648 34.0071 63.7695C34.3516 63.5742 34.6108 63.3221 34.7848 63.0131C34.9624 62.7042 35.0511 62.3793 35.0511 62.0384V60.8878C34.9979 60.9517 34.8807 61.0103 34.6996 61.0636C34.522 61.1133 34.3161 61.1577 34.0817 61.1967C33.8509 61.2322 33.6254 61.2642 33.4052 61.2926C33.1886 61.3175 33.0128 61.3388 32.8778 61.3565C32.5511 61.3991 32.2457 61.4684 31.9616 61.5643C31.6811 61.6566 31.4538 61.7969 31.2798 61.9851C31.1094 62.1697 31.0241 62.4219 31.0241 62.7415C31.0241 63.1783 31.1857 63.5085 31.5089 63.7322C31.8356 63.9524 32.2493 64.0625 32.75 64.0625ZM38.7732 65V54.0909H40.0303V58.1179H40.1368C40.2291 57.9759 40.357 57.7947 40.5203 57.5746C40.6872 57.3509 40.9252 57.152 41.2341 56.978C41.5466 56.8004 41.9692 56.7116 42.5019 56.7116C43.1908 56.7116 43.798 56.8839 44.3236 57.2283C44.8492 57.5728 45.2593 58.0611 45.5541 58.6932C45.8488 59.3253 45.9962 60.071 45.9962 60.9304C45.9962 61.7969 45.8488 62.5479 45.5541 63.1836C45.2593 63.8157 44.8509 64.3058 44.3289 64.6538C43.8069 64.9982 43.205 65.1705 42.5232 65.1705C41.9976 65.1705 41.5768 65.0835 41.2607 64.9094C40.9447 64.7319 40.7014 64.5312 40.531 64.3075C40.3605 64.0803 40.2291 63.892 40.1368 63.7429H39.9877V65H38.7732ZM40.009 60.9091C40.009 61.527 40.0995 62.0721 40.2806 62.5444C40.4617 63.0131 40.7263 63.3807 41.0743 63.647C41.4223 63.9098 41.8485 64.0412 42.3527 64.0412C42.8783 64.0412 43.3169 63.9027 43.6684 63.6257C44.0235 63.3452 44.2899 62.9687 44.4674 62.4964C44.6485 62.0206 44.7391 61.4915 44.7391 60.9091C44.7391 60.3338 44.6503 59.8153 44.4727 59.3537C44.2987 58.8885 44.0342 58.521 43.6791 58.2511C43.3275 57.9776 42.8854 57.8409 42.3527 57.8409C41.8414 57.8409 41.4117 57.9705 41.0637 58.2298C40.7156 58.4854 40.4529 58.8441 40.2753 59.3058C40.0977 59.7638 40.009 60.2983 40.009 60.9091ZM51.3495 65.1705C50.5612 65.1705 49.8811 64.9964 49.3094 64.6484C48.7412 64.2969 48.3026 63.8068 47.9937 63.1783C47.6883 62.5462 47.5356 61.8111 47.5356 60.973C47.5356 60.1349 47.6883 59.3963 47.9937 58.7571C48.3026 58.1143 48.7323 57.6136 49.2828 57.255C49.8367 56.8928 50.483 56.7116 51.2217 56.7116C51.6478 56.7116 52.0686 56.7827 52.4841 56.9247C52.8996 57.0668 53.2778 57.2976 53.6187 57.6172C53.9596 57.9332 54.2313 58.3523 54.4337 58.8743C54.6361 59.3963 54.7373 60.0391 54.7373 60.8026V61.3352H48.4305V60.2486H53.4589C53.4589 59.7869 53.3666 59.375 53.1819 59.0128C53.0008 58.6506 52.7416 58.3647 52.4042 58.1552C52.0704 57.9457 51.6762 57.8409 51.2217 57.8409C50.721 57.8409 50.2877 57.9652 49.922 58.2138C49.5597 58.4588 49.281 58.7784 49.0857 59.1726C48.8904 59.5668 48.7927 59.9893 48.7927 60.4403V61.1648C48.7927 61.7827 48.8992 62.3065 49.1123 62.7362C49.3289 63.1623 49.629 63.4872 50.0125 63.7109C50.396 63.9311 50.8417 64.0412 51.3495 64.0412C51.6798 64.0412 51.9781 63.995 52.2444 63.9027C52.5143 63.8068 52.7469 63.6648 52.9422 63.4766C53.1375 63.2848 53.2884 63.0469 53.395 62.7628L54.6095 63.1037C54.4816 63.5156 54.2668 63.8778 53.9649 64.1903C53.6631 64.4993 53.2902 64.7408 52.8463 64.9148C52.4024 65.0852 51.9035 65.1705 51.3495 65.1705ZM57.9067 54.0909V65H56.6496V54.0909H57.9067ZM61.4663 60.0781V65H60.2092V54.0909H61.4663V58.0966H61.5728C61.7646 57.674 62.0522 57.3384 62.4357 57.0898C62.8228 56.8377 63.3377 56.7116 63.9805 56.7116C64.538 56.7116 65.0263 56.8235 65.4453 57.0472C65.8643 57.2674 66.1893 57.6065 66.4201 58.0646C66.6545 58.5192 66.7717 59.098 66.7717 59.8011V65H65.5146V59.8864C65.5146 59.2365 65.3459 58.734 65.0085 58.3789C64.6747 58.0202 64.2113 57.8409 63.6183 57.8409C63.2063 57.8409 62.837 57.9279 62.5103 58.1019C62.1871 58.2759 61.9315 58.5298 61.7433 58.8636C61.5586 59.1974 61.4663 59.6023 61.4663 60.0781ZM71.4791 65.1918C70.9607 65.1918 70.4901 65.0941 70.0676 64.8988C69.645 64.6999 69.3094 64.4141 69.0608 64.0412C68.8122 63.6648 68.6879 63.2102 68.6879 62.6776C68.6879 62.2088 68.7803 61.8288 68.9649 61.5376C69.1496 61.2429 69.3964 61.0121 69.7053 60.8452C70.0143 60.6783 70.3552 60.554 70.7281 60.4723C71.1045 60.3871 71.4827 60.3196 71.8627 60.2699C72.3598 60.206 72.7629 60.158 73.0718 60.1261C73.3843 60.0906 73.6116 60.032 73.7536 59.9503C73.8992 59.8686 73.972 59.7266 73.972 59.5241V59.4815C73.972 58.956 73.8282 58.5476 73.5406 58.2564C73.2565 57.9652 72.825 57.8196 72.2462 57.8196C71.646 57.8196 71.1755 57.951 70.8346 58.2138C70.4937 58.4766 70.254 58.7571 70.1155 59.0554L68.9223 58.6293C69.1354 58.1321 69.4195 57.745 69.7746 57.468C70.1333 57.1875 70.5239 56.9922 70.9465 56.8821C71.3726 56.7685 71.7916 56.7116 72.2036 56.7116C72.4664 56.7116 72.7682 56.7436 73.1091 56.8075C73.4536 56.8679 73.7856 56.994 74.1052 57.1857C74.4284 57.3775 74.6965 57.6669 74.9095 58.054C75.1226 58.4411 75.2291 58.9595 75.2291 59.6094V65H73.972V63.892H73.9081C73.8229 64.0696 73.6808 64.2596 73.482 64.462C73.2831 64.6644 73.0186 64.8366 72.6883 64.9787C72.358 65.1207 71.955 65.1918 71.4791 65.1918ZM71.6709 64.0625C72.1681 64.0625 72.5871 63.9648 72.928 63.7695C73.2725 63.5742 73.5317 63.3221 73.7057 63.0131C73.8833 62.7042 73.972 62.3793 73.972 62.0384V60.8878C73.9188 60.9517 73.8016 61.0103 73.6205 61.0636C73.4429 61.1133 73.2369 61.1577 73.0026 61.1967C72.7718 61.2322 72.5463 61.2642 72.3261 61.2926C72.1095 61.3175 71.9337 61.3388 71.7987 61.3565C71.472 61.3991 71.1666 61.4684 70.8825 61.5643C70.602 61.6566 70.3747 61.7969 70.2007 61.9851C70.0303 62.1697 69.945 62.4219 69.945 62.7415C69.945 63.1783 70.1066 63.5085 70.4298 63.7322C70.7565 63.9524 71.1702 64.0625 71.6709 64.0625Z" fill="white"/>
<path d="M31.1523 79.5163V74.8182H33.4215V83H31.2429V81.5138H31.1577C30.973 81.9933 30.6658 82.3786 30.2362 82.6697C29.81 82.9609 29.2898 83.1065 28.6754 83.1065C28.1286 83.1065 27.6474 82.9822 27.2319 82.7337C26.8164 82.4851 26.4915 82.1317 26.2571 81.6737C26.0263 81.2156 25.9091 80.6669 25.9055 80.0277V74.8182H28.1747V79.6229C28.1783 80.1058 28.3079 80.4876 28.5636 80.7681C28.8192 81.0487 29.1619 81.1889 29.5916 81.1889C29.8651 81.1889 30.1207 81.1268 30.3587 81.0025C30.5966 80.8746 30.7884 80.6864 30.9339 80.4379C31.0831 80.1893 31.1559 79.8821 31.1523 79.5163ZM42.0441 77.1513L39.9667 77.2791C39.9312 77.1016 39.8548 76.9418 39.7377 76.7997C39.6205 76.6541 39.466 76.5387 39.2742 76.4535C39.086 76.3647 38.8605 76.3203 38.5977 76.3203C38.2462 76.3203 37.9497 76.3949 37.7082 76.544C37.4667 76.6896 37.346 76.8849 37.346 77.13C37.346 77.3253 37.4241 77.4904 37.5803 77.6254C37.7366 77.7603 38.0047 77.8686 38.3847 77.9503L39.8655 78.2486C40.661 78.4119 41.254 78.6747 41.6446 79.0369C42.0352 79.3991 42.2306 79.875 42.2306 80.4645C42.2306 81.0007 42.0725 81.4712 41.7565 81.8761C41.444 82.2809 41.0143 82.5969 40.4674 82.8242C39.9241 83.0479 39.2973 83.1598 38.5871 83.1598C37.504 83.1598 36.6411 82.9343 35.9983 82.4833C35.3591 82.0288 34.9845 81.4109 34.8744 80.6296L37.1063 80.5124C37.1737 80.8427 37.3371 81.0948 37.5963 81.2688C37.8556 81.4393 38.1876 81.5245 38.5924 81.5245C38.9901 81.5245 39.3097 81.4482 39.5512 81.2955C39.7963 81.1392 39.9205 80.9386 39.9241 80.6935C39.9205 80.4876 39.8335 80.3189 39.6631 80.1875C39.4926 80.0526 39.2298 79.9496 38.8747 79.8786L37.4578 79.5962C36.6588 79.4364 36.064 79.1594 35.6734 78.7653C35.2863 78.3711 35.0928 77.8686 35.0928 77.2578C35.0928 76.7322 35.2348 76.2795 35.5189 75.8995C35.8066 75.5195 36.2096 75.2266 36.7281 75.0206C37.2501 74.8146 37.8609 74.7116 38.5605 74.7116C39.5938 74.7116 40.407 74.93 41.0001 75.3668C41.5967 75.8036 41.9447 76.3984 42.0441 77.1513ZM48.9062 79.5163V74.8182H51.1754V83H48.9968V81.5138H48.9116C48.7269 81.9933 48.4197 82.3786 47.9901 82.6697C47.5639 82.9609 47.0437 83.1065 46.4293 83.1065C45.8825 83.1065 45.4013 82.9822 44.9858 82.7337C44.5703 82.4851 44.2454 82.1317 44.011 81.6737C43.7802 81.2156 43.663 80.6669 43.6594 80.0277V74.8182H45.9286V79.6229C45.9322 80.1058 46.0618 80.4876 46.3175 80.7681C46.5732 81.0487 46.9158 81.1889 47.3455 81.1889C47.619 81.1889 47.8746 81.1268 48.1126 81.0025C48.3505 80.8746 48.5423 80.6864 48.6879 80.4379C48.837 80.1893 48.9098 79.8821 48.9062 79.5163ZM55.3236 83.1545C54.8016 83.1545 54.3364 83.0639 53.928 82.8828C53.5196 82.6982 53.1965 82.4265 52.9585 82.0678C52.7242 81.7056 52.607 81.2546 52.607 80.7148C52.607 80.2603 52.6904 79.8786 52.8573 79.5696C53.0242 79.2607 53.2515 79.0121 53.5392 78.8239C53.8268 78.6357 54.1535 78.4936 54.5193 78.3977C54.8886 78.3018 55.2757 78.2344 55.6805 78.1953C56.1563 78.1456 56.5399 78.0994 56.8311 78.0568C57.1222 78.0107 57.3335 77.9432 57.4649 77.8544C57.5963 77.7656 57.662 77.6342 57.662 77.4602V77.4283C57.662 77.0909 57.5555 76.8299 57.3424 76.6452C57.1329 76.4606 56.8346 76.3683 56.4475 76.3683C56.0392 76.3683 55.7142 76.4588 55.4727 76.6399C55.2313 76.8175 55.0715 77.0412 54.9933 77.3111L52.8946 77.1406C53.0012 76.6435 53.2107 76.2138 53.5232 75.8516C53.8357 75.4858 54.2387 75.2053 54.7323 75.0099C55.2295 74.8111 55.8048 74.7116 56.4582 74.7116C56.9127 74.7116 57.3477 74.7649 57.7632 74.8714C58.1823 74.978 58.5534 75.1431 58.8765 75.3668C59.2032 75.5906 59.4607 75.8782 59.6489 76.2298C59.8371 76.5778 59.9312 76.995 59.9312 77.4815V83H57.7792V81.8654H57.7153C57.5839 82.1211 57.4081 82.3466 57.1879 82.5419C56.9678 82.7337 56.7032 82.8846 56.3943 82.9947C56.0853 83.1012 55.7284 83.1545 55.3236 83.1545ZM55.9735 81.5884C56.3073 81.5884 56.602 81.5227 56.8577 81.3913C57.1134 81.2564 57.314 81.0753 57.4596 80.848C57.6052 80.6207 57.678 80.3633 57.678 80.0756V79.2074C57.607 79.2536 57.5093 79.2962 57.385 79.3352C57.2643 79.3707 57.1276 79.4045 56.9749 79.4364C56.8222 79.4648 56.6695 79.4915 56.5168 79.5163C56.3641 79.5376 56.2256 79.5572 56.1013 79.5749C55.835 79.614 55.6024 79.6761 55.4035 79.7614C55.2046 79.8466 55.0502 79.962 54.9401 80.1076C54.83 80.2496 54.7749 80.4272 54.7749 80.6403C54.7749 80.9492 54.8868 81.1854 55.1105 81.3487C55.3378 81.5085 55.6254 81.5884 55.9735 81.5884ZM55.7284 73.7635L56.8577 71.3398H58.9564L57.3318 73.7635H55.7284ZM61.6917 83V74.8182H63.8916V76.2457H63.9768C64.126 75.7379 64.3763 75.3544 64.7279 75.0952C65.0795 74.8324 65.4843 74.701 65.9424 74.701C66.056 74.701 66.1785 74.7081 66.3099 74.7223C66.4413 74.7365 66.5567 74.756 66.6562 74.7809V76.7944C66.5496 76.7624 66.4023 76.734 66.214 76.7092C66.0258 76.6843 65.8536 76.6719 65.6974 76.6719C65.3635 76.6719 65.0653 76.7447 64.8025 76.8903C64.5432 77.0323 64.3373 77.2312 64.1846 77.4869C64.0354 77.7425 63.9608 78.0373 63.9608 78.3711V83H61.6917ZM67.8294 83V74.8182H70.0985V83H67.8294ZM68.9693 73.7635C68.6319 73.7635 68.3425 73.6516 68.101 73.4279C67.8631 73.2006 67.7441 72.929 67.7441 72.6129C67.7441 72.3004 67.8631 72.0323 68.101 71.8086C68.3425 71.5813 68.6319 71.4677 68.9693 71.4677C69.3066 71.4677 69.5943 71.5813 69.8322 71.8086C70.0737 72.0323 70.1944 72.3004 70.1944 72.6129C70.1944 72.929 70.0737 73.2006 69.8322 73.4279C69.5943 73.6516 69.3066 73.7635 68.9693 73.7635ZM75.613 83.1598C74.7856 83.1598 74.07 82.984 73.4664 82.6325C72.8662 82.2773 72.4028 81.7837 72.0761 81.1516C71.7494 80.516 71.586 79.7791 71.586 78.9411C71.586 78.0959 71.7494 77.3572 72.0761 76.7251C72.4028 76.0895 72.8662 75.5959 73.4664 75.2443C74.07 74.8892 74.7856 74.7116 75.613 74.7116C76.4404 74.7116 77.1542 74.8892 77.7544 75.2443C78.358 75.5959 78.8232 76.0895 79.1499 76.7251C79.4767 77.3572 79.64 78.0959 79.64 78.9411C79.64 79.7791 79.4767 80.516 79.1499 81.1516C78.8232 81.7837 78.358 82.2773 77.7544 82.6325C77.1542 82.984 76.4404 83.1598 75.613 83.1598ZM75.6237 81.402C76.0001 81.402 76.3144 81.2955 76.5665 81.0824C76.8186 80.8658 77.0086 80.571 77.1365 80.1982C77.2678 79.8253 77.3335 79.4009 77.3335 78.9251C77.3335 78.4492 77.2678 78.0249 77.1365 77.652C77.0086 77.2791 76.8186 76.9844 76.5665 76.7678C76.3144 76.5511 76.0001 76.4428 75.6237 76.4428C75.2437 76.4428 74.9241 76.5511 74.6649 76.7678C74.4092 76.9844 74.2156 77.2791 74.0843 77.652C73.9564 78.0249 73.8925 78.4492 73.8925 78.9251C73.8925 79.4009 73.9564 79.8253 74.0843 80.1982C74.2156 80.571 74.4092 80.8658 74.6649 81.0824C74.9241 81.2955 75.2437 81.402 75.6237 81.402Z" fill="white"/>
</svg>
