<svg width="144" height="94" viewBox="0 0 144 94" fill="none" xmlns="http://www.w3.org/2000/svg">
<rect width="144" height="94" rx="8" fill="#1F1F1F"/>
<path d="M25.5 42.3977C23.1326 42.3977 21.1061 41.929 19.4205 40.9915C17.7348 40.0445 16.4422 38.7282 15.5426 37.0426C14.643 35.3475 14.1932 33.3826 14.1932 31.1477C14.1932 28.9129 14.643 26.9527 15.5426 25.267C16.4422 23.572 17.7348 22.2557 19.4205 21.3182C21.1061 20.3712 23.1326 19.8977 25.5 19.8977C27.6402 19.8977 29.4915 20.286 31.054 21.0625C32.6259 21.8295 33.8428 22.9186 34.7045 24.3295C35.5663 25.7311 36.0019 27.3788 36.0114 29.2727H28.7386C28.6345 28.1269 28.303 27.2557 27.7443 26.6591C27.1951 26.053 26.4848 25.75 25.6136 25.75C24.9318 25.75 24.3352 25.9489 23.8239 26.3466C23.3125 26.7348 22.9148 27.3267 22.6307 28.1222C22.3466 28.9081 22.2045 29.8977 22.2045 31.0909C22.2045 32.2841 22.3466 33.2784 22.6307 34.0739C22.9148 34.8598 23.3125 35.4517 23.8239 35.8494C24.3352 36.2377 24.9318 36.4318 25.6136 36.4318C26.1913 36.4318 26.7027 36.2992 27.1477 36.0341C27.5928 35.7595 27.9527 35.3617 28.2273 34.8409C28.5114 34.3106 28.6818 33.6667 28.7386 32.9091H36.0114C35.983 34.8314 35.5426 36.5076 34.6903 37.9375C33.8381 39.358 32.6307 40.4564 31.0682 41.233C29.5152 42.0095 27.6591 42.3977 25.5 42.3977ZM49.7578 42.3977C47.3904 42.3977 45.3639 41.929 43.6783 40.9915C41.9927 40.0445 40.7 38.7282 39.8004 37.0426C38.9008 35.3475 38.451 33.3826 38.451 31.1477C38.451 28.9129 38.9008 26.9527 39.8004 25.267C40.7 23.572 41.9927 22.2557 43.6783 21.3182C45.3639 20.3712 47.3904 19.8977 49.7578 19.8977C52.1252 19.8977 54.1518 20.3712 55.8374 21.3182C57.523 22.2557 58.8156 23.572 59.7152 25.267C60.6148 26.9527 61.0646 28.9129 61.0646 31.1477C61.0646 33.3826 60.6148 35.3475 59.7152 37.0426C58.8156 38.7282 57.523 40.0445 55.8374 40.9915C54.1518 41.929 52.1252 42.3977 49.7578 42.3977ZM49.8146 36.6023C50.4775 36.6023 51.0504 36.3797 51.5334 35.9347C52.0163 35.4896 52.3904 34.8551 52.6555 34.0312C52.9207 33.2074 53.0533 32.2273 53.0533 31.0909C53.0533 29.9451 52.9207 28.965 52.6555 28.1506C52.3904 27.3267 52.0163 26.6922 51.5334 26.2472C51.0504 25.8021 50.4775 25.5795 49.8146 25.5795C49.1139 25.5795 48.5125 25.8021 48.0107 26.2472C47.5088 26.6922 47.1252 27.3267 46.8601 28.1506C46.5949 28.965 46.4624 29.9451 46.4624 31.0909C46.4624 32.2273 46.5949 33.2074 46.8601 34.0312C47.1252 34.8551 47.5088 35.4896 48.0107 35.9347C48.5125 36.3797 49.1139 36.6023 49.8146 36.6023ZM64.2464 42V20.1818H71.6896V24.3295H71.9169C72.3714 22.9659 73.148 21.8864 74.2464 21.0909C75.3449 20.2955 76.6518 19.8977 78.1669 19.8977C79.701 19.8977 81.022 20.3049 82.13 21.1193C83.2379 21.9242 83.9055 22.9943 84.1328 24.3295H84.3601C84.7294 22.9943 85.5154 21.9242 86.718 21.1193C87.9207 20.3049 89.3317 19.8977 90.951 19.8977C93.0438 19.8977 94.7389 20.5701 96.0362 21.9148C97.343 23.2595 97.9964 25.0492 97.9964 27.2841V42H90.1555V29.2727C90.1555 28.3163 89.9141 27.5682 89.4311 27.0284C88.9482 26.4792 88.2995 26.2045 87.4851 26.2045C86.6802 26.2045 86.041 26.4792 85.5675 27.0284C85.1035 27.5682 84.8714 28.3163 84.8714 29.2727V42H77.3714V29.2727C77.3714 28.3163 77.13 27.5682 76.647 27.0284C76.1641 26.4792 75.5154 26.2045 74.701 26.2045C74.1612 26.2045 73.6972 26.3277 73.3089 26.5739C72.9207 26.8201 72.6177 27.1752 72.3999 27.6392C72.1915 28.0937 72.0874 28.6383 72.0874 29.2727V42H64.2464ZM101.75 42V12.9091H109.591V23.9886H109.705C109.989 23.25 110.405 22.5729 110.955 21.9574C111.504 21.3324 112.186 20.8352 113 20.4659C113.814 20.0871 114.761 19.8977 115.841 19.8977C117.28 19.8977 118.649 20.2812 119.946 21.0483C121.253 21.8153 122.313 23.0227 123.128 24.6705C123.952 26.3182 124.364 28.4583 124.364 31.0909C124.364 33.6098 123.971 35.6979 123.185 37.3551C122.408 39.0123 121.366 40.2481 120.06 41.0625C118.762 41.8769 117.337 42.2841 115.784 42.2841C114.761 42.2841 113.848 42.1184 113.043 41.7869C112.247 41.446 111.565 40.9867 110.997 40.4091C110.438 39.822 110.008 39.1591 109.705 38.4205H109.534V42H101.75ZM109.42 31.0909C109.42 32.1515 109.558 33.0701 109.832 33.8466C110.116 34.6136 110.514 35.2102 111.026 35.6364C111.546 36.053 112.167 36.2614 112.886 36.2614C113.606 36.2614 114.217 36.0578 114.719 35.6506C115.23 35.2339 115.618 34.642 115.884 33.875C116.158 33.0985 116.295 32.1705 116.295 31.0909C116.295 30.0114 116.158 29.0881 115.884 28.321C115.618 27.5445 115.23 26.9527 114.719 26.5455C114.217 26.1288 113.606 25.9205 112.886 25.9205C112.167 25.9205 111.546 26.1288 111.026 26.5455C110.514 26.9527 110.116 27.5445 109.832 28.321C109.558 29.0881 109.42 30.0114 109.42 31.0909Z" fill="#FFB907"/>
<path d="M46.4744 65.1705C45.7074 65.1705 45.0469 64.9893 44.4929 64.6271C43.9389 64.2649 43.5128 63.766 43.2145 63.1303C42.9162 62.4947 42.767 61.7685 42.767 60.9517C42.767 60.1207 42.9197 59.3874 43.2251 58.7518C43.5341 58.1126 43.9638 57.6136 44.5142 57.255C45.0682 56.8928 45.7145 56.7116 46.4531 56.7116C47.0284 56.7116 47.5469 56.8182 48.0085 57.0312C48.4702 57.2443 48.8484 57.5426 49.1431 57.9261C49.4379 58.3097 49.6207 58.7571 49.6918 59.2685H48.4347C48.3388 58.8956 48.1257 58.5653 47.7955 58.2777C47.4688 57.9865 47.0284 57.8409 46.4744 57.8409C45.9844 57.8409 45.5547 57.9687 45.1854 58.2244C44.8196 58.4766 44.5337 58.8335 44.3278 59.2951C44.1254 59.7532 44.0241 60.2912 44.0241 60.9091C44.0241 61.5412 44.1236 62.0916 44.3224 62.5604C44.5249 63.0291 44.8089 63.3931 45.1747 63.6523C45.544 63.9116 45.9773 64.0412 46.4744 64.0412C46.8011 64.0412 47.0977 63.9844 47.364 63.8707C47.6303 63.7571 47.8558 63.5938 48.0405 63.3807C48.2251 63.1676 48.3565 62.9119 48.4347 62.6136H49.6918C49.6207 63.0966 49.445 63.5316 49.1644 63.9187C48.8874 64.3022 48.5199 64.6076 48.0618 64.8349C47.6072 65.0586 47.0781 65.1705 46.4744 65.1705ZM54.8533 65.1705C54.1147 65.1705 53.4666 64.9947 52.9091 64.6431C52.3551 64.2915 51.9219 63.7997 51.6094 63.1676C51.3004 62.5355 51.146 61.7969 51.146 60.9517C51.146 60.0994 51.3004 59.3555 51.6094 58.7198C51.9219 58.0842 52.3551 57.5906 52.9091 57.239C53.4666 56.8874 54.1147 56.7116 54.8533 56.7116C55.592 56.7116 56.2383 56.8874 56.7923 57.239C57.3498 57.5906 57.783 58.0842 58.092 58.7198C58.4045 59.3555 58.5607 60.0994 58.5607 60.9517C58.5607 61.7969 58.4045 62.5355 58.092 63.1676C57.783 63.7997 57.3498 64.2915 56.7923 64.6431C56.2383 64.9947 55.592 65.1705 54.8533 65.1705ZM54.8533 64.0412C55.4144 64.0412 55.8761 63.8974 56.2383 63.6097C56.6005 63.3221 56.8686 62.9439 57.0426 62.4751C57.2166 62.0064 57.3036 61.4986 57.3036 60.9517C57.3036 60.4048 57.2166 59.8952 57.0426 59.4229C56.8686 58.9506 56.6005 58.5689 56.2383 58.2777C55.8761 57.9865 55.4144 57.8409 54.8533 57.8409C54.2923 57.8409 53.8306 57.9865 53.4684 58.2777C53.1062 58.5689 52.8381 58.9506 52.6641 59.4229C52.4901 59.8952 52.4031 60.4048 52.4031 60.9517C52.4031 61.4986 52.4901 62.0064 52.6641 62.4751C52.8381 62.9439 53.1062 63.3221 53.4684 63.6097C53.8306 63.8974 54.2923 64.0412 54.8533 64.0412ZM61.7368 54.0909V65H60.4797V54.0909H61.7368ZM64.0392 65V56.8182H65.2537V58.0966H65.3603C65.5307 57.6598 65.8059 57.3207 66.1859 57.0792C66.5659 56.8342 67.0222 56.7116 67.5549 56.7116C68.0946 56.7116 68.5439 56.8342 68.9025 57.0792C69.2647 57.3207 69.5471 57.6598 69.7495 58.0966H69.8347C70.0442 57.674 70.3585 57.3384 70.7775 57.0898C71.1966 56.8377 71.699 56.7116 72.285 56.7116C73.0165 56.7116 73.6149 56.9407 74.0801 57.3988C74.5453 57.8533 74.7779 58.5618 74.7779 59.5241V65H73.5208V59.5241C73.5208 58.9205 73.3556 58.489 73.0254 58.2298C72.6951 57.9705 72.3063 57.8409 71.8588 57.8409C71.2836 57.8409 70.8379 58.0149 70.5218 58.3629C70.2058 58.7074 70.0478 59.1442 70.0478 59.6733V65H68.7694V59.3963C68.7694 58.9311 68.6184 58.5565 68.3166 58.2724C68.0147 57.9847 67.6259 57.8409 67.15 57.8409C66.8233 57.8409 66.5179 57.9279 66.2338 58.1019C65.9533 58.2759 65.726 58.5174 65.552 58.8263C65.3816 59.1317 65.2963 59.4851 65.2963 59.8864V65H64.0392ZM80.5067 65.1705C79.7184 65.1705 79.0384 64.9964 78.4666 64.6484C77.8984 64.2969 77.4599 63.8068 77.1509 63.1783C76.8455 62.5462 76.6928 61.8111 76.6928 60.973C76.6928 60.1349 76.8455 59.3963 77.1509 58.7571C77.4599 58.1143 77.8896 57.6136 78.44 57.255C78.994 56.8928 79.6403 56.7116 80.3789 56.7116C80.805 56.7116 81.2259 56.7827 81.6413 56.9247C82.0568 57.0668 82.435 57.2976 82.7759 57.6172C83.1168 57.9332 83.3885 58.3523 83.5909 58.8743C83.7933 59.3963 83.8945 60.0391 83.8945 60.8026V61.3352H77.5877V60.2486H82.6161C82.6161 59.7869 82.5238 59.375 82.3391 59.0128C82.158 58.6506 81.8988 58.3647 81.5614 58.1552C81.2276 57.9457 80.8335 57.8409 80.3789 57.8409C79.8782 57.8409 79.445 57.9652 79.0792 58.2138C78.717 58.4588 78.4382 58.7784 78.2429 59.1726C78.0476 59.5668 77.9499 59.9893 77.9499 60.4403V61.1648C77.9499 61.7827 78.0565 62.3065 78.2695 62.7362C78.4862 63.1623 78.7862 63.4872 79.1697 63.7109C79.5533 63.9311 79.9989 64.0412 80.5067 64.0412C80.837 64.0412 81.1353 63.995 81.4016 63.9027C81.6715 63.8068 81.9041 63.6648 82.0994 63.4766C82.2947 63.2848 82.4457 63.0469 82.5522 62.7628L83.7667 63.1037C83.6388 63.5156 83.424 63.8778 83.1222 64.1903C82.8203 64.4993 82.4474 64.7408 82.0036 64.9148C81.5597 65.0852 81.0607 65.1705 80.5067 65.1705ZM85.8068 65V56.8182H87.0639V65H85.8068ZM86.446 55.4545C86.201 55.4545 85.9897 55.3711 85.8121 55.2042C85.6381 55.0373 85.5511 54.8366 85.5511 54.6023C85.5511 54.3679 85.6381 54.1673 85.8121 54.0004C85.9897 53.8335 86.201 53.75 86.446 53.75C86.6911 53.75 86.9006 53.8335 87.0746 54.0004C87.2521 54.1673 87.3409 54.3679 87.3409 54.6023C87.3409 54.8366 87.2521 55.0373 87.0746 55.2042C86.9006 55.3711 86.6911 55.4545 86.446 55.4545ZM91.7741 65.1918C91.2556 65.1918 90.7851 65.0941 90.3625 64.8988C89.9399 64.6999 89.6043 64.4141 89.3557 64.0412C89.1072 63.6648 88.9829 63.2102 88.9829 62.6776C88.9829 62.2088 89.0752 61.8288 89.2599 61.5376C89.4445 61.2429 89.6913 61.0121 90.0003 60.8452C90.3092 60.6783 90.6501 60.554 91.023 60.4723C91.3994 60.3871 91.7776 60.3196 92.1576 60.2699C92.6547 60.206 93.0578 60.158 93.3667 60.1261C93.6792 60.0906 93.9065 60.032 94.0486 59.9503C94.1942 59.8686 94.267 59.7266 94.267 59.5241V59.4815C94.267 58.956 94.1231 58.5476 93.8355 58.2564C93.5514 57.9652 93.1199 57.8196 92.5411 57.8196C91.941 57.8196 91.4704 57.951 91.1295 58.2138C90.7886 58.4766 90.5489 58.7571 90.4104 59.0554L89.2172 58.6293C89.4303 58.1321 89.7144 57.745 90.0695 57.468C90.4282 57.1875 90.8188 56.9922 91.2414 56.8821C91.6675 56.7685 92.0866 56.7116 92.4985 56.7116C92.7613 56.7116 93.0631 56.7436 93.404 56.8075C93.7485 56.8679 94.0805 56.994 94.4001 57.1857C94.7233 57.3775 94.9914 57.6669 95.2045 58.054C95.4175 58.4411 95.5241 58.9595 95.5241 59.6094V65H94.267V63.892H94.203C94.1178 64.0696 93.9758 64.2596 93.7769 64.462C93.578 64.6644 93.3135 64.8366 92.9832 64.9787C92.653 65.1207 92.2499 65.1918 91.7741 65.1918ZM91.9658 64.0625C92.463 64.0625 92.882 63.9648 93.2229 63.7695C93.5674 63.5742 93.8266 63.3221 94.0006 63.0131C94.1782 62.7042 94.267 62.3793 94.267 62.0384V60.8878C94.2137 60.9517 94.0965 61.0103 93.9154 61.0636C93.7378 61.1133 93.5319 61.1577 93.2975 61.1967C93.0667 61.2322 92.8412 61.2642 92.621 61.2926C92.4044 61.3175 92.2286 61.3388 92.0937 61.3565C91.767 61.3991 91.4616 61.4684 91.1775 61.5643C90.8969 61.6566 90.6697 61.7969 90.4956 61.9851C90.3252 62.1697 90.24 62.4219 90.24 62.7415C90.24 63.1783 90.4015 63.5085 90.7247 63.7322C91.0514 63.9524 91.4651 64.0625 91.9658 64.0625Z" fill="white"/>
<path d="M27.6023 83.1598C26.7642 83.1598 26.0433 82.9822 25.4396 82.6271C24.8395 82.2685 24.3778 81.7713 24.0547 81.1357C23.7351 80.5 23.5753 79.7685 23.5753 78.9411C23.5753 78.103 23.7369 77.3679 24.06 76.7358C24.3867 76.1001 24.8501 75.6048 25.4503 75.2496C26.0504 74.891 26.7642 74.7116 27.5916 74.7116C28.3054 74.7116 28.9304 74.8413 29.4666 75.1005C30.0028 75.3597 30.4272 75.7237 30.7397 76.1925C31.0522 76.6612 31.2244 77.2116 31.2564 77.8438H29.1151C29.0547 77.4354 28.8949 77.1069 28.6357 76.8583C28.38 76.6062 28.0444 76.4801 27.6289 76.4801C27.2773 76.4801 26.9702 76.576 26.7074 76.7678C26.4482 76.956 26.2457 77.2312 26.1001 77.5934C25.9545 77.9556 25.8817 78.3942 25.8817 78.9091C25.8817 79.4311 25.9528 79.875 26.0948 80.2408C26.2404 80.6065 26.4446 80.8853 26.7074 81.0771C26.9702 81.2688 27.2773 81.3647 27.6289 81.3647C27.8881 81.3647 28.1207 81.3114 28.3267 81.2049C28.5362 81.0984 28.7085 80.9439 28.8434 80.7415C28.9819 80.5355 29.0724 80.2887 29.1151 80.0011H31.2564C31.2209 80.6261 31.0504 81.1765 30.745 81.6523C30.4432 82.1246 30.0259 82.494 29.4933 82.7603C28.9606 83.0266 28.3303 83.1598 27.6023 83.1598ZM36.406 83.1598C35.5786 83.1598 34.863 82.984 34.2593 82.6325C33.6592 82.2773 33.1958 81.7837 32.8691 81.1516C32.5423 80.516 32.379 79.7791 32.379 78.9411C32.379 78.0959 32.5423 77.3572 32.8691 76.7251C33.1958 76.0895 33.6592 75.5959 34.2593 75.2443C34.863 74.8892 35.5786 74.7116 36.406 74.7116C37.2334 74.7116 37.9472 74.8892 38.5473 75.2443C39.151 75.5959 39.6162 76.0895 39.9429 76.7251C40.2696 77.3572 40.433 78.0959 40.433 78.9411C40.433 79.7791 40.2696 80.516 39.9429 81.1516C39.6162 81.7837 39.151 82.2773 38.5473 82.6325C37.9472 82.984 37.2334 83.1598 36.406 83.1598ZM36.4166 81.402C36.7931 81.402 37.1073 81.2955 37.3595 81.0824C37.6116 80.8658 37.8016 80.571 37.9294 80.1982C38.0608 79.8253 38.1265 79.4009 38.1265 78.9251C38.1265 78.4492 38.0608 78.0249 37.9294 77.652C37.8016 77.2791 37.6116 76.9844 37.3595 76.7678C37.1073 76.5511 36.7931 76.4428 36.4166 76.4428C36.0367 76.4428 35.7171 76.5511 35.4578 76.7678C35.2021 76.9844 35.0086 77.2791 34.8772 77.652C34.7494 78.0249 34.6855 78.4492 34.6855 78.9251C34.6855 79.4009 34.7494 79.8253 34.8772 80.1982C35.0086 80.571 35.2021 80.8658 35.4578 81.0824C35.7171 81.2955 36.0367 81.402 36.4166 81.402ZM41.9085 83V74.8182H44.0711V76.2617H44.167C44.3374 75.7823 44.6215 75.4041 45.0193 75.1271C45.417 74.8501 45.8928 74.7116 46.4468 74.7116C47.0079 74.7116 47.4855 74.8519 47.8797 75.1325C48.2739 75.4094 48.5367 75.7859 48.6681 76.2617H48.7533C48.9202 75.793 49.222 75.4183 49.6588 75.1378C50.0992 74.8537 50.6194 74.7116 51.2195 74.7116C51.983 74.7116 52.6027 74.9549 53.0786 75.4414C53.558 75.9244 53.7977 76.6097 53.7977 77.4975V83H51.5338V77.945C51.5338 77.4904 51.4131 77.1495 51.1716 76.9222C50.9301 76.695 50.6283 76.5813 50.2661 76.5813C49.8541 76.5813 49.5328 76.7127 49.3019 76.9755C49.0711 77.2347 48.9557 77.5774 48.9557 78.0036V83H46.7558V77.897C46.7558 77.4957 46.6404 77.1761 46.4095 76.9382C46.1823 76.7003 45.8822 76.5813 45.5093 76.5813C45.2572 76.5813 45.0299 76.6452 44.8275 76.7731C44.6286 76.8974 44.4706 77.0732 44.3534 77.3004C44.2362 77.5241 44.1776 77.7869 44.1776 78.0888V83H41.9085ZM60.8369 79.5163V74.8182H63.1061V83H60.9275V81.5138H60.8422C60.6576 81.9933 60.3504 82.3786 59.9207 82.6697C59.4946 82.9609 58.9743 83.1065 58.36 83.1065C57.8131 83.1065 57.3319 82.9822 56.9165 82.7337C56.501 82.4851 56.176 82.1317 55.9417 81.6737C55.7108 81.2156 55.5937 80.6669 55.5901 80.0277V74.8182H57.8593V79.6229C57.8628 80.1058 57.9925 80.4876 58.2481 80.7681C58.5038 81.0487 58.8465 81.1889 59.2762 81.1889C59.5496 81.1889 59.8053 81.1268 60.0432 81.0025C60.2812 80.8746 60.4729 80.6864 60.6185 80.4379C60.7677 80.1893 60.8405 79.8821 60.8369 79.5163ZM67.1903 78.2699V83H64.9212V74.8182H67.0838V76.2617H67.1797C67.3608 75.7859 67.6644 75.4094 68.0906 75.1325C68.5167 74.8519 69.0334 74.7116 69.6406 74.7116C70.2088 74.7116 70.7042 74.8359 71.1268 75.0845C71.5494 75.3331 71.8778 75.6882 72.1122 76.1499C72.3466 76.608 72.4638 77.1548 72.4638 77.7905V83H70.1946V78.1953C70.1982 77.6946 70.0703 77.304 69.8111 77.0234C69.5518 76.7393 69.195 76.5973 68.7404 76.5973C68.435 76.5973 68.1651 76.663 67.9308 76.7944C67.6999 76.9258 67.5188 77.1175 67.3874 77.3697C67.2596 77.6183 67.1939 77.9183 67.1903 78.2699ZM74.2522 83V74.8182H76.5214V83H74.2522ZM75.3921 73.7635C75.0548 73.7635 74.7654 73.6516 74.5239 73.4279C74.286 73.2006 74.167 72.929 74.167 72.6129C74.167 72.3004 74.286 72.0323 74.5239 71.8086C74.7654 71.5813 75.0548 71.4677 75.3921 71.4677C75.7295 71.4677 76.0171 71.5813 76.2551 71.8086C76.4965 72.0323 76.6173 72.3004 76.6173 72.6129C76.6173 72.929 76.4965 73.2006 76.2551 73.4279C76.0171 73.6516 75.7295 73.7635 75.3921 73.7635ZM81.354 83.1332C80.7326 83.1332 80.1697 82.9734 79.6655 82.6538C79.1648 82.3306 78.767 81.8565 78.4723 81.2315C78.1811 80.603 78.0355 79.8324 78.0355 78.9197C78.0355 77.9822 78.1864 77.2028 78.4883 76.5813C78.7901 75.9563 79.1914 75.4893 79.6921 75.1804C80.1964 74.8679 80.7486 74.7116 81.3487 74.7116C81.8068 74.7116 82.1886 74.7898 82.494 74.946C82.8029 75.0987 83.0515 75.2905 83.2397 75.5213C83.4315 75.7486 83.5771 75.9723 83.6765 76.1925H83.7457V72.0909H86.0096V83H83.7724V81.6896H83.6765C83.57 81.9169 83.419 82.1424 83.2237 82.3661C83.032 82.5863 82.7816 82.7692 82.4727 82.9148C82.1673 83.0604 81.7944 83.1332 81.354 83.1332ZM82.0732 81.3274C82.4389 81.3274 82.7479 81.228 83 81.0291C83.2557 80.8267 83.451 80.5444 83.5859 80.1822C83.7244 79.82 83.7937 79.3956 83.7937 78.9091C83.7937 78.4226 83.7262 78 83.5913 77.6413C83.4563 77.2827 83.261 77.0057 83.0053 76.8104C82.7496 76.6151 82.4389 76.5174 82.0732 76.5174C81.7003 76.5174 81.386 76.6186 81.1303 76.821C80.8746 77.0234 80.6811 77.304 80.5497 77.6626C80.4183 78.0213 80.3526 78.4368 80.3526 78.9091C80.3526 79.3849 80.4183 79.8058 80.5497 80.1715C80.6847 80.5337 80.8782 80.8178 81.1303 81.0238C81.386 81.2262 81.7003 81.3274 82.0732 81.3274ZM90.2084 83.1545C89.6863 83.1545 89.2211 83.0639 88.8128 82.8828C88.4044 82.6982 88.0812 82.4265 87.8433 82.0678C87.6089 81.7056 87.4917 81.2546 87.4917 80.7148C87.4917 80.2603 87.5752 79.8786 87.7421 79.5696C87.909 79.2607 88.1363 79.0121 88.4239 78.8239C88.7116 78.6357 89.0383 78.4936 89.404 78.3977C89.7733 78.3018 90.1604 78.2344 90.5653 78.1953C91.0411 78.1456 91.4246 78.0994 91.7158 78.0568C92.007 78.0107 92.2183 77.9432 92.3497 77.8544C92.4811 77.7656 92.5468 77.6342 92.5468 77.4602V77.4283C92.5468 77.0909 92.4403 76.8299 92.2272 76.6452C92.0177 76.4606 91.7194 76.3683 91.3323 76.3683C90.9239 76.3683 90.599 76.4588 90.3575 76.6399C90.116 76.8175 89.9562 77.0412 89.8781 77.3111L87.7794 77.1406C87.8859 76.6435 88.0954 76.2138 88.4079 75.8516C88.7204 75.4858 89.1235 75.2053 89.6171 75.0099C90.1143 74.8111 90.6895 74.7116 91.343 74.7116C91.7975 74.7116 92.2325 74.7649 92.648 74.8714C93.067 74.978 93.4381 75.1431 93.7613 75.3668C94.088 75.5906 94.3454 75.8782 94.5336 76.2298C94.7219 76.5778 94.816 76.995 94.816 77.4815V83H92.664V81.8654H92.6001C92.4687 82.1211 92.2929 82.3466 92.0727 82.5419C91.8525 82.7337 91.588 82.8846 91.279 82.9947C90.9701 83.1012 90.6132 83.1545 90.2084 83.1545ZM90.8582 81.5884C91.192 81.5884 91.4868 81.5227 91.7425 81.3913C91.9981 81.2564 92.1988 81.0753 92.3444 80.848C92.49 80.6207 92.5628 80.3633 92.5628 80.0756V79.2074C92.4917 79.2536 92.3941 79.2962 92.2698 79.3352C92.1491 79.3707 92.0123 79.4045 91.8596 79.4364C91.7069 79.4648 91.5542 79.4915 91.4015 79.5163C91.2488 79.5376 91.1104 79.5572 90.9861 79.5749C90.7197 79.614 90.4871 79.6761 90.2883 79.7614C90.0894 79.8466 89.9349 79.962 89.8248 80.1076C89.7148 80.2496 89.6597 80.4272 89.6597 80.6403C89.6597 80.9492 89.7716 81.1854 89.9953 81.3487C90.2226 81.5085 90.5102 81.5884 90.8582 81.5884ZM99.5914 83.1332C98.9699 83.1332 98.407 82.9734 97.9028 82.6538C97.4021 82.3306 97.0044 81.8565 96.7096 81.2315C96.4184 80.603 96.2728 79.8324 96.2728 78.9197C96.2728 77.9822 96.4237 77.2028 96.7256 76.5813C97.0274 75.9563 97.4287 75.4893 97.9294 75.1804C98.4337 74.8679 98.9859 74.7116 99.586 74.7116C100.044 74.7116 100.426 74.7898 100.731 74.946C101.04 75.0987 101.289 75.2905 101.477 75.5213C101.669 75.7486 101.814 75.9723 101.914 76.1925H101.983V72.0909H104.247V83H102.01V81.6896H101.914C101.807 81.9169 101.656 82.1424 101.461 82.3661C101.269 82.5863 101.019 82.7692 100.71 82.9148C100.405 83.0604 100.032 83.1332 99.5914 83.1332ZM100.31 81.3274C100.676 81.3274 100.985 81.228 101.237 81.0291C101.493 80.8267 101.688 80.5444 101.823 80.1822C101.962 79.82 102.031 79.3956 102.031 78.9091C102.031 78.4226 101.964 78 101.829 77.6413C101.694 77.2827 101.498 77.0057 101.243 76.8104C100.987 76.6151 100.676 76.5174 100.31 76.5174C99.9376 76.5174 99.6233 76.6186 99.3676 76.821C99.1119 77.0234 98.9184 77.304 98.787 77.6626C98.6556 78.0213 98.5899 78.4368 98.5899 78.9091C98.5899 79.3849 98.6556 79.8058 98.787 80.1715C98.922 80.5337 99.1155 80.8178 99.3676 81.0238C99.6233 81.2262 99.9376 81.3274 100.31 81.3274ZM109.841 83.1598C109 83.1598 108.275 82.9893 107.668 82.6484C107.064 82.304 106.599 81.8175 106.272 81.1889C105.946 80.5568 105.782 79.8093 105.782 78.9464C105.782 78.1048 105.946 77.3661 106.272 76.7305C106.599 76.0948 107.059 75.5994 107.652 75.2443C108.249 74.8892 108.948 74.7116 109.751 74.7116C110.29 74.7116 110.793 74.7987 111.258 74.9727C111.727 75.1431 112.135 75.4006 112.483 75.745C112.835 76.0895 113.108 76.5227 113.304 77.0447C113.499 77.5632 113.597 78.1705 113.597 78.8665V79.4897H106.688V78.0835H111.461C111.461 77.7567 111.39 77.4673 111.248 77.2152C111.105 76.9631 110.908 76.766 110.656 76.6239C110.408 76.4783 110.118 76.4055 109.788 76.4055C109.444 76.4055 109.138 76.4854 108.872 76.6452C108.609 76.8015 108.403 77.0128 108.254 77.2791C108.105 77.5419 108.028 77.8349 108.025 78.158V79.495C108.025 79.8999 108.099 80.2496 108.249 80.5444C108.401 80.8391 108.616 81.0664 108.893 81.2262C109.17 81.386 109.499 81.4659 109.879 81.4659C110.131 81.4659 110.362 81.4304 110.571 81.3594C110.781 81.2884 110.96 81.1818 111.109 81.0398C111.258 80.8977 111.372 80.7237 111.45 80.5178L113.549 80.6562C113.442 81.1605 113.224 81.6009 112.893 81.9773C112.567 82.3501 112.144 82.6413 111.626 82.8509C111.111 83.0568 110.516 83.1598 109.841 83.1598Z" fill="white"/>
</svg>
