<svg width="57" height="45" viewBox="0 0 57 45" fill="none" xmlns="http://www.w3.org/2000/svg">
<path d="M52.6448 5.88525C50.5262 2.35412 46.7596 0 42.5222 0H14.273C10.0356 0 6.26914 2.35412 4.15038 5.88525C1.5609 10.5935 0.14843 15.7726 0.14843 21.187C0.14843 34.1345 5.32749 44.7279 11.9189 44.7279C15.45 44.7279 18.275 41.4322 20.3936 34.6053C20.629 33.6636 21.5706 32.9575 22.7478 32.9575H34.2829C35.2245 32.9575 36.1662 33.6636 36.637 34.6053C38.7557 41.4322 41.5806 44.7279 45.1117 44.7279C51.7032 44.7279 56.8822 34.1345 56.8822 21.187C56.6469 15.7726 55.2344 10.5935 52.6448 5.88525ZM44.8763 40.0197C44.1701 40.0197 42.5222 38.1364 40.8743 33.1928C39.9327 30.1325 37.1077 28.2492 34.0474 28.2492H22.7478C19.6875 28.2492 16.8625 30.3679 15.9209 33.1928C14.273 38.1364 12.6251 40.0197 11.9189 40.0197C9.5648 40.0197 4.85667 32.722 4.85667 21.187C4.85667 16.7142 6.03368 12.2414 8.15244 8.23948C9.56491 6.12082 11.919 4.70835 14.2732 4.70835H42.5224C44.8765 4.70835 47.2306 6.12082 48.6431 8.23948C50.7617 12.2414 51.9389 16.7142 51.9389 21.187C51.9386 32.722 47.2304 40.0197 44.8763 40.0197Z" fill="#F1AF08"/>
<path d="M21.4236 15.2723H19.0597V12.9084C19.0597 11.4901 18.1142 10.5446 16.6959 10.5446C15.2775 10.5446 14.332 11.4901 14.332 12.9084V15.2723H11.9681C10.5498 15.2723 9.60426 16.2178 9.60426 17.6362C9.60426 19.0545 10.5498 20 11.9681 20H14.3319V22.364C14.3319 23.7824 15.2774 24.7279 16.6958 24.7279C18.1141 24.7279 19.0596 23.7824 19.0596 22.364V20.0002H21.4236C22.842 20.0002 23.7875 19.0546 23.7875 17.6363C23.7875 16.2178 22.842 15.2723 21.4236 15.2723Z" fill="#F1AF08"/>
<path d="M43.8808 17.6362C45.8391 17.6362 47.4266 16.0486 47.4266 14.0903C47.4266 12.132 45.8391 10.5444 43.8808 10.5444C41.9224 10.5444 40.3349 12.132 40.3349 14.0903C40.3349 16.0486 41.9224 17.6362 43.8808 17.6362Z" fill="#F1AF08"/>
<path d="M36.789 24.7278C38.7474 24.7278 40.3349 23.1403 40.3349 21.182C40.3349 19.2236 38.7474 17.6361 36.789 17.6361C34.8307 17.6361 33.2432 19.2236 33.2432 21.182C33.2432 23.1403 34.8307 24.7278 36.789 24.7278Z" fill="#F1AF08"/>
</svg>
