<svg width="529" height="32" viewBox="0 0 529 32" fill="none" xmlns="http://www.w3.org/2000/svg">
<rect width="529" height="32" rx="7" fill="#2C2D2B"/>
<path d="M174.977 11.2727V20H173.955L169.199 13.1477H169.114V20H168.057V11.2727H169.08L173.852 18.142H173.938V11.2727H174.977ZM178.882 20.1534C178.467 20.1534 178.091 20.0753 177.752 19.919C177.414 19.7599 177.146 19.5312 176.947 19.233C176.748 18.9318 176.649 18.5682 176.649 18.142C176.649 17.767 176.723 17.4631 176.87 17.2301C177.018 16.9943 177.216 16.8097 177.463 16.6761C177.71 16.5426 177.983 16.4432 178.281 16.3778C178.582 16.3097 178.885 16.2557 179.189 16.2159C179.586 16.1648 179.909 16.1264 180.156 16.1009C180.406 16.0724 180.588 16.0256 180.701 15.9602C180.818 15.8949 180.876 15.7812 180.876 15.6193V15.5852C180.876 15.1648 180.761 14.8381 180.531 14.6051C180.304 14.3722 179.958 14.2557 179.495 14.2557C179.015 14.2557 178.639 14.3608 178.366 14.571C178.093 14.7812 177.902 15.0057 177.791 15.2443L176.836 14.9034C177.007 14.5057 177.234 14.196 177.518 13.9744C177.805 13.75 178.118 13.5937 178.456 13.5057C178.797 13.4148 179.132 13.3693 179.461 13.3693C179.672 13.3693 179.913 13.3949 180.186 13.446C180.461 13.4943 180.727 13.5952 180.983 13.7486C181.241 13.902 181.456 14.1335 181.626 14.4432C181.797 14.7528 181.882 15.1676 181.882 15.6875V20H180.876V19.1136H180.825C180.757 19.2557 180.643 19.4077 180.484 19.5696C180.325 19.7315 180.113 19.8693 179.849 19.983C179.585 20.0966 179.262 20.1534 178.882 20.1534ZM179.035 19.25C179.433 19.25 179.768 19.1719 180.041 19.0156C180.316 18.8594 180.524 18.6577 180.663 18.4105C180.805 18.1634 180.876 17.9034 180.876 17.6307V16.7102C180.833 16.7614 180.74 16.8082 180.595 16.8509C180.453 16.8906 180.288 16.9261 180.1 16.9574C179.916 16.9858 179.735 17.0114 179.559 17.0341C179.386 17.054 179.245 17.071 179.137 17.0852C178.876 17.1193 178.632 17.1747 178.404 17.2514C178.18 17.3253 177.998 17.4375 177.859 17.5881C177.723 17.7358 177.654 17.9375 177.654 18.1932C177.654 18.5426 177.784 18.8068 178.042 18.9858C178.304 19.1619 178.635 19.25 179.035 19.25ZM178.217 12.6705L177.433 12.6364C177.433 12.2017 177.556 11.8466 177.804 11.571C178.054 11.2926 178.362 11.1534 178.728 11.1534C178.89 11.1534 179.034 11.1818 179.159 11.2386C179.284 11.2926 179.403 11.3551 179.517 11.4261C179.63 11.4972 179.747 11.5611 179.866 11.6179C179.988 11.6719 180.126 11.6989 180.279 11.6989C180.441 11.6989 180.578 11.6364 180.689 11.5114C180.802 11.3835 180.859 11.2301 180.859 11.0511L181.626 11.1193C181.626 11.5625 181.501 11.9148 181.251 12.1761C181.004 12.4375 180.697 12.5682 180.331 12.5682C180.135 12.5682 179.973 12.5412 179.845 12.4872C179.717 12.4304 179.603 12.3665 179.504 12.2955C179.404 12.2244 179.299 12.1619 179.189 12.108C179.078 12.0511 178.941 12.0227 178.779 12.0227C178.618 12.0227 178.483 12.0866 178.375 12.2145C178.27 12.3395 178.217 12.4915 178.217 12.6705ZM186.376 20.1364C185.786 20.1364 185.267 19.9957 184.821 19.7145C184.378 19.4332 184.031 19.0398 183.781 18.5341C183.534 18.0284 183.411 17.4375 183.411 16.7614C183.411 16.0795 183.534 15.4844 183.781 14.9759C184.031 14.4673 184.378 14.0724 184.821 13.7912C185.267 13.5099 185.786 13.3693 186.376 13.3693C186.967 13.3693 187.484 13.5099 187.928 13.7912C188.374 14.0724 188.72 14.4673 188.967 14.9759C189.217 15.4844 189.342 16.0795 189.342 16.7614C189.342 17.4375 189.217 18.0284 188.967 18.5341C188.72 19.0398 188.374 19.4332 187.928 19.7145C187.484 19.9957 186.967 20.1364 186.376 20.1364ZM186.376 19.233C186.825 19.233 187.195 19.1179 187.484 18.8878C187.774 18.6577 187.989 18.3551 188.128 17.9801C188.267 17.6051 188.337 17.1989 188.337 16.7614C188.337 16.3239 188.267 15.9162 188.128 15.5384C187.989 15.1605 187.774 14.8551 187.484 14.6222C187.195 14.3892 186.825 14.2727 186.376 14.2727C185.928 14.2727 185.558 14.3892 185.268 14.6222C184.979 14.8551 184.764 15.1605 184.625 15.5384C184.486 15.9162 184.416 16.3239 184.416 16.7614C184.416 17.1989 184.486 17.6051 184.625 17.9801C184.764 18.3551 184.979 18.6577 185.268 18.8878C185.558 19.1179 185.928 19.233 186.376 19.233ZM195.258 16.0625V20H194.252V11.2727H195.258V14.4773H195.343C195.497 14.1392 195.727 13.8707 196.034 13.6719C196.343 13.4702 196.755 13.3693 197.27 13.3693C197.716 13.3693 198.106 13.4588 198.441 13.6378C198.777 13.8139 199.037 14.0852 199.221 14.4517C199.409 14.8153 199.502 15.2784 199.502 15.8409V20H198.497V15.9091C198.497 15.3892 198.362 14.9872 198.092 14.7031C197.825 14.4162 197.454 14.2727 196.98 14.2727C196.65 14.2727 196.355 14.3423 196.093 14.4815C195.835 14.6207 195.63 14.8239 195.48 15.0909C195.332 15.358 195.258 15.6818 195.258 16.0625ZM203.268 20.1534C202.854 20.1534 202.477 20.0753 202.139 19.919C201.801 19.7599 201.533 19.5312 201.334 19.233C201.135 18.9318 201.036 18.5682 201.036 18.142C201.036 17.767 201.109 17.4631 201.257 17.2301C201.405 16.9943 201.602 16.8097 201.849 16.6761C202.097 16.5426 202.369 16.4432 202.668 16.3778C202.969 16.3097 203.271 16.2557 203.575 16.2159C203.973 16.1648 204.295 16.1264 204.543 16.1009C204.793 16.0724 204.974 16.0256 205.088 15.9602C205.205 15.8949 205.263 15.7812 205.263 15.6193V15.5852C205.263 15.1648 205.148 14.8381 204.918 14.6051C204.69 14.3722 204.345 14.2557 203.882 14.2557C203.402 14.2557 203.026 14.3608 202.753 14.571C202.48 14.7812 202.288 15.0057 202.178 15.2443L201.223 14.9034C201.393 14.5057 201.621 14.196 201.905 13.9744C202.192 13.75 202.504 13.5937 202.842 13.5057C203.183 13.4148 203.518 13.3693 203.848 13.3693C204.058 13.3693 204.3 13.3949 204.572 13.446C204.848 13.4943 205.114 13.5952 205.369 13.7486C205.628 13.902 205.842 14.1335 206.013 14.4432C206.183 14.7528 206.268 15.1676 206.268 15.6875V20H205.263V19.1136H205.212C205.143 19.2557 205.03 19.4077 204.871 19.5696C204.712 19.7315 204.5 19.8693 204.236 19.983C203.972 20.0966 203.649 20.1534 203.268 20.1534ZM203.422 19.25C203.82 19.25 204.155 19.1719 204.428 19.0156C204.703 18.8594 204.911 18.6577 205.05 18.4105C205.192 18.1634 205.263 17.9034 205.263 17.6307V16.7102C205.22 16.7614 205.126 16.8082 204.982 16.8509C204.839 16.8906 204.675 16.9261 204.487 16.9574C204.303 16.9858 204.122 17.0114 203.946 17.0341C203.773 17.054 203.632 17.071 203.524 17.0852C203.263 17.1193 203.018 17.1747 202.791 17.2514C202.567 17.3253 202.385 17.4375 202.246 17.5881C202.109 17.7358 202.041 17.9375 202.041 18.1932C202.041 18.5426 202.17 18.8068 202.429 18.9858C202.69 19.1619 203.021 19.25 203.422 19.25ZM203.456 12.5682L204.496 10.5909H205.672L204.342 12.5682H203.456ZM211.479 20V13.4545H212.451V14.4773H212.536C212.672 14.1278 212.892 13.8565 213.196 13.6634C213.5 13.4673 213.865 13.3693 214.292 13.3693C214.723 13.3693 215.083 13.4673 215.37 13.6634C215.659 13.8565 215.885 14.1278 216.047 14.4773H216.115C216.283 14.1392 216.534 13.8707 216.87 13.6719C217.205 13.4702 217.607 13.3693 218.076 13.3693C218.661 13.3693 219.14 13.5526 219.512 13.919C219.884 14.2827 220.07 14.8494 220.07 15.6193V20H219.064V15.6193C219.064 15.1364 218.932 14.7912 218.668 14.5838C218.404 14.3764 218.093 14.2727 217.735 14.2727C217.275 14.2727 216.918 14.4119 216.665 14.6903C216.412 14.9659 216.286 15.3153 216.286 15.7386V20H215.263V15.517C215.263 15.1449 215.142 14.8452 214.901 14.6179C214.659 14.3878 214.348 14.2727 213.968 14.2727C213.706 14.2727 213.462 14.3423 213.235 14.4815C213.01 14.6207 212.828 14.8139 212.689 15.0611C212.553 15.3054 212.485 15.5881 212.485 15.9091V20H211.479ZM223.835 20.1534C223.42 20.1534 223.044 20.0753 222.706 19.919C222.368 19.7599 222.099 19.5312 221.9 19.233C221.701 18.9318 221.602 18.5682 221.602 18.142C221.602 17.767 221.676 17.4631 221.824 17.2301C221.971 16.9943 222.169 16.8097 222.416 16.6761C222.663 16.5426 222.936 16.4432 223.234 16.3778C223.535 16.3097 223.838 16.2557 224.142 16.2159C224.539 16.1648 224.862 16.1264 225.109 16.1009C225.359 16.0724 225.541 16.0256 225.654 15.9602C225.771 15.8949 225.829 15.7812 225.829 15.6193V15.5852C225.829 15.1648 225.714 14.8381 225.484 14.6051C225.257 14.3722 224.912 14.2557 224.449 14.2557C223.968 14.2557 223.592 14.3608 223.319 14.571C223.047 14.7812 222.855 15.0057 222.744 15.2443L221.789 14.9034C221.96 14.5057 222.187 14.196 222.471 13.9744C222.758 13.75 223.071 13.5937 223.409 13.5057C223.75 13.4148 224.085 13.3693 224.414 13.3693C224.625 13.3693 224.866 13.3949 225.139 13.446C225.414 13.4943 225.68 13.5952 225.936 13.7486C226.194 13.902 226.409 14.1335 226.579 14.4432C226.75 14.7528 226.835 15.1676 226.835 15.6875V20H225.829V19.1136H225.778C225.71 19.2557 225.596 19.4077 225.437 19.5696C225.278 19.7315 225.066 19.8693 224.802 19.983C224.538 20.0966 224.216 20.1534 223.835 20.1534ZM223.988 19.25C224.386 19.25 224.721 19.1719 224.994 19.0156C225.27 18.8594 225.477 18.6577 225.616 18.4105C225.758 18.1634 225.829 17.9034 225.829 17.6307V16.7102C225.787 16.7614 225.693 16.8082 225.548 16.8509C225.406 16.8906 225.241 16.9261 225.054 16.9574C224.869 16.9858 224.689 17.0114 224.512 17.0341C224.339 17.054 224.199 17.071 224.091 17.0852C223.829 17.1193 223.585 17.1747 223.358 17.2514C223.133 17.3253 222.951 17.4375 222.812 17.5881C222.676 17.7358 222.608 17.9375 222.608 18.1932C222.608 18.5426 222.737 18.8068 222.995 18.9858C223.257 19.1619 223.588 19.25 223.988 19.25ZM228.67 20V13.4545H229.676V20H228.67ZM229.182 12.3636C228.986 12.3636 228.817 12.2969 228.675 12.1634C228.536 12.0298 228.466 11.8693 228.466 11.6818C228.466 11.4943 228.536 11.3338 228.675 11.2003C228.817 11.0668 228.986 11 229.182 11C229.378 11 229.545 11.0668 229.685 11.2003C229.827 11.3338 229.898 11.4943 229.898 11.6818C229.898 11.8693 229.827 12.0298 229.685 12.1634C229.545 12.2969 229.378 12.3636 229.182 12.3636ZM236.154 14.9205L235.251 15.1761C235.194 15.0256 235.11 14.8793 235 14.7372C234.892 14.5923 234.744 14.473 234.556 14.3793C234.369 14.2855 234.129 14.2386 233.836 14.2386C233.436 14.2386 233.102 14.331 232.835 14.5156C232.571 14.6974 232.439 14.929 232.439 15.2102C232.439 15.4602 232.529 15.6577 232.711 15.8026C232.893 15.9474 233.177 16.0682 233.564 16.1648L234.535 16.4034C235.12 16.5455 235.556 16.7628 235.843 17.0554C236.13 17.3452 236.274 17.7187 236.274 18.1761C236.274 18.5511 236.166 18.8864 235.95 19.1818C235.737 19.4773 235.439 19.7102 235.055 19.8807C234.672 20.0511 234.225 20.1364 233.717 20.1364C233.049 20.1364 232.497 19.9915 232.059 19.7017C231.622 19.4119 231.345 18.9886 231.228 18.4318L232.183 18.1932C232.274 18.5455 232.446 18.8097 232.699 18.9858C232.954 19.1619 233.288 19.25 233.7 19.25C234.169 19.25 234.541 19.1506 234.816 18.9517C235.095 18.75 235.234 18.5085 235.234 18.2273C235.234 18 235.154 17.8097 234.995 17.6562C234.836 17.5 234.592 17.3835 234.262 17.3068L233.172 17.0511C232.572 16.9091 232.132 16.6889 231.85 16.3906C231.572 16.0895 231.433 15.7131 231.433 15.2614C231.433 14.892 231.537 14.5653 231.744 14.2812C231.954 13.9972 232.24 13.7741 232.6 13.6122C232.964 13.4503 233.376 13.3693 233.836 13.3693C234.484 13.3693 234.993 13.5114 235.362 13.7955C235.734 14.0795 235.998 14.4545 236.154 14.9205ZM241.163 22.4545V13.4545H242.134V14.4943H242.254C242.327 14.3807 242.43 14.2358 242.56 14.0597C242.694 13.8807 242.884 13.7216 243.131 13.5824C243.381 13.4403 243.719 13.3693 244.146 13.3693C244.697 13.3693 245.183 13.5071 245.603 13.7827C246.023 14.0582 246.352 14.4489 246.587 14.9545C246.823 15.4602 246.941 16.0568 246.941 16.7443C246.941 17.4375 246.823 18.0384 246.587 18.5469C246.352 19.0526 246.025 19.4446 245.607 19.723C245.19 19.9986 244.708 20.1364 244.163 20.1364C243.742 20.1364 243.406 20.0668 243.153 19.9276C242.9 19.7855 242.705 19.625 242.569 19.446C242.433 19.2642 242.327 19.1136 242.254 18.9943H242.168V22.4545H241.163ZM242.151 16.7273C242.151 17.2216 242.224 17.6577 242.369 18.0355C242.513 18.4105 242.725 18.7045 243.004 18.9176C243.282 19.1278 243.623 19.233 244.026 19.233C244.447 19.233 244.798 19.1222 245.079 18.9006C245.363 18.6761 245.576 18.375 245.718 17.9972C245.863 17.6165 245.935 17.1932 245.935 16.7273C245.935 16.267 245.864 15.8523 245.722 15.483C245.583 15.1108 245.371 14.8168 245.087 14.6009C244.806 14.3821 244.452 14.2727 244.026 14.2727C243.617 14.2727 243.273 14.3764 242.995 14.5838C242.717 14.7884 242.506 15.0753 242.364 15.4446C242.222 15.8111 242.151 16.2386 242.151 16.7273ZM251.134 20.1364C250.543 20.1364 250.025 19.9957 249.579 19.7145C249.136 19.4332 248.789 19.0398 248.539 18.5341C248.292 18.0284 248.168 17.4375 248.168 16.7614C248.168 16.0795 248.292 15.4844 248.539 14.9759C248.789 14.4673 249.136 14.0724 249.579 13.7912C250.025 13.5099 250.543 13.3693 251.134 13.3693C251.725 13.3693 252.242 13.5099 252.685 13.7912C253.131 14.0724 253.478 14.4673 253.725 14.9759C253.975 15.4844 254.1 16.0795 254.1 16.7614C254.1 17.4375 253.975 18.0284 253.725 18.5341C253.478 19.0398 253.131 19.4332 252.685 19.7145C252.242 19.9957 251.725 20.1364 251.134 20.1364ZM251.134 19.233C251.583 19.233 251.952 19.1179 252.242 18.8878C252.532 18.6577 252.746 18.3551 252.886 17.9801C253.025 17.6051 253.094 17.1989 253.094 16.7614C253.094 16.3239 253.025 15.9162 252.886 15.5384C252.746 15.1605 252.532 14.8551 252.242 14.6222C251.952 14.3892 251.583 14.2727 251.134 14.2727C250.685 14.2727 250.316 14.3892 250.026 14.6222C249.737 14.8551 249.522 15.1605 249.383 15.5384C249.244 15.9162 249.174 16.3239 249.174 16.7614C249.174 17.1989 249.244 17.6051 249.383 17.9801C249.522 18.3551 249.737 18.6577 250.026 18.8878C250.316 19.1179 250.685 19.233 251.134 19.233ZM260.272 14.9205L259.368 15.1761C259.311 15.0256 259.228 14.8793 259.117 14.7372C259.009 14.5923 258.861 14.473 258.674 14.3793C258.486 14.2855 258.246 14.2386 257.953 14.2386C257.553 14.2386 257.219 14.331 256.952 14.5156C256.688 14.6974 256.556 14.929 256.556 15.2102C256.556 15.4602 256.647 15.6577 256.828 15.8026C257.01 15.9474 257.294 16.0682 257.681 16.1648L258.652 16.4034C259.238 16.5455 259.674 16.7628 259.961 17.0554C260.248 17.3452 260.391 17.7187 260.391 18.1761C260.391 18.5511 260.283 18.8864 260.067 19.1818C259.854 19.4773 259.556 19.7102 259.172 19.8807C258.789 20.0511 258.343 20.1364 257.834 20.1364C257.167 20.1364 256.614 19.9915 256.176 19.7017C255.739 19.4119 255.462 18.9886 255.346 18.4318L256.3 18.1932C256.391 18.5455 256.563 18.8097 256.816 18.9858C257.071 19.1619 257.405 19.25 257.817 19.25C258.286 19.25 258.658 19.1506 258.934 18.9517C259.212 18.75 259.351 18.5085 259.351 18.2273C259.351 18 259.272 17.8097 259.113 17.6562C258.953 17.5 258.709 17.3835 258.38 17.3068L257.289 17.0511C256.689 16.9091 256.249 16.6889 255.968 16.3906C255.689 16.0895 255.55 15.7131 255.55 15.2614C255.55 14.892 255.654 14.5653 255.861 14.2812C256.071 13.9972 256.357 13.7741 256.718 13.6122C257.081 13.4503 257.493 13.3693 257.953 13.3693C258.601 13.3693 259.11 13.5114 259.479 13.7955C259.851 14.0795 260.115 14.4545 260.272 14.9205ZM264.751 13.4545V14.3068H261.359V13.4545H264.751ZM262.348 11.8864H263.354V18.125C263.354 18.4091 263.395 18.6222 263.477 18.7642C263.563 18.9034 263.67 18.9972 263.801 19.0455C263.935 19.0909 264.075 19.1136 264.223 19.1136C264.334 19.1136 264.425 19.108 264.496 19.0966C264.567 19.0824 264.624 19.071 264.666 19.0625L264.871 19.9659C264.803 19.9915 264.707 20.017 264.585 20.0426C264.463 20.071 264.308 20.0852 264.121 20.0852C263.837 20.0852 263.558 20.0241 263.286 19.902C263.016 19.7798 262.791 19.5938 262.612 19.3438C262.436 19.0938 262.348 18.7784 262.348 18.3977V11.8864ZM268.19 20.1534C267.776 20.1534 267.399 20.0753 267.061 19.919C266.723 19.7599 266.455 19.5312 266.256 19.233C266.057 18.9318 265.957 18.5682 265.957 18.142C265.957 17.767 266.031 17.4631 266.179 17.2301C266.327 16.9943 266.524 16.8097 266.771 16.6761C267.018 16.5426 267.291 16.4432 267.589 16.3778C267.891 16.3097 268.193 16.2557 268.497 16.2159C268.895 16.1648 269.217 16.1264 269.464 16.1009C269.714 16.0724 269.896 16.0256 270.01 15.9602C270.126 15.8949 270.185 15.7812 270.185 15.6193V15.5852C270.185 15.1648 270.07 14.8381 269.839 14.6051C269.612 14.3722 269.267 14.2557 268.804 14.2557C268.324 14.2557 267.947 14.3608 267.675 14.571C267.402 14.7812 267.21 15.0057 267.099 15.2443L266.145 14.9034C266.315 14.5057 266.543 14.196 266.827 13.9744C267.114 13.75 267.426 13.5937 267.764 13.5057C268.105 13.4148 268.44 13.3693 268.77 13.3693C268.98 13.3693 269.222 13.3949 269.494 13.446C269.77 13.4943 270.036 13.5952 270.291 13.7486C270.55 13.902 270.764 14.1335 270.935 14.4432C271.105 14.7528 271.19 15.1676 271.19 15.6875V20H270.185V19.1136H270.134C270.065 19.2557 269.952 19.4077 269.793 19.5696C269.634 19.7315 269.422 19.8693 269.158 19.983C268.893 20.0966 268.571 20.1534 268.19 20.1534ZM268.344 19.25C268.741 19.25 269.077 19.1719 269.349 19.0156C269.625 18.8594 269.832 18.6577 269.972 18.4105C270.114 18.1634 270.185 17.9034 270.185 17.6307V16.7102C270.142 16.7614 270.048 16.8082 269.903 16.8509C269.761 16.8906 269.597 16.9261 269.409 16.9574C269.224 16.9858 269.044 17.0114 268.868 17.0341C268.695 17.054 268.554 17.071 268.446 17.0852C268.185 17.1193 267.94 17.1747 267.713 17.2514C267.489 17.3253 267.307 17.4375 267.168 17.5881C267.031 17.7358 266.963 17.9375 266.963 18.1932C266.963 18.5426 267.092 18.8068 267.351 18.9858C267.612 19.1619 267.943 19.25 268.344 19.25ZM275.668 22.5909C275.182 22.5909 274.765 22.5284 274.415 22.4034C274.066 22.2812 273.775 22.1193 273.542 21.9176C273.311 21.7188 273.128 21.5057 272.992 21.2784L273.793 20.7159C273.884 20.8352 273.999 20.9716 274.138 21.125C274.277 21.2812 274.468 21.4162 274.709 21.5298C274.953 21.6463 275.273 21.7045 275.668 21.7045C276.196 21.7045 276.632 21.5767 276.976 21.321C277.32 21.0653 277.492 20.6648 277.492 20.1193V18.7898H277.407C277.333 18.9091 277.228 19.0568 277.091 19.233C276.958 19.4062 276.765 19.5611 276.512 19.6974C276.262 19.831 275.924 19.8977 275.498 19.8977C274.969 19.8977 274.495 19.7727 274.074 19.5227C273.657 19.2727 273.326 18.9091 273.081 18.4318C272.84 17.9545 272.719 17.375 272.719 16.6932C272.719 16.0227 272.837 15.4389 273.073 14.9418C273.309 14.4418 273.637 14.0554 274.057 13.7827C274.478 13.5071 274.963 13.3693 275.515 13.3693C275.941 13.3693 276.279 13.4403 276.529 13.5824C276.782 13.7216 276.975 13.8807 277.108 14.0597C277.245 14.2358 277.35 14.3807 277.424 14.4943H277.526V13.4545H278.498V20.1875C278.498 20.75 278.37 21.2074 278.114 21.5597C277.861 21.9148 277.52 22.1747 277.091 22.3395C276.665 22.5071 276.191 22.5909 275.668 22.5909ZM275.634 18.9943C276.037 18.9943 276.378 18.902 276.657 18.7173C276.935 18.5327 277.147 18.267 277.292 17.9205C277.436 17.5739 277.509 17.1591 277.509 16.6761C277.509 16.2045 277.438 15.7884 277.296 15.4276C277.154 15.0668 276.944 14.7841 276.665 14.5795C276.387 14.375 276.043 14.2727 275.634 14.2727C275.208 14.2727 274.853 14.3807 274.569 14.5966C274.287 14.8125 274.076 15.1023 273.934 15.4659C273.794 15.8295 273.725 16.233 273.725 16.6761C273.725 17.1307 273.796 17.5327 273.938 17.8821C274.083 18.2287 274.296 18.5014 274.577 18.7003C274.861 18.8963 275.213 18.9943 275.634 18.9943ZM283.083 20.1364C282.452 20.1364 281.908 19.9972 281.451 19.7188C280.996 19.4375 280.645 19.0455 280.398 18.5426C280.154 18.0369 280.032 17.4489 280.032 16.7784C280.032 16.108 280.154 15.517 280.398 15.0057C280.645 14.4915 280.989 14.0909 281.429 13.804C281.873 13.5142 282.39 13.3693 282.98 13.3693C283.321 13.3693 283.658 13.4261 283.99 13.5398C284.323 13.6534 284.625 13.8381 284.898 14.0938C285.171 14.3466 285.388 14.6818 285.55 15.0994C285.712 15.517 285.793 16.0312 285.793 16.642V17.0682H280.748V16.1989H284.77C284.77 15.8295 284.696 15.5 284.549 15.2102C284.404 14.9205 284.196 14.6918 283.926 14.5241C283.659 14.3565 283.344 14.2727 282.98 14.2727C282.58 14.2727 282.233 14.3722 281.941 14.571C281.651 14.767 281.428 15.0227 281.272 15.3381C281.115 15.6534 281.037 15.9915 281.037 16.3523V16.9318C281.037 17.4261 281.123 17.8452 281.293 18.1889C281.466 18.5298 281.706 18.7898 282.013 18.9688C282.32 19.1449 282.676 19.233 283.083 19.233C283.347 19.233 283.586 19.196 283.799 19.1222C284.015 19.0455 284.201 18.9318 284.357 18.7812C284.513 18.6278 284.634 18.4375 284.719 18.2102L285.691 18.483C285.588 18.8125 285.417 19.1023 285.175 19.3523C284.934 19.5994 284.635 19.7926 284.28 19.9318C283.925 20.0682 283.526 20.1364 283.083 20.1364ZM288.328 16.0625V20H287.323V13.4545H288.294V14.4773H288.38C288.533 14.1449 288.766 13.8778 289.078 13.6761C289.391 13.4716 289.794 13.3693 290.289 13.3693C290.732 13.3693 291.12 13.4602 291.452 13.642C291.784 13.821 292.043 14.0938 292.228 14.4602C292.412 14.8239 292.505 15.2841 292.505 15.8409V20H291.499V15.9091C291.499 15.3949 291.365 14.9943 291.098 14.7074C290.831 14.4176 290.465 14.2727 289.999 14.2727C289.678 14.2727 289.391 14.3423 289.138 14.4815C288.888 14.6207 288.691 14.8239 288.546 15.0909C288.401 15.358 288.328 15.6818 288.328 16.0625ZM298.979 14.9205L298.075 15.1761C298.018 15.0256 297.935 14.8793 297.824 14.7372C297.716 14.5923 297.568 14.473 297.381 14.3793C297.193 14.2855 296.953 14.2386 296.661 14.2386C296.26 14.2386 295.926 14.331 295.659 14.5156C295.395 14.6974 295.263 14.929 295.263 15.2102C295.263 15.4602 295.354 15.6577 295.536 15.8026C295.717 15.9474 296.001 16.0682 296.388 16.1648L297.359 16.4034C297.945 16.5455 298.381 16.7628 298.668 17.0554C298.955 17.3452 299.098 17.7187 299.098 18.1761C299.098 18.5511 298.99 18.8864 298.774 19.1818C298.561 19.4773 298.263 19.7102 297.879 19.8807C297.496 20.0511 297.05 20.1364 296.541 20.1364C295.874 20.1364 295.321 19.9915 294.884 19.7017C294.446 19.4119 294.169 18.9886 294.053 18.4318L295.007 18.1932C295.098 18.5455 295.27 18.8097 295.523 18.9858C295.778 19.1619 296.112 19.25 296.524 19.25C296.993 19.25 297.365 19.1506 297.641 18.9517C297.919 18.75 298.058 18.5085 298.058 18.2273C298.058 18 297.979 17.8097 297.82 17.6562C297.661 17.5 297.416 17.3835 297.087 17.3068L295.996 17.0511C295.396 16.9091 294.956 16.6889 294.675 16.3906C294.396 16.0895 294.257 15.7131 294.257 15.2614C294.257 14.892 294.361 14.5653 294.568 14.2812C294.778 13.9972 295.064 13.7741 295.425 13.6122C295.788 13.4503 296.2 13.3693 296.661 13.3693C297.308 13.3693 297.817 13.5114 298.186 13.7955C298.558 14.0795 298.822 14.4545 298.979 14.9205ZM303.987 22.4545V13.4545H304.958V14.4943H305.078C305.152 14.3807 305.254 14.2358 305.385 14.0597C305.518 13.8807 305.708 13.7216 305.956 13.5824C306.206 13.4403 306.544 13.3693 306.97 13.3693C307.521 13.3693 308.007 13.5071 308.427 13.7827C308.848 14.0582 309.176 14.4489 309.412 14.9545C309.647 15.4602 309.765 16.0568 309.765 16.7443C309.765 17.4375 309.647 18.0384 309.412 18.5469C309.176 19.0526 308.849 19.4446 308.431 19.723C308.014 19.9986 307.532 20.1364 306.987 20.1364C306.566 20.1364 306.23 20.0668 305.977 19.9276C305.724 19.7855 305.529 19.625 305.393 19.446C305.257 19.2642 305.152 19.1136 305.078 18.9943H304.993V22.4545H303.987ZM304.975 16.7273C304.975 17.2216 305.048 17.6577 305.193 18.0355C305.338 18.4105 305.549 18.7045 305.828 18.9176C306.106 19.1278 306.447 19.233 306.85 19.233C307.271 19.233 307.622 19.1222 307.903 18.9006C308.187 18.6761 308.4 18.375 308.542 17.9972C308.687 17.6165 308.76 17.1932 308.76 16.7273C308.76 16.267 308.689 15.8523 308.547 15.483C308.407 15.1108 308.196 14.8168 307.912 14.6009C307.63 14.3821 307.277 14.2727 306.85 14.2727C306.441 14.2727 306.098 14.3764 305.819 14.5838C305.541 14.7884 305.331 15.0753 305.189 15.4446C305.047 15.8111 304.975 16.2386 304.975 16.7273ZM313.958 20.1364C313.368 20.1364 312.849 19.9957 312.403 19.7145C311.96 19.4332 311.613 19.0398 311.363 18.5341C311.116 18.0284 310.993 17.4375 310.993 16.7614C310.993 16.0795 311.116 15.4844 311.363 14.9759C311.613 14.4673 311.96 14.0724 312.403 13.7912C312.849 13.5099 313.368 13.3693 313.958 13.3693C314.549 13.3693 315.066 13.5099 315.51 13.7912C315.956 14.0724 316.302 14.4673 316.549 14.9759C316.799 15.4844 316.924 16.0795 316.924 16.7614C316.924 17.4375 316.799 18.0284 316.549 18.5341C316.302 19.0398 315.956 19.4332 315.51 19.7145C315.066 19.9957 314.549 20.1364 313.958 20.1364ZM313.958 19.233C314.407 19.233 314.777 19.1179 315.066 18.8878C315.356 18.6577 315.571 18.3551 315.71 17.9801C315.849 17.6051 315.919 17.1989 315.919 16.7614C315.919 16.3239 315.849 15.9162 315.71 15.5384C315.571 15.1605 315.356 14.8551 315.066 14.6222C314.777 14.3892 314.407 14.2727 313.958 14.2727C313.51 14.2727 313.14 14.3892 312.85 14.6222C312.561 14.8551 312.346 15.1605 312.207 15.5384C312.068 15.9162 311.998 16.3239 311.998 16.7614C311.998 17.1989 312.068 17.6051 312.207 17.9801C312.346 18.3551 312.561 18.6577 312.85 18.8878C313.14 19.1179 313.51 19.233 313.958 19.233ZM318.46 20V13.4545H319.431V14.4432H319.499C319.619 14.1193 319.835 13.8565 320.147 13.6548C320.46 13.4531 320.812 13.3523 321.204 13.3523C321.278 13.3523 321.37 13.3537 321.481 13.3565C321.592 13.3594 321.675 13.3636 321.732 13.3693V14.392C321.698 14.3835 321.62 14.3707 321.498 14.3537C321.379 14.3338 321.252 14.3239 321.119 14.3239C320.8 14.3239 320.516 14.3906 320.266 14.5241C320.019 14.6548 319.823 14.8366 319.678 15.0696C319.536 15.2997 319.465 15.5625 319.465 15.858V20H318.46ZM328.225 20.1534C327.811 20.1534 327.434 20.0753 327.096 19.919C326.758 19.7599 326.49 19.5312 326.291 19.233C326.092 18.9318 325.993 18.5682 325.993 18.142C325.993 17.767 326.066 17.4631 326.214 17.2301C326.362 16.9943 326.559 16.8097 326.806 16.6761C327.054 16.5426 327.326 16.4432 327.625 16.3778C327.926 16.3097 328.228 16.2557 328.532 16.2159C328.93 16.1648 329.252 16.1264 329.5 16.1009C329.75 16.0724 329.931 16.0256 330.045 15.9602C330.162 15.8949 330.22 15.7812 330.22 15.6193V15.5852C330.22 15.1648 330.105 14.8381 329.875 14.6051C329.647 14.3722 329.302 14.2557 328.839 14.2557C328.359 14.2557 327.983 14.3608 327.71 14.571C327.437 14.7812 327.245 15.0057 327.135 15.2443L326.18 14.9034C326.35 14.5057 326.578 14.196 326.862 13.9744C327.149 13.75 327.461 13.5937 327.799 13.5057C328.14 13.4148 328.475 13.3693 328.805 13.3693C329.015 13.3693 329.257 13.3949 329.529 13.446C329.805 13.4943 330.071 13.5952 330.326 13.7486C330.585 13.902 330.799 14.1335 330.97 14.4432C331.14 14.7528 331.225 15.1676 331.225 15.6875V20H330.22V19.1136H330.169C330.1 19.2557 329.987 19.4077 329.828 19.5696C329.669 19.7315 329.457 19.8693 329.193 19.983C328.929 20.0966 328.606 20.1534 328.225 20.1534ZM328.379 19.25C328.777 19.25 329.112 19.1719 329.385 19.0156C329.66 18.8594 329.868 18.6577 330.007 18.4105C330.149 18.1634 330.22 17.9034 330.22 17.6307V16.7102C330.177 16.7614 330.083 16.8082 329.939 16.8509C329.797 16.8906 329.632 16.9261 329.444 16.9574C329.26 16.9858 329.079 17.0114 328.903 17.0341C328.73 17.054 328.589 17.071 328.481 17.0852C328.22 17.1193 327.975 17.1747 327.748 17.2514C327.524 17.3253 327.342 17.4375 327.203 17.5881C327.066 17.7358 326.998 17.9375 326.998 18.1932C326.998 18.5426 327.127 18.8068 327.386 18.9858C327.647 19.1619 327.978 19.25 328.379 19.25ZM337.527 22.4545V18.9943H337.442C337.368 19.1136 337.263 19.2642 337.126 19.446C336.99 19.625 336.795 19.7855 336.543 19.9276C336.29 20.0668 335.953 20.1364 335.533 20.1364C334.987 20.1364 334.506 19.9986 334.088 19.723C333.67 19.4446 333.344 19.0526 333.108 18.5469C332.872 18.0384 332.754 17.4375 332.754 16.7443C332.754 16.0568 332.872 15.4602 333.108 14.9545C333.344 14.4489 333.672 14.0582 334.092 13.7827C334.513 13.5071 334.999 13.3693 335.55 13.3693C335.976 13.3693 336.313 13.4403 336.56 13.5824C336.81 13.7216 337 13.8807 337.131 14.0597C337.264 14.2358 337.368 14.3807 337.442 14.4943H337.561V13.4545H338.533V22.4545H337.527ZM335.669 19.233C336.072 19.233 336.413 19.1278 336.692 18.9176C336.97 18.7045 337.182 18.4105 337.327 18.0355C337.472 17.6577 337.544 17.2216 337.544 16.7273C337.544 16.2386 337.473 15.8111 337.331 15.4446C337.189 15.0753 336.979 14.7884 336.7 14.5838C336.422 14.3764 336.078 14.2727 335.669 14.2727C335.243 14.2727 334.888 14.3821 334.604 14.6009C334.322 14.8168 334.111 15.1108 333.969 15.483C333.83 15.8523 333.76 16.267 333.76 16.7273C333.76 17.1932 333.831 17.6165 333.973 17.9972C334.118 18.375 334.331 18.6761 334.612 18.9006C334.896 19.1222 335.249 19.233 335.669 19.233ZM344.499 17.3239V13.4545H345.504V20H344.499V18.892H344.43C344.277 19.2244 344.038 19.5071 343.714 19.7401C343.391 19.9702 342.982 20.0852 342.487 20.0852C342.078 20.0852 341.714 19.9957 341.396 19.8168C341.078 19.6349 340.828 19.3622 340.646 18.9986C340.464 18.6321 340.374 18.1705 340.374 17.6136V13.4545H341.379V17.5455C341.379 18.0227 341.513 18.4034 341.78 18.6875C342.05 18.9716 342.393 19.1136 342.811 19.1136C343.061 19.1136 343.315 19.0497 343.574 18.9219C343.835 18.794 344.054 18.598 344.23 18.3338C344.409 18.0696 344.499 17.733 344.499 17.3239ZM347.346 20V13.4545H348.352V20H347.346ZM347.858 12.3636C347.662 12.3636 347.493 12.2969 347.35 12.1634C347.211 12.0298 347.142 11.8693 347.142 11.6818C347.142 11.4943 347.211 11.3338 347.35 11.2003C347.493 11.0668 347.662 11 347.858 11C348.054 11 348.221 11.0668 348.36 11.2003C348.502 11.3338 348.574 11.4943 348.574 11.6818C348.574 11.8693 348.502 12.0298 348.36 12.1634C348.221 12.2969 348.054 12.3636 347.858 12.3636ZM350.927 20.0682C350.717 20.0682 350.536 19.9929 350.386 19.8423C350.235 19.6918 350.16 19.5114 350.16 19.3011C350.16 19.0909 350.235 18.9105 350.386 18.7599C350.536 18.6094 350.717 18.5341 350.927 18.5341C351.137 18.5341 351.317 18.6094 351.468 18.7599C351.619 18.9105 351.694 19.0909 351.694 19.3011C351.694 19.4403 351.658 19.5682 351.587 19.6847C351.519 19.8011 351.427 19.8949 351.31 19.9659C351.197 20.0341 351.069 20.0682 350.927 20.0682ZM354.232 20.0682C354.021 20.0682 353.841 19.9929 353.69 19.8423C353.54 19.6918 353.464 19.5114 353.464 19.3011C353.464 19.0909 353.54 18.9105 353.69 18.7599C353.841 18.6094 354.021 18.5341 354.232 18.5341C354.442 18.5341 354.622 18.6094 354.773 18.7599C354.923 18.9105 354.999 19.0909 354.999 19.3011C354.999 19.4403 354.963 19.5682 354.892 19.6847C354.824 19.8011 354.732 19.8949 354.615 19.9659C354.501 20.0341 354.374 20.0682 354.232 20.0682ZM357.536 20.0682C357.326 20.0682 357.146 19.9929 356.995 19.8423C356.844 19.6918 356.769 19.5114 356.769 19.3011C356.769 19.0909 356.844 18.9105 356.995 18.7599C357.146 18.6094 357.326 18.5341 357.536 18.5341C357.746 18.5341 357.927 18.6094 358.077 18.7599C358.228 18.9105 358.303 19.0909 358.303 19.3011C358.303 19.4403 358.268 19.5682 358.197 19.6847C358.129 19.8011 358.036 19.8949 357.92 19.9659C357.806 20.0341 357.678 20.0682 357.536 20.0682Z" fill="white"/>
<path d="M510.355 21.992C510.159 21.9922 509.964 21.953 509.783 21.8765C509.602 21.8 509.437 21.6878 509.299 21.5464L501.653 13.7771C501.421 13.5419 501.147 13.3554 500.844 13.2281C500.542 13.1008 500.218 13.0353 499.891 13.0353C499.564 13.0353 499.24 13.1008 498.937 13.2281C498.635 13.3554 498.361 13.5419 498.129 13.7771L490.495 21.5363C490.357 21.6813 490.192 21.7971 490.01 21.8767C489.828 21.9563 489.631 21.9982 489.433 21.9999C489.234 22.0017 489.038 21.9633 488.854 21.8869C488.67 21.8105 488.503 21.6977 488.363 21.5551C488.223 21.4125 488.112 21.2429 488.037 21.0562C487.961 20.8695 487.924 20.6695 487.925 20.4678C487.927 20.2661 487.968 20.0667 488.047 19.8814C488.125 19.6961 488.239 19.5285 488.382 19.3884L496.016 11.6292C497.044 10.5859 498.438 10 499.891 10C501.344 10 502.738 10.5859 503.766 11.6292L511.412 19.3985C511.622 19.6109 511.764 19.8817 511.822 20.1764C511.879 20.4712 511.85 20.7767 511.737 21.0543C511.623 21.332 511.432 21.5693 511.186 21.7362C510.94 21.9031 510.651 21.9921 510.355 21.992Z" fill="#1E1E1E"/>
</svg>
