<svg width="59" height="58" viewBox="0 0 59 58" fill="none" xmlns="http://www.w3.org/2000/svg">
<path d="M48.4717 0H9.82636C7.26401 0 4.80662 1.01789 2.99477 2.82974C1.18292 4.64159 0.165031 7.09898 0.165031 9.66133L0.165031 38.6453C0.165031 41.2076 1.18292 43.665 2.99477 45.4769C4.80662 47.2887 7.26401 48.3066 9.82636 48.3066H16.8308L27.5815 57.3955C28.0176 57.7646 28.5704 57.9671 29.1418 57.9671C29.7131 57.9671 30.2659 57.7646 30.7021 57.3955L41.4672 48.3066H48.4717C51.034 48.3066 53.4914 47.2887 55.3032 45.4769C57.1151 43.665 58.133 41.2076 58.133 38.6453V9.66133C58.133 7.09898 57.1151 4.64159 55.3032 2.82974C53.4914 1.01789 51.034 0 48.4717 0V0ZM53.3023 38.6453C53.3023 39.9265 52.7934 41.1552 51.8875 42.0611C50.9815 42.967 49.7528 43.476 48.4717 43.476H41.4672C40.3255 43.4763 39.2207 43.8811 38.349 44.6184L29.149 52.3885L19.9538 44.6184C19.0809 43.88 17.9742 43.4752 16.8308 43.476H9.82636C8.54519 43.476 7.31649 42.967 6.41056 42.0611C5.50464 41.1552 4.99569 39.9265 4.99569 38.6453V9.66133C4.99569 8.38015 5.50464 7.15146 6.41056 6.24553C7.31649 5.33961 8.54519 4.83066 9.82636 4.83066H48.4717C49.7528 4.83066 50.9815 5.33961 51.8875 6.24553C52.7934 7.15146 53.3023 8.38015 53.3023 9.66133V38.6453Z" fill="#9479CF"/>
<path d="M17.0724 16.9072H29.149C29.7896 16.9072 30.4039 16.6527 30.8569 16.1998C31.3099 15.7468 31.5643 15.1325 31.5643 14.4919C31.5643 13.8513 31.3099 13.2369 30.8569 12.784C30.4039 12.331 29.7896 12.0765 29.149 12.0765H17.0724C16.4318 12.0765 15.8174 12.331 15.3645 12.784C14.9115 13.2369 14.657 13.8513 14.657 14.4919C14.657 15.1325 14.9115 15.7468 15.3645 16.1998C15.8174 16.6527 16.4318 16.9072 17.0724 16.9072Z" fill="#9479CF"/>
<path d="M41.2257 21.7379H17.0724C16.4318 21.7379 15.8174 21.9924 15.3645 22.4453C14.9115 22.8983 14.657 23.5127 14.657 24.1532C14.657 24.7938 14.9115 25.4082 15.3645 25.8611C15.8174 26.3141 16.4318 26.5686 17.0724 26.5686H41.2257C41.8663 26.5686 42.4806 26.3141 42.9336 25.8611C43.3865 25.4082 43.641 24.7938 43.641 24.1532C43.641 23.5127 43.3865 22.8983 42.9336 22.4453C42.4806 21.9924 41.8663 21.7379 41.2257 21.7379Z" fill="#9479CF"/>
<path d="M41.2257 31.3993H17.0724C16.4318 31.3993 15.8174 31.6538 15.3645 32.1067C14.9115 32.5597 14.657 33.174 14.657 33.8146C14.657 34.4552 14.9115 35.0696 15.3645 35.5225C15.8174 35.9755 16.4318 36.23 17.0724 36.23H41.2257C41.8663 36.23 42.4806 35.9755 42.9336 35.5225C43.3865 35.0696 43.641 34.4552 43.641 33.8146C43.641 33.174 43.3865 32.5597 42.9336 32.1067C42.4806 31.6538 41.8663 31.3993 41.2257 31.3993Z" fill="#9479CF"/>
</svg>
