<svg width="560" height="411" viewBox="0 0 560 411" fill="none" xmlns="http://www.w3.org/2000/svg">
<path d="M559.236 401.518H1" stroke="#263238" stroke-linecap="round" stroke-linejoin="round"/>
<g opacity="0.3">
<path d="M530.291 14.363H437.61V137.256H530.291V14.363Z" fill="white" stroke="black" stroke-linecap="round" stroke-linejoin="round"/>
<path d="M524.969 21.428H442.943V130.203H524.969V21.428Z" fill="white" stroke="black" stroke-linecap="round" stroke-linejoin="round"/>
<path d="M502.38 51.3611H465.51V100.258H502.38V51.3611Z" fill="white" stroke="black" stroke-linecap="round" stroke-linejoin="round"/>
</g>
<g opacity="0.3">
<path d="M64.2011 22.0671H25.4136V73.4973H64.2011V22.0671Z" fill="white" stroke="black" stroke-linecap="round" stroke-linejoin="round"/>
<path d="M61.9703 25.0186H27.6448V70.5341H61.9703V25.0186Z" fill="white" stroke="black" stroke-linecap="round" stroke-linejoin="round"/>
<path d="M52.5232 37.5564H37.0918V58.0192H52.5232V37.5564Z" fill="white" stroke="black" stroke-linecap="round" stroke-linejoin="round"/>
<path d="M122.464 82.0845H83.6763V133.515H122.464V82.0845Z" fill="white" stroke="black" stroke-linecap="round" stroke-linejoin="round"/>
<path d="M120.221 85.0474H85.8958V130.563H120.221V85.0474Z" fill="white" stroke="black" stroke-linecap="round" stroke-linejoin="round"/>
<path d="M110.774 97.5737H95.3428V118.037H110.774V97.5737Z" fill="white" stroke="black" stroke-linecap="round" stroke-linejoin="round"/>
<path d="M24.4143 88.4056L24.4143 127.193H75.8444V88.4056H24.4143Z" fill="white" stroke="black" stroke-linecap="round" stroke-linejoin="round"/>
<path d="M27.3774 90.6367L27.3774 124.962H72.893V90.6367H27.3774Z" fill="white" stroke="black" stroke-linecap="round" stroke-linejoin="round"/>
<path d="M39.9038 100.084V115.515H60.3666V100.084H39.9038Z" fill="white" stroke="black" stroke-linecap="round" stroke-linejoin="round"/>
<path d="M125.125 1H68.6633V75.8793H125.125V1Z" fill="white" stroke="black" stroke-linecap="round" stroke-linejoin="round"/>
<path d="M121.894 5.31104H71.9167V71.5799H121.894V5.31104Z" fill="white" stroke="black" stroke-linecap="round" stroke-linejoin="round"/>
<path d="M108.125 23.5427H85.6633V53.3364H108.125V23.5427Z" fill="white" stroke="black" stroke-linecap="round" stroke-linejoin="round"/>
</g>
<path d="M157.126 217.887H151.932V231.099H157.126V217.887Z" fill="#6E6E6E" stroke="#263238" stroke-linecap="round" stroke-linejoin="round"/>
<path d="M405.353 217.887H400.158V231.099H405.353V217.887Z" fill="#6E6E6E" stroke="#263238" stroke-linecap="round" stroke-linejoin="round"/>
<path d="M412.487 25.832H145.75V219.282H412.487V25.832Z" fill="#6E6E6E" stroke="#263238" stroke-linecap="round" stroke-linejoin="round"/>
<path d="M405.353 31.0146H152.885V214.111H405.353V31.0146Z" fill="#263238" stroke="#263238" stroke-linecap="round" stroke-linejoin="round"/>
<path d="M352.238 185.468L368.111 204.513L368.355 201.341L371.527 200.608L371.771 198.656L374.943 197.669L360.534 177.891L352.238 185.468Z" fill="#E0E0E0" stroke="#263238" stroke-linecap="round" stroke-linejoin="round"/>
<path d="M360.534 177.891L352.238 185.468L360.511 195.403L361.755 187.42C362.971 186.436 364.134 185.388 365.241 184.282L360.534 177.891Z" fill="#263238" stroke="#263238" stroke-linecap="round" stroke-linejoin="round"/>
<path d="M372.259 161.774L389.352 185.014L386.424 187.211C386.424 187.211 382.996 189.407 382.02 189.895C380.904 190.347 379.763 190.735 378.603 191.057L377.383 193.799H373.235L359.802 172.767C359.802 172.767 359.802 170.571 362.486 167.643C365.171 164.714 372.259 161.774 372.259 161.774Z" fill="#E0E0E0" stroke="#263238" stroke-linecap="round" stroke-linejoin="round"/>
<path d="M372.259 161.774C372.259 161.774 365.171 164.714 362.486 167.643C359.802 170.571 359.802 172.767 359.802 172.767L366.368 183.027C367.056 182.257 367.692 181.442 368.273 180.587C370.597 177.101 374.443 179.425 374.443 179.425L375.977 173.255C376.196 172.623 376.558 172.05 377.036 171.582C377.514 171.114 378.095 170.764 378.731 170.559L372.259 161.774Z" fill="#263238" stroke="#263238" stroke-linecap="round" stroke-linejoin="round"/>
<path d="M353.458 115.631C353.458 115.631 360.778 124.927 363.707 131.26C366.635 137.593 377.871 150.305 380.556 152.502C383.084 154.313 385.785 155.87 388.62 157.15C388.62 157.15 378.847 152.502 375.675 157.882C372.503 163.262 372.015 171.07 372.015 171.07C372.015 171.07 366.147 168.63 364.927 172.779C363.707 176.927 361.754 187.431 361.754 187.431C361.754 187.431 354.434 184.259 352.238 185.479C350.042 186.699 344.173 190.127 344.173 190.127L341.977 193.055C341.977 193.055 341.245 183.051 341.977 177.671C342.709 172.29 343.685 161.066 346.37 149.109C349.054 137.152 353.458 115.631 353.458 115.631Z" fill="#FFB907" stroke="#263238" stroke-linecap="round" stroke-linejoin="round"/>
<path d="M354.678 146.157L369.784 163.25C369.784 163.25 360.987 145.181 360.255 141.265C359.523 137.349 358.303 135.897 359.767 132.48C360.467 131.049 361.263 129.667 362.149 128.344C359.605 124.04 356.795 119.9 353.737 115.945L353.307 116.317C352.528 120.117 348.775 138.395 346.335 149.05C344.408 158.391 342.957 167.823 341.989 177.31C343.151 174.638 344.812 170.861 345.847 169.072C347.555 166.143 355.619 175.416 355.619 175.416C355.619 175.416 349.274 163.459 349.809 159.787C350.344 156.115 354.678 146.157 354.678 146.157Z" fill="#263238" stroke="#263238" stroke-linecap="round" stroke-linejoin="round"/>
<path d="M272.385 93.1699C272.385 93.1699 252.631 92.4379 242.359 88.0339C232.087 83.6299 210.613 69.9764 197.424 81.6894C184.236 93.4024 167.398 168.839 169.106 179.844C170.814 190.848 182.783 195.472 192.346 198.157C201.91 200.841 196.994 199.133 196.994 199.133L195.716 213.553H342.953L344.173 190.116C344.173 190.116 345.393 168.63 347.845 161.298C350.297 153.966 356.142 135.176 355.898 124.672C355.654 114.167 355.898 100.014 347.346 95.1337C338.793 90.2533 332.948 89.5213 325.128 90.2533C317.308 90.9854 291.674 90.0093 288.014 90.2533C284.353 90.4973 272.385 93.1699 272.385 93.1699Z" fill="#FFB907" stroke="#263238" stroke-linecap="round" stroke-linejoin="round"/>
<path d="M355.898 124.66C355.84 122.057 355.805 119.21 355.666 116.34L354.434 113.191C354.434 113.191 349.553 127.356 348.624 128.297C347.694 129.239 347.357 114.655 347.357 114.655L343.697 120.756C343.697 120.756 344.429 110.019 344.185 106.591C343.941 103.163 338.084 99.5146 337.108 99.0265C336.132 98.5385 297.449 93.2165 290.466 100.247C283.482 107.277 273.628 110.507 271.177 110.705C268.701 111.109 266.255 111.68 263.856 112.413C263.59 115.333 263.508 118.267 263.612 121.197C263.856 124.614 263.856 134.874 263.856 134.874C262.138 132.509 260.667 129.974 259.464 127.31C256.535 121.5 251.887 113.145 251.887 112.413C251.008 117.83 250.437 123.292 250.179 128.774C250.274 131.155 250.028 133.539 249.447 135.85C249.447 135.85 243.103 126.822 240.662 121.441C238.222 116.061 234.55 108.264 234.55 108.264L234.062 129.994L227.23 111.402C227.23 111.402 230.402 134.107 229.426 137.768C228.45 141.428 227.718 143.38 226.986 143.636C226.254 143.891 223.569 134.107 218.933 127.519C214.297 120.93 210.625 119.21 210.625 119.21C210.625 119.21 216.969 131.179 217.701 137.036C218.433 142.892 216.539 144.612 215.017 144.856C213.495 145.1 202.084 144.124 194.264 145.1C189.076 145.852 184.002 147.246 179.158 149.248C179.158 149.248 199.679 147.052 203.339 149.248L206.407 151.084C205.826 151.142 204.722 151.839 202.607 154.57C198.691 159.695 194.055 167.515 195.031 171.663C196.007 175.811 196.983 178.74 196.193 179.228C195.402 179.716 189.325 189.151 189.325 189.151L201.538 188.419L196.646 191.591L203.49 190.371C203.49 190.371 202.758 191.103 204.466 193.056C206.174 195.008 212.031 198.668 212.031 198.668L215.203 200.144L203.978 200.632C203.978 200.632 206.662 202.828 212.519 203.56C218.375 204.292 219.119 204.78 219.851 204.78C220.362 204.78 220.153 210.265 219.99 213.565H342.953L344.173 190.127C344.173 190.127 345.393 168.642 347.845 161.31C350.297 153.977 356.142 135.165 355.898 124.66Z" fill="#263238" stroke="#263238" stroke-linecap="round" stroke-linejoin="round"/>
<path d="M244.032 135.583L252.875 145.692C252.875 145.692 261.416 149.178 264.565 149.178C267.714 149.178 271.537 150.759 271.839 155.186C272.141 159.613 271.2 165.644 271.839 169.13C272.478 172.616 275.627 178.925 274.674 180.82C274.02 182.109 272.937 183.129 271.611 183.706C270.286 184.283 268.801 184.38 267.412 183.98C263.624 183.027 261.416 184.608 260.149 177.659C258.883 170.71 258.255 168.502 258.255 168.502C258.255 168.502 253.2 173.871 250.667 175.137C248.134 176.404 244.985 174.498 240.558 177.031C236.275 179.68 232.436 182.985 229.182 186.827C225.696 190.615 220.339 192.196 218.445 193.799C216.464 195.849 214.668 198.069 213.077 200.434C213.077 200.434 204.234 196.948 206.441 193.16C208.649 189.372 206.441 189.674 208.022 187.478C209.602 185.282 204.536 171.361 205.814 171.047C207.092 170.733 212.124 170.733 212.124 165.679C212.124 160.624 208.638 153.989 208.638 152.722C208.638 151.456 215.273 138.778 217.167 143.88C219.061 148.981 224.139 153.048 226.962 152.409C229.786 151.77 230.448 144.832 230.123 139.778C229.798 134.723 235.491 132.806 237.386 132.19C239.28 131.574 244.032 135.583 244.032 135.583Z" fill="#CFCFCF" stroke="#263238" stroke-linecap="round" stroke-linejoin="round"/>
<path d="M220.815 175.207C220.815 175.207 225.254 178.6 228.136 172.07C231.018 165.539 234.934 161.345 240.686 159.52C245.181 157.91 249.55 155.968 253.758 153.71C252.295 156.403 250.447 158.869 248.273 161.031C245.136 163.901 241.208 166.783 240.953 168.351C240.697 169.92 240.953 169.13 247.228 168.351L253.502 167.561C253.502 167.561 251.411 171.222 249.319 171.744C247.228 172.267 239.117 173.58 235.712 176.195C232.308 178.809 230.355 181.877 227.09 185.084C223.825 188.291 212.449 193.451 212.449 185.607C212.449 177.764 214.018 175.451 220.815 175.207Z" fill="#263238" stroke="#263238" stroke-linecap="round" stroke-linejoin="round"/>
<path d="M258.255 168.444C258.255 168.444 254.769 157.986 260.149 154.861" stroke="#263238" stroke-linecap="round" stroke-linejoin="round"/>
<path d="M272.466 172.546C272.466 172.546 269.945 172.546 270.258 174.44C270.572 176.334 272.153 181.075 272.153 181.075" stroke="#263238" stroke-linecap="round" stroke-linejoin="round"/>
<path d="M239.93 121.999C239.93 121.999 228.554 121.058 226.66 124.846C224.766 128.634 226.033 133.375 227.927 136.536C229.821 139.696 230.135 143.798 231.087 148.226C232.04 152.653 232.342 157.382 233.923 157.696C236.529 158.385 239.281 158.276 241.824 157.382C245.926 156.116 246.879 153.896 246.879 151.072C246.879 148.249 245.926 142.532 245.926 140.324C245.926 138.116 244.671 132.748 244.346 128.32C244.196 126.982 243.714 125.702 242.943 124.598C242.171 123.494 241.136 122.6 239.93 121.999Z" fill="#CFCFCF" stroke="#263238" stroke-linecap="round" stroke-linejoin="round"/>
<path d="M244.346 144.437C242.295 143.407 239.933 143.179 237.723 143.798C233.609 144.751 233.609 146.959 233.609 150.12V153.28" stroke="#263238" stroke-linecap="round" stroke-linejoin="round"/>
<path d="M241.824 157.382L240.558 152.014" stroke="#263238" stroke-linecap="round" stroke-linejoin="round"/>
<path d="M236.77 156.755L236.456 154.547" stroke="#263238" stroke-linecap="round" stroke-linejoin="round"/>
<path d="M219.084 148.853C219.084 148.853 219.398 148.225 217.178 143.798C216.696 142.754 215.952 141.853 215.02 141.181C214.087 140.508 212.996 140.088 211.853 139.961C210.711 139.833 209.554 140.003 208.496 140.454C207.438 140.904 206.514 141.62 205.814 142.532C202.328 146.645 201.701 147.912 203.92 150.747C206.139 153.582 209.916 155.802 210.543 158.021C211.171 160.241 214.029 166.225 217.178 168.131C220.327 170.036 222.872 169.711 225.08 166.864C227.288 164.017 226.347 161.17 225.08 156.406C223.813 151.642 219.084 148.853 219.084 148.853Z" fill="#CFCFCF" stroke="#263238" stroke-linecap="round" stroke-linejoin="round"/>
<path d="M217.818 165.597C217.818 165.597 215.284 162.437 215.923 160.543C216.563 158.649 220.653 156.115 222.233 157.382" stroke="#263238" stroke-linecap="round" stroke-linejoin="round"/>
<path d="M203.269 169.072C203.269 169.072 197.273 167.492 196.297 174.754C195.321 182.017 197.25 184.863 199.458 185.816C201.666 186.769 206.093 185.816 207.987 187.397C209.881 188.977 213.042 190.243 218.445 191.185C223.848 192.126 223.5 188.977 224.766 184.213C226.033 179.448 222.233 179.158 220.339 178.217C218.459 177.514 216.74 176.439 215.284 175.056C213.39 173.185 207.394 168.758 203.269 169.072Z" fill="#CFCFCF" stroke="#263238" stroke-linecap="round" stroke-linejoin="round"/>
<path d="M215.923 187.71C215.223 186.233 215.03 184.566 215.372 182.968C215.714 181.369 216.574 179.928 217.818 178.867" stroke="#263238" stroke-linecap="round" stroke-linejoin="round"/>
<path d="M223.814 188.349L219.398 188.663" stroke="#263238" stroke-linecap="round" stroke-linejoin="round"/>
<path d="M203.595 189.604C203.595 189.604 199.807 190.243 200.446 194.659C201.085 199.075 203.932 201.294 205.175 203.188C206.418 205.082 212.147 209.509 214.657 210.16C217.167 210.811 219.712 209.846 219.398 205.431C219.084 201.015 215.912 198.796 214.971 196.902C214.029 195.008 212.449 193.741 211.183 191.847C209.916 189.953 207.394 187.083 203.595 189.604Z" fill="#CFCFCF" stroke="#263238" stroke-linecap="round" stroke-linejoin="round"/>
<path d="M217.818 202.247C217.356 201.443 216.637 200.819 215.776 200.475C214.916 200.132 213.965 200.089 213.077 200.353C209.916 201.294 208.022 203.502 208.975 205.408C209.928 207.313 214.657 210.137 214.657 210.137" stroke="#263238" stroke-linecap="round" stroke-linejoin="round"/>
<path d="M215.738 86.5698C218.873 88.7122 221.518 91.4961 223.497 94.7372C225.476 97.9784 226.745 101.603 227.218 105.371C227.218 105.371 227.95 88.0572 215.738 86.5698Z" fill="#263238" stroke="#263238" stroke-linecap="round" stroke-linejoin="round"/>
<path d="M215.981 96.8303C215.981 96.8303 220.629 101.711 221.85 104.151C223.07 106.591 221.606 98.0504 215.981 96.8303Z" fill="#263238" stroke="#263238" stroke-linecap="round" stroke-linejoin="round"/>
<path d="M269.015 97.8412C269.015 97.8412 268.388 90.8692 263.984 95.6334C259.58 100.398 260.846 109.787 261.788 114.504C262.729 119.222 267.446 123.614 267.446 123.614C267.446 123.614 268.701 133.05 269.643 137.756C270.584 142.462 277.416 156.267 279.613 160.043C281.809 163.82 289.199 172.964 294.498 173.894C301.54 175.137 308.314 171.396 310.51 168.886C312.706 166.376 318.644 157.266 323.397 151.909C328.149 146.552 332.832 134.932 332.832 134.932C332.832 134.932 341.315 117.955 340.966 113.551C340.945 112.367 340.684 111.199 340.198 110.119C339.713 109.038 339.014 108.068 338.143 107.265C338.143 107.265 342.233 93.4372 342.233 83.3743C342.233 73.3113 333.111 60.4248 324.942 56.6483C316.773 52.8718 299.157 49.409 288.153 56.962C277.149 64.515 272.129 74.88 271.176 80.202C270.224 85.524 269.015 97.8412 269.015 97.8412Z" fill="#CFCFCF" stroke="#263238" stroke-linecap="round" stroke-linejoin="round"/>
<path d="M337.864 110.135C338.205 112.769 337.991 115.444 337.236 117.99C335.97 122.394 332.832 124.277 332.832 129.61C332.832 134.944 329.346 142.497 329.346 142.497" stroke="#263238" stroke-linecap="round" stroke-linejoin="round"/>
<path d="M312.706 115.759L331.891 115.132C332.292 116.966 332.179 118.875 331.564 120.648C330.949 122.422 329.856 123.991 328.405 125.183C323.397 129.273 312.079 124.556 312.706 115.759Z" fill="#263238" stroke="#263238" stroke-linecap="round" stroke-linejoin="round"/>
<path d="M305.351 114.899L283.447 107.265C283.447 107.265 281.402 117.409 287.747 121.209C297.054 126.868 304.724 116.468 305.351 114.899Z" fill="#263238" stroke="#263238" stroke-linecap="round" stroke-linejoin="round"/>
<path d="M304.363 127.112C304.363 127.112 297.775 133.457 300.459 134.433C301.33 134.681 302.247 134.722 303.137 134.552C304.027 134.383 304.864 134.007 305.583 133.457C305.583 133.457 308.267 138.337 310.464 136.873C312.66 135.409 311.451 128.82 309.976 126.868C309.643 126.426 309.208 126.071 308.708 125.834C308.208 125.598 307.658 125.487 307.105 125.511C306.552 125.535 306.014 125.693 305.536 125.972C305.058 126.251 304.656 126.642 304.363 127.112Z" fill="#263238" stroke="#263238" stroke-linecap="round" stroke-linejoin="round"/>
<path d="M312.927 157.382C311.557 159.628 309.718 161.55 307.535 163.018C306.162 164.017 304.713 164.906 303.201 165.679C300.273 167.155 291.965 163.494 290.256 161.774C289.108 160.178 288.28 158.375 287.816 156.464C286.887 153.396 286.306 149.783 286.84 147.61C287.229 146.412 287.851 145.304 288.67 144.348C289.49 143.393 290.491 142.609 291.616 142.044C293.564 140.902 295.871 140.537 298.077 141.021L310.01 144.007C310.849 144.22 311.607 144.674 312.191 145.312C312.775 145.95 313.16 146.744 313.299 147.598C313.299 147.807 313.369 148.04 313.404 148.284C313.787 151.212 314.077 155.232 312.927 157.382Z" fill="#263238" stroke="#263238" stroke-linecap="round" stroke-linejoin="round"/>
<path d="M303.201 165.679C304.729 164.908 306.194 164.019 307.582 163.018C309.249 161.85 310.74 160.449 312.009 158.858C311.951 155.976 310.615 155.221 309.058 157.87C307.35 160.798 305.641 161.286 302.957 161.286C300.273 161.286 294.416 160.066 292.708 157.382C291 154.698 292.22 152.258 290.012 151.038C287.805 149.818 287.572 152.99 287.572 152.99C287.572 152.99 287.468 153.629 287.317 154.605C287.468 155.232 287.63 155.86 287.816 156.464C288.28 158.375 289.109 160.178 290.257 161.775C291.918 163.494 300.226 167.155 303.201 165.679Z" fill="white" stroke="#263238" stroke-linecap="round" stroke-linejoin="round"/>
<path d="M313.52 149.515C313.462 149.085 313.415 148.679 313.357 148.284C313.299 147.889 313.287 147.807 313.252 147.598C313.114 146.744 312.729 145.95 312.144 145.312C311.56 144.674 310.802 144.22 309.964 144.007L298.03 141.021C295.825 140.537 293.518 140.902 291.57 142.044C290.925 142.392 290.318 142.805 289.757 143.275C290.919 144.356 294.219 146.854 300.959 148.353C305.073 149.314 309.299 149.705 313.52 149.515Z" fill="white" stroke="#263238" stroke-linecap="round" stroke-linejoin="round"/>
<path d="M301.447 121.755C301.447 121.755 299.006 124.683 292.662 126.647C286.317 128.611 281.913 126.159 281.181 123.219" stroke="#263238" stroke-linecap="round" stroke-linejoin="round"/>
<path d="M313.659 124.172C313.659 124.172 315.983 130.482 324.396 129.982" stroke="#263238" stroke-linecap="round" stroke-linejoin="round"/>
<path d="M307.849 113.679C308.581 113.435 308.581 113.191 308.581 110.507C308.581 107.823 304.189 105.371 302.237 103.907" stroke="#263238" stroke-linecap="round" stroke-linejoin="round"/>
<path d="M310.475 113.191C310.598 111.998 311.118 110.881 311.951 110.019C313.415 108.311 322.688 106.533 323.42 106.533" stroke="#263238" stroke-linecap="round" stroke-linejoin="round"/>
<path d="M297.298 129.308C295.026 130.767 292.658 132.071 290.21 133.212C286.062 135.165 281.425 134.374 281.425 143.461" stroke="#263238" stroke-linecap="round" stroke-linejoin="round"/>
<path d="M313.659 133.457C314.65 135.974 315.962 138.352 317.563 140.533C319.76 143.217 319.028 147.621 317.563 152.502" stroke="#263238" stroke-linecap="round" stroke-linejoin="round"/>
<path d="M331.24 132.213C331.24 132.213 330.508 134.165 326.592 134.897C322.676 135.629 319.028 135.385 319.272 139.046" stroke="#263238" stroke-linecap="round" stroke-linejoin="round"/>
<path d="M275.569 120.756C275.569 120.756 276.057 125.404 279.229 127.356C282.401 129.308 284.842 130.04 283.377 132.48" stroke="#263238" stroke-linecap="round" stroke-linejoin="round"/>
<path d="M278.009 104.395C277.582 103.742 277.354 102.979 277.354 102.199C277.354 101.419 277.582 100.655 278.009 100.003C279.473 97.5623 280.693 93.17 280.205 86.5698" stroke="#263238" stroke-linecap="round" stroke-linejoin="round"/>
<path d="M267.435 118.606C267.435 118.606 270.375 111.762 268.899 107.614C267.423 103.465 264.402 96.8999 264.402 96.8999C264.402 96.8999 262.81 101.699 263.856 104.011C264.902 106.324 266.017 108.857 266.017 108.857C266.017 108.857 262.008 109.484 263.066 112.436C264.123 115.387 264.332 112.227 265.39 112.018C266.447 111.808 267.435 118.606 267.435 118.606Z" fill="#263238" stroke="#263238" stroke-linecap="round" stroke-linejoin="round"/>
<path d="M281.425 67.2805C281.425 67.2805 286.794 72.9046 298.762 75.3448" stroke="#263238" stroke-linecap="round" stroke-linejoin="round"/>
<path d="M314.879 76.5649C322.5 78.4029 330.428 78.5694 338.119 77.053" stroke="#263238" stroke-linecap="round" stroke-linejoin="round"/>
<path d="M286.55 66.7925L282.646 72.6606" stroke="#263238" stroke-linecap="round" stroke-linejoin="round"/>
<path d="M294.858 69.9763L292.418 76.0768" stroke="#263238" stroke-linecap="round" stroke-linejoin="round"/>
<path d="M317.564 73.3926L316.832 80.2251" stroke="#263238" stroke-linecap="round" stroke-linejoin="round"/>
<path d="M328.788 73.8809L328.544 83.6417" stroke="#263238" stroke-linecap="round" stroke-linejoin="round"/>
<path d="M294.126 92.7051C294.126 92.7051 300.471 95.6333 305.107 97.5855C309.743 99.5376 318.54 99.0496 323.908 98.5616" stroke="#263238" stroke-linecap="round" stroke-linejoin="round"/>
<path d="M327.324 93.4141C327.324 93.4141 315.123 93.6581 312.218 93.4141" stroke="#263238" stroke-linecap="round" stroke-linejoin="round"/>
<path d="M293.638 85.5938L304.131 89.5097" stroke="#263238" stroke-linecap="round" stroke-linejoin="round"/>
<path d="M296.81 115.748C296.813 116.304 296.65 116.849 296.342 117.313C296.034 117.777 295.596 118.139 295.082 118.354C294.569 118.569 294.003 118.626 293.457 118.519C292.911 118.412 292.408 118.145 292.014 117.752C291.62 117.359 291.351 116.858 291.241 116.312C291.132 115.766 291.187 115.2 291.399 114.686C291.612 114.171 291.972 113.732 292.435 113.422C292.898 113.112 293.442 112.947 293.998 112.947C294.742 112.947 295.456 113.242 295.983 113.767C296.51 114.292 296.807 115.004 296.81 115.748Z" fill="#FFB907" stroke="#263238" stroke-linecap="round" stroke-linejoin="round"/>
<path d="M321.712 122.348C323.265 122.348 324.524 121.089 324.524 119.536C324.524 117.983 323.265 116.724 321.712 116.724C320.159 116.724 318.9 117.983 318.9 119.536C318.9 121.089 320.159 122.348 321.712 122.348Z" fill="#FFB907" stroke="#263238" stroke-linecap="round" stroke-linejoin="round"/>
<path d="M287.27 164.18C287.27 164.18 289.954 167.898 296.369 168.723C300.107 169.243 303.914 168.962 307.536 167.898C307.536 167.898 302.155 172.627 296.369 171.709C290.582 170.791 287.27 164.18 287.27 164.18Z" fill="#263238" stroke="#263238" stroke-linecap="round" stroke-linejoin="round"/>
<path d="M292.743 140.823C292.278 140.434 291.915 139.938 291.684 139.378C291.453 138.817 291.362 138.208 291.419 137.605" stroke="#263238" stroke-linecap="round" stroke-linejoin="round"/>
<path d="M303.771 142.16L303.956 139.313" stroke="#263238" stroke-linecap="round" stroke-linejoin="round"/>
<path d="M312.869 145.193C313.601 144.666 314.241 144.022 314.763 143.287" stroke="#263238" stroke-linecap="round" stroke-linejoin="round"/>
<path d="M287.77 156.464C287.77 156.464 285.574 158.079 285.574 159.218" stroke="#263238" stroke-linecap="round" stroke-linejoin="round"/>
<path d="M293.347 163.947L292.778 165.841" stroke="#263238" stroke-linecap="round" stroke-linejoin="round"/>
<path d="M307.535 163.018L307.373 166.411" stroke="#263238" stroke-linecap="round" stroke-linejoin="round"/>
<path d="M236.584 43.7037H165.167C164.551 43.7037 163.96 43.4588 163.524 43.023C163.088 42.5871 162.843 41.996 162.843 41.3797C162.843 40.7633 163.088 40.1722 163.524 39.7363C163.96 39.3005 164.551 39.0557 165.167 39.0557H236.584C237.2 39.0557 237.791 39.3005 238.227 39.7363C238.663 40.1722 238.908 40.7633 238.908 41.3797C238.908 41.6849 238.848 41.9871 238.731 42.269C238.614 42.551 238.443 42.8072 238.227 43.023C238.011 43.2388 237.755 43.41 237.473 43.5268C237.191 43.6435 236.889 43.7037 236.584 43.7037Z" fill="#6E6E6E" stroke="#263238" stroke-linecap="round" stroke-linejoin="round"/>
<path d="M188.012 38.9744H165.167C164.54 38.9744 163.939 39.2235 163.495 39.667C163.052 40.1104 162.802 40.7119 162.802 41.339C162.802 41.9662 163.052 42.5676 163.495 43.0111C163.939 43.4546 164.54 43.7037 165.167 43.7037H188.012V38.9744Z" fill="#FFB907" stroke="#263238" stroke-linecap="round" stroke-linejoin="round"/>
<path d="M508.445 241.964H51.605V423.666H508.445V241.964Z" fill="#CFCFCF" stroke="#263238" stroke-linecap="round" stroke-linejoin="round"/>
<path d="M508.445 241.964H51.605V249.308H508.445V241.964Z" fill="#263238" stroke="#263238" stroke-linecap="round" stroke-linejoin="round"/>
<path d="M349.844 256.896H210.195V413.069H349.844V256.896Z" fill="#CFCFCF" stroke="#263238" stroke-linecap="round" stroke-linejoin="round"/>
<path d="M344.046 263.38H215.993V406.573H344.046V263.38Z" fill="#CFCFCF" stroke="#263238" stroke-linecap="round" stroke-linejoin="round"/>
<path d="M280.019 263.542V407.014" stroke="#263238" stroke-linecap="round" stroke-linejoin="round"/>
<path d="M201.468 353.109H58.8442V412.813H201.468V353.109Z" fill="#A1A1A1" stroke="#263238" stroke-linecap="round" stroke-linejoin="round"/>
<path d="M201.468 253.526H58.8442V313.229H201.468V253.526Z" fill="#A1A1A1" stroke="#263238" stroke-linecap="round" stroke-linejoin="round"/>
<path d="M502.647 253.526H360.023V329.544H502.647V253.526Z" fill="#A1A1A1" stroke="#263238" stroke-linecap="round" stroke-linejoin="round"/>
<path d="M502.647 336.783H360.023V412.801H502.647V336.783Z" fill="#CFCFCF" stroke="#263238" stroke-linecap="round" stroke-linejoin="round"/>
<path d="M451.995 370.458H410.675V379.138H451.995V370.458Z" fill="#263238" stroke="#263238" stroke-linecap="round" stroke-linejoin="round"/>
<path d="M149.736 328.823H108.415V337.504H149.736V328.823Z" fill="#263238" stroke="#263238" stroke-linecap="round" stroke-linejoin="round"/>
<path d="M516.998 231.808H43.0527V243.8H516.998V231.808Z" fill="#CFCFCF" stroke="#263238" stroke-linecap="round" stroke-linejoin="round"/>
<path d="M487.204 306.304H371.689V329.556H487.204V306.304Z" fill="#263238" stroke="#263238" stroke-linecap="round" stroke-linejoin="round"/>
<path d="M481.766 321.747C481.766 320.91 457.933 320.236 428.546 320.236C399.159 320.236 375.327 320.91 375.327 321.747C375.327 322.584 399.159 323.269 428.546 323.269C457.933 323.269 481.766 322.584 481.766 321.747Z" fill="#CFCFCF" stroke="#263238" stroke-linecap="round" stroke-linejoin="round"/>
<path d="M72.1143 257.488H60.4014V312.846H72.1143V257.488Z" fill="#CFCFCF" stroke="#263238" stroke-linecap="round" stroke-linejoin="round"/>
<path d="M85.6517 257.488H73.9387V312.846H85.6517V257.488Z" fill="#CFCFCF" stroke="#263238" stroke-linecap="round" stroke-linejoin="round"/>
<path d="M200.457 257.488H188.744V312.846H200.457V257.488Z" fill="#CFCFCF" stroke="#263238" stroke-linecap="round" stroke-linejoin="round"/>
<path d="M188.094 257.488H176.381V312.846H188.094V257.488Z" fill="#CFCFCF" stroke="#263238" stroke-linecap="round" stroke-linejoin="round"/>
<path d="M175.73 257.488H164.017V312.846H175.73V257.488Z" fill="#CFCFCF" stroke="#263238" stroke-linecap="round" stroke-linejoin="round"/>
<path d="M163.366 257.488H151.653V312.846H163.366V257.488Z" fill="#CFCFCF" stroke="#263238" stroke-linecap="round" stroke-linejoin="round"/>
<path d="M151.003 257.488H139.29V312.846H151.003V257.488Z" fill="#CFCFCF" stroke="#263238" stroke-linecap="round" stroke-linejoin="round"/>
<path d="M97.953 256.953L86.6865 260.156L101.824 313.403L113.091 310.2L97.953 256.953Z" fill="#CFCFCF" stroke="#263238" stroke-linecap="round" stroke-linejoin="round"/>
<path d="M151.142 468.949C151.142 468.949 177.043 429.244 181.784 413.289C186.525 397.335 182.795 374.641 181.354 360.267C179.913 345.893 187.001 309.546 187.001 309.546C187.001 309.546 180.541 284.4 184.131 282.239C187.722 280.078 200.399 279.229 205.535 277.498C210.671 275.767 213.727 276.208 218.317 278.509C220.661 279.604 222.878 280.952 224.929 282.529L221.768 287.41L209.695 290.001L217.457 330.52C217.457 330.52 241.023 336.562 242.173 338.573C243.324 340.583 242.313 349.031 239.849 356.096C237.386 363.161 238.559 368.029 234.248 369.459C229.937 370.888 227.346 371.783 226.916 370.47C226.486 369.157 221.025 391.595 217.144 398.637C214.471 403.795 212.263 409.181 210.544 414.73C210.544 414.73 203.885 480.581 204.885 482.126" fill="white"/>
<path d="M151.142 468.949C151.142 468.949 177.043 429.244 181.784 413.289C186.525 397.335 182.795 374.641 181.354 360.267C179.913 345.893 187.001 309.546 187.001 309.546C187.001 309.546 180.541 284.4 184.131 282.239C187.722 280.078 200.399 279.229 205.535 277.498C210.671 275.767 213.727 276.208 218.317 278.509C220.661 279.604 222.878 280.952 224.929 282.529L221.768 287.41L209.695 290.001L217.457 330.52C217.457 330.52 241.023 336.562 242.173 338.573C243.324 340.583 242.313 349.031 239.849 356.096C237.386 363.161 238.559 368.029 234.248 369.459C229.937 370.888 227.346 371.783 226.916 370.47C226.486 369.157 221.025 391.595 217.144 398.637C214.471 403.795 212.263 409.181 210.544 414.73C210.544 414.73 203.885 480.581 204.885 482.126" stroke="#263238" stroke-linecap="round" stroke-linejoin="round"/>
<path d="M209.265 296.38C209.265 296.38 198.807 293.069 197.297 291.616C197.43 294.33 198.306 296.955 199.83 299.204C202.363 302.899 201.968 310.487 201.968 310.487L216.958 338.898L226.068 372.305C226.521 370.934 226.823 370.202 226.904 370.47C227.334 371.759 229.926 370.899 234.237 369.459C238.548 368.018 237.397 363.137 239.837 356.096C241.04 352.576 241.885 348.943 242.359 345.254V339.142C242.302 338.946 242.228 338.756 242.138 338.573C240.976 336.562 217.422 330.52 217.422 330.52L211.403 298.902L209.265 296.38Z" fill="#263238" stroke="#263238" stroke-linecap="round" stroke-linejoin="round"/>
<path d="M225.533 353.865L229.949 344.697" stroke="#263238" stroke-linecap="round" stroke-linejoin="round"/>
<path d="M193.404 289.165C196.564 291.807 200.157 293.883 204.025 295.3" stroke="#263238" stroke-linecap="round" stroke-linejoin="round"/>
<path d="M438.563 434.17C438.563 434.17 391.607 392.338 390.723 390.654C389.84 388.969 368.855 335.912 365.217 326.953C361.58 317.994 355.364 316.111 352.435 312.184C349.507 308.256 343.139 291.268 341.501 283.331C339.863 275.395 341.606 268.853 326.395 268.655C311.184 268.458 318.517 266.691 313.195 267.493C307.873 268.295 305.711 273.605 305.711 273.605L320.666 271.746L323.537 272.908C326.407 274.07 326.593 278.137 326.593 278.137C326.593 278.137 329.254 305.804 329.742 311.219C330.23 316.634 333.414 339.967 333.414 339.967C333.414 339.967 314.485 333.355 312.904 332.565C311.324 331.775 306.014 338.468 304.34 344.278C302.667 350.088 307.094 353.574 311.231 359.047C315.368 364.52 322.653 364.764 322.653 364.764L354.33 398.532L392.141 470.355" fill="white"/>
<path d="M438.563 434.17C438.563 434.17 391.607 392.338 390.723 390.654C389.84 388.969 368.855 335.912 365.217 326.953C361.58 317.994 355.364 316.111 352.435 312.184C349.507 308.256 343.139 291.268 341.501 283.331C339.863 275.395 341.606 268.853 326.395 268.655C311.184 268.458 318.517 266.691 313.195 267.493C307.873 268.295 305.711 273.605 305.711 273.605L320.666 271.746L323.537 272.908C326.407 274.07 326.593 278.137 326.593 278.137C326.593 278.137 329.254 305.804 329.742 311.219C330.23 316.634 333.414 339.967 333.414 339.967C333.414 339.967 314.485 333.355 312.904 332.565C311.324 331.775 306.014 338.468 304.34 344.278C302.667 350.088 307.094 353.574 311.231 359.047C315.368 364.52 322.653 364.764 322.653 364.764L354.33 398.532L392.141 470.355" stroke="#263238" stroke-linecap="round" stroke-linejoin="round"/>
<path d="M332.949 316.123C331.226 312.054 329.918 307.823 329.044 303.492C329.37 306.978 329.637 309.813 329.765 311.196C330.218 316.123 332.89 335.923 333.367 339.433C334.366 338.817 335.191 338.41 335.191 338.41C336.254 335.987 336.815 333.375 336.841 330.729C336.899 326.151 335.97 322.258 332.949 316.123Z" fill="#263238" stroke="#263238" stroke-linecap="round" stroke-linejoin="round"/>
<path d="M332.17 360.499C332.565 358.745 329.928 345.033 329.637 343.174C329.474 342.14 331.252 340.769 332.833 339.758C329.614 338.596 314.333 333.262 312.927 332.565C311.521 331.868 306.037 338.468 304.364 344.278C302.69 350.088 307.117 353.574 311.254 359.047C315.391 364.52 322.677 364.764 322.677 364.764L324.094 366.275C328.301 363.695 332.007 361.243 332.17 360.499Z" fill="#263238" stroke="#263238" stroke-linecap="round" stroke-linejoin="round"/>
<path d="M326.116 276.046L332.251 330.416C332.395 331.707 332.02 333.002 331.21 334.017C330.4 335.032 329.219 335.685 327.929 335.83L215.447 348.485C214.155 348.628 212.858 348.254 211.841 347.444C210.824 346.634 210.169 345.454 210.021 344.162L203.908 289.792C203.836 289.151 203.89 288.502 204.069 287.882C204.247 287.262 204.547 286.683 204.949 286.179C205.352 285.675 205.85 285.255 206.415 284.944C206.98 284.633 207.601 284.436 208.243 284.365L320.713 271.723C322.002 271.583 323.294 271.959 324.307 272.769C325.319 273.579 325.97 274.757 326.116 276.046Z" fill="#FFB907" stroke="#263238" stroke-linecap="round" stroke-linejoin="round"/>
<path d="M234.879 294.863L222.189 296.291L223.676 309.512L236.367 308.084L234.879 294.863Z" fill="#263238" stroke="#263238" stroke-linecap="round" stroke-linejoin="round"/>
<path d="M237.792 320.763L225.101 322.191L226.589 335.412L239.279 333.984L237.792 320.763Z" fill="#263238" stroke="#263238" stroke-linecap="round" stroke-linejoin="round"/>
<path d="M223.68 309.516L210.459 311.004L211.887 323.694L225.108 322.207L223.68 309.516Z" fill="#263238" stroke="#263238" stroke-linecap="round" stroke-linejoin="round"/>
<path d="M249.581 306.592L236.36 308.08L237.788 320.77L251.009 319.282L249.581 306.592Z" fill="#263238" stroke="#263238" stroke-linecap="round" stroke-linejoin="round"/>
<path d="M300.32 319.795C300.127 318.082 299.431 316.464 298.319 315.147C297.207 313.829 295.729 312.871 294.073 312.394C292.416 311.916 290.655 311.941 289.013 312.464C287.37 312.988 285.92 313.987 284.845 315.335C283.77 316.683 283.119 318.319 282.975 320.037C282.83 321.755 283.198 323.477 284.033 324.986C284.867 326.494 286.13 327.721 287.662 328.512C289.194 329.303 290.926 329.622 292.639 329.428C294.934 329.168 297.033 328.008 298.473 326.201C299.913 324.395 300.578 322.091 300.32 319.795Z" fill="#263238" stroke="#263238" stroke-linecap="round" stroke-linejoin="round"/>
<path d="M322.735 284.993C322.54 283.281 321.843 281.665 320.73 280.349C319.618 279.034 318.14 278.077 316.485 277.601C314.829 277.125 313.069 277.15 311.427 277.673C309.786 278.197 308.336 279.195 307.262 280.542C306.188 281.889 305.537 283.524 305.391 285.241C305.246 286.958 305.613 288.679 306.445 290.188C307.278 291.696 308.539 292.924 310.069 293.716C311.599 294.508 313.33 294.829 315.042 294.637C317.341 294.378 319.442 293.216 320.885 291.407C322.327 289.599 322.993 287.292 322.735 284.993Z" fill="#263238" stroke="#263238" stroke-linecap="round" stroke-linejoin="round"/>
<path d="M311.51 302.237C311.315 300.525 310.618 298.909 309.505 297.593C308.393 296.278 306.915 295.321 305.259 294.845C303.604 294.369 301.844 294.394 300.202 294.917C298.561 295.441 297.111 296.439 296.037 297.786C294.963 299.133 294.312 300.768 294.166 302.485C294.021 304.202 294.388 305.923 295.22 307.432C296.053 308.94 297.314 310.168 298.844 310.96C300.374 311.752 302.105 312.073 303.817 311.882C304.956 311.754 306.059 311.404 307.062 310.85C308.065 310.297 308.949 309.55 309.664 308.655C310.378 307.759 310.909 306.731 311.226 305.63C311.542 304.528 311.639 303.376 311.51 302.237Z" fill="#263238" stroke="#263238" stroke-linecap="round" stroke-linejoin="round"/>
<path d="M274.413 309.213L261.722 310.641L262.349 316.207L275.039 314.779L274.413 309.213Z" fill="#263238" stroke="#263238" stroke-linecap="round" stroke-linejoin="round"/>
<path d="M236.712 281.158C241.685 287.758 253.096 291.616 265.762 290.141C278.427 288.665 288.758 282.46 292.151 274.93L236.712 281.158ZM270.503 331.914C258.883 333.216 249.401 338.503 245.229 345.126L298.112 339.189C292.557 333.646 282.076 330.613 270.503 331.914Z" fill="white" stroke="#263238" stroke-linecap="round" stroke-linejoin="round"/>
<path d="M205.744 349.252C205.744 349.252 202.584 329.858 200.864 324.71C199.144 319.562 196.646 315.344 197.564 312.834C198.482 310.325 213.263 305.862 213.263 305.862C213.263 305.862 226.254 295.404 227.973 297.217C229.693 299.03 230.937 304.805 230.878 307.245C230.82 309.685 228.043 313.241 225.068 314.891C221.758 317.043 218.566 319.37 215.505 321.863C215.505 321.863 218.991 338.945 223.418 349.565C227.846 360.186 229.554 380.498 228.241 387.76C226.928 395.023 205.744 415.265 205.744 415.265" fill="white"/>
<path d="M205.744 349.252C205.744 349.252 202.584 329.858 200.864 324.71C199.144 319.562 196.646 315.344 197.564 312.834C198.482 310.325 213.263 305.862 213.263 305.862C213.263 305.862 226.254 295.404 227.973 297.217C229.693 299.03 230.937 304.805 230.878 307.245C230.82 309.685 228.043 313.241 225.068 314.891C221.758 317.043 218.566 319.37 215.505 321.863C215.505 321.863 218.991 338.945 223.418 349.565C227.846 360.186 229.554 380.498 228.241 387.76C226.928 395.023 205.744 415.265 205.744 415.265" stroke="#263238" stroke-linecap="round" stroke-linejoin="round"/>
<path d="M342.57 343.697C342.57 343.697 322.386 324.28 318.935 318.865C315.484 313.45 313.52 316.158 310.476 314.88C307.431 313.601 295.253 311.893 290.129 309.325C285.005 306.757 280.38 314.264 284.203 318.772C287.888 322.965 292.434 326.314 297.531 328.591C302.385 330.828 307.072 333.41 311.556 336.319C311.556 336.319 317.552 353.353 322.677 364.776C327.801 376.198 337.446 393.326 345.126 395.685C349.643 397.091 354.28 398.079 358.977 398.637" fill="white"/>
<path d="M342.57 343.697C342.57 343.697 322.386 324.28 318.935 318.865C315.484 313.45 313.52 316.158 310.476 314.88C307.431 313.601 295.253 311.893 290.129 309.325C285.005 306.757 280.38 314.264 284.203 318.772C287.888 322.965 292.434 326.314 297.531 328.591C302.385 330.828 307.072 333.41 311.556 336.319C311.556 336.319 317.552 353.353 322.677 364.776C327.801 376.198 337.446 393.326 345.126 395.685C349.643 397.091 354.28 398.079 358.977 398.637" stroke="#263238" stroke-linecap="round" stroke-linejoin="round"/>
<path d="M313.578 316.425C313.578 316.425 309.697 319.342 308.326 323.037" stroke="#263238" stroke-linecap="round" stroke-linejoin="round"/>
</svg>
