<svg width="179" height="42" viewBox="0 0 179 42" fill="none" xmlns="http://www.w3.org/2000/svg">
<path d="M10.7386 34.3729C8.78314 34.3729 7.10109 33.9586 5.69247 33.13C4.29214 32.2931 3.21496 31.133 2.46094 29.6499C1.7152 28.1667 1.34233 26.4598 1.34233 24.5291C1.34233 22.5736 1.71934 20.8584 2.47337 19.3835C3.23568 17.9003 4.317 16.7444 5.71733 15.9158C7.11766 15.079 8.78314 14.6605 10.7138 14.6605C12.3793 14.6605 13.8376 14.9629 15.0888 15.5678C16.34 16.1727 17.3301 17.022 18.0593 18.1158C18.7885 19.2095 19.1903 20.4938 19.2649 21.9688H14.2685C14.1276 21.0159 13.7547 20.2494 13.1499 19.6694C12.5533 19.0811 11.7702 18.7869 10.8008 18.7869C9.98047 18.7869 9.26373 19.0107 8.65057 19.4581C8.04569 19.8973 7.57339 20.5394 7.23366 21.3846C6.89394 22.2298 6.72408 23.2531 6.72408 24.4545C6.72408 25.6726 6.8898 26.7083 7.22124 27.5618C7.56096 28.4152 8.03741 29.0657 8.65057 29.5131C9.26373 29.9606 9.98047 30.1843 10.8008 30.1843C11.4057 30.1843 11.9484 30.06 12.429 29.8114C12.9179 29.5629 13.3197 29.2024 13.6346 28.7301C13.9577 28.2495 14.169 27.6737 14.2685 27.0025H19.2649C19.1821 28.4608 18.7843 29.7451 18.0717 30.8555C17.3674 31.9575 16.3938 32.8192 15.1509 33.4407C13.908 34.0621 12.4373 34.3729 10.7386 34.3729ZM55.0573 34V14.9091H60.1034V18.2773H60.3271C60.7249 17.1587 61.3878 16.2763 62.3158 15.63C63.2438 14.9837 64.3541 14.6605 65.6468 14.6605C66.9559 14.6605 68.0704 14.9878 68.9901 15.6424C69.9099 16.2887 70.5231 17.167 70.8296 18.2773H71.0285C71.4179 17.1836 72.1222 16.3094 73.1414 15.6548C74.1689 14.992 75.3828 14.6605 76.7831 14.6605C78.5646 14.6605 80.0105 15.2281 81.1208 16.3633C82.2394 17.4902 82.7987 19.0894 82.7987 21.1609V34H77.5164V22.2049C77.5164 21.1443 77.2347 20.3488 76.6713 19.8185C76.1078 19.2882 75.4035 19.0231 74.5583 19.0231C73.5972 19.0231 72.8473 19.3297 72.3087 19.9428C71.7701 20.5477 71.5008 21.3473 71.5008 22.3416V34H66.3676V22.093C66.3676 21.1567 66.0983 20.411 65.5597 19.8558C65.0294 19.3007 64.3293 19.0231 63.4593 19.0231C62.8709 19.0231 62.3406 19.1722 61.8683 19.4705C61.4043 19.7605 61.0356 20.1707 60.7622 20.701C60.4887 21.223 60.352 21.8362 60.352 22.5405V34H55.0573ZM87.0805 34V8.54545H92.3753V18.1158H92.5368C92.7689 17.602 93.1044 17.08 93.5436 16.5497C93.991 16.0111 94.5711 15.5637 95.2836 15.2074C96.0045 14.8428 96.8994 14.6605 97.9683 14.6605C99.3604 14.6605 100.645 15.0251 101.821 15.7543C102.998 16.4751 103.938 17.5647 104.643 19.0231C105.347 20.4731 105.699 22.2919 105.699 24.4794C105.699 26.6089 105.355 28.407 104.668 29.8736C103.988 31.3319 103.06 32.4381 101.883 33.1921C100.715 33.9379 99.4059 34.3107 97.9559 34.3107C96.9284 34.3107 96.0542 34.1409 95.3334 33.8011C94.6208 33.4614 94.0366 33.0347 93.5809 32.521C93.1251 31.9989 92.7771 31.4728 92.5368 30.9425H92.3007V34H87.0805ZM92.2634 24.4545C92.2634 25.5897 92.4208 26.5799 92.7357 27.4251C93.0506 28.2702 93.5063 28.929 94.1029 29.4013C94.6995 29.8653 95.4245 30.0973 96.278 30.0973C97.1397 30.0973 97.8689 29.8612 98.4655 29.3888C99.0621 28.9083 99.5136 28.2454 99.8202 27.4002C100.135 26.5468 100.293 25.5649 100.293 24.4545C100.293 23.3525 100.139 22.383 99.8327 21.5462C99.5261 20.7093 99.0745 20.0547 98.4779 19.5824C97.8813 19.1101 97.148 18.8739 96.278 18.8739C95.4162 18.8739 94.6871 19.1018 94.0905 19.5575C93.5022 20.0133 93.0506 20.6596 92.7357 21.4964C92.4208 22.3333 92.2634 23.3194 92.2634 24.4545ZM117.932 34.3729C115.969 34.3729 114.278 33.9751 112.861 33.1797C111.453 32.3759 110.367 31.2408 109.605 29.7741C108.843 28.2992 108.461 26.555 108.461 24.5415C108.461 22.5778 108.843 20.8543 109.605 19.3711C110.367 17.8879 111.44 16.732 112.824 15.9034C114.216 15.0748 115.848 14.6605 117.721 14.6605C118.981 14.6605 120.153 14.8635 121.238 15.2695C122.332 15.6673 123.285 16.268 124.097 17.0717C124.917 17.8755 125.555 18.8864 126.011 20.1044C126.467 21.3142 126.695 22.7311 126.695 24.3551V25.8093H110.574V22.5281H121.711C121.711 21.7657 121.545 21.0904 121.214 20.5021C120.882 19.9138 120.422 19.454 119.834 19.1225C119.254 18.7828 118.579 18.6129 117.808 18.6129C117.004 18.6129 116.292 18.7994 115.67 19.1722C115.057 19.5368 114.577 20.0298 114.229 20.6513C113.881 21.2644 113.702 21.948 113.694 22.7021V25.8217C113.694 26.7663 113.868 27.5825 114.216 28.2702C114.572 28.958 115.074 29.4883 115.72 29.8612C116.366 30.234 117.133 30.4205 118.019 30.4205C118.608 30.4205 119.146 30.3376 119.635 30.1719C120.124 30.0062 120.542 29.7576 120.89 29.4261C121.238 29.0947 121.504 28.6887 121.686 28.2081L126.583 28.5312C126.334 29.7079 125.825 30.7353 125.054 31.6136C124.292 32.4837 123.306 33.1631 122.096 33.652C120.895 34.1326 119.507 34.3729 117.932 34.3729ZM138.85 34.3729C136.887 34.3729 135.196 33.9751 133.779 33.1797C132.371 32.3759 131.285 31.2408 130.523 29.7741C129.761 28.2992 129.379 26.555 129.379 24.5415C129.379 22.5778 129.761 20.8543 130.523 19.3711C131.285 17.8879 132.358 16.732 133.742 15.9034C135.134 15.0748 136.766 14.6605 138.639 14.6605C139.898 14.6605 141.071 14.8635 142.156 15.2695C143.25 15.6673 144.203 16.268 145.015 17.0717C145.835 17.8755 146.473 18.8864 146.929 20.1044C147.385 21.3142 147.613 22.7311 147.613 24.3551V25.8093H131.492V22.5281H142.629C142.629 21.7657 142.463 21.0904 142.132 20.5021C141.8 19.9138 141.34 19.454 140.752 19.1225C140.172 18.7828 139.497 18.6129 138.726 18.6129C137.922 18.6129 137.21 18.7994 136.588 19.1722C135.975 19.5368 135.494 20.0298 135.146 20.6513C134.798 21.2644 134.62 21.948 134.612 22.7021V25.8217C134.612 26.7663 134.786 27.5825 135.134 28.2702C135.49 28.958 135.992 29.4883 136.638 29.8612C137.284 30.234 138.051 30.4205 138.937 30.4205C139.526 30.4205 140.064 30.3376 140.553 30.1719C141.042 30.0062 141.46 29.7576 141.808 29.4261C142.156 29.0947 142.422 28.6887 142.604 28.2081L147.501 28.5312C147.252 29.7079 146.743 30.7353 145.972 31.6136C145.21 32.4837 144.224 33.1631 143.014 33.652C141.813 34.1326 140.425 34.3729 138.85 34.3729ZM154.697 34L149.502 14.9091H154.859L157.817 27.7358H157.991L161.073 14.9091H166.331L169.463 27.6612H169.624L172.533 14.9091H177.877L172.694 34H167.089L163.808 21.9936H163.572L160.29 34H154.697Z" fill="#261251"/>
<path d="M27.3756 17.4434L37 11.8868L46.6244 17.4434V28.5566L37 34.1132L27.3756 28.5566L27.3756 17.4434Z" stroke="#FFB907" stroke-width="5"/>
</svg>
