<svg width="156" height="94" viewBox="0 0 156 94" fill="none" xmlns="http://www.w3.org/2000/svg">
<rect width="156" height="94" rx="8" fill="#1F1F1F"/>
<path d="M12.9886 42V20.1818H20.6023V24.3295H20.8295C21.2273 22.7955 21.857 21.6733 22.7188 20.9631C23.59 20.2528 24.608 19.8977 25.7727 19.8977C26.1136 19.8977 26.4498 19.9261 26.7812 19.983C27.1222 20.0303 27.4489 20.1013 27.7614 20.196V26.8864C27.3731 26.7538 26.8949 26.6544 26.3267 26.5881C25.7585 26.5218 25.2708 26.4886 24.8636 26.4886C24.0966 26.4886 23.4053 26.6638 22.7898 27.0142C22.1837 27.3551 21.7055 27.8381 21.3551 28.4631C21.0047 29.0786 20.8295 29.803 20.8295 30.6364V42H12.9886ZM39.5369 42.3977C37.2074 42.3977 35.1998 41.9527 33.5142 41.0625C31.8381 40.1629 30.5455 38.875 29.6364 37.1989C28.7367 35.5133 28.2869 33.4962 28.2869 31.1477C28.2869 28.8939 28.7415 26.9242 29.6506 25.2386C30.5597 23.553 31.8428 22.2415 33.5 21.304C35.1572 20.3665 37.1127 19.8977 39.3665 19.8977C41.0142 19.8977 42.5057 20.1534 43.8409 20.6648C45.1761 21.1761 46.3172 21.9195 47.2642 22.8949C48.2112 23.8608 48.9403 25.035 49.4517 26.4176C49.9631 27.8002 50.2188 29.358 50.2188 31.0909V32.9091H30.7301V28.5909H43.0028C42.9934 27.9659 42.8324 27.4167 42.5199 26.9432C42.2169 26.4602 41.8049 26.0862 41.2841 25.821C40.7727 25.5464 40.1903 25.4091 39.5369 25.4091C38.9025 25.4091 38.3201 25.5464 37.7898 25.821C37.2595 26.0862 36.8333 26.4555 36.5114 26.929C36.1989 27.4025 36.0331 27.9564 36.0142 28.5909V33.25C36.0142 33.9508 36.161 34.5758 36.4545 35.125C36.7481 35.6742 37.1695 36.1051 37.7188 36.4176C38.268 36.7301 38.9309 36.8864 39.7074 36.8864C40.2472 36.8864 40.7396 36.8106 41.1847 36.6591C41.6392 36.5076 42.0275 36.2898 42.3494 36.0057C42.6714 35.7121 42.9081 35.3617 43.0597 34.9545H50.2188C49.9725 36.4697 49.3902 37.786 48.4716 38.9034C47.553 40.0114 46.3362 40.8731 44.821 41.4886C43.3153 42.0947 41.554 42.3977 39.5369 42.3977ZM74.8601 20.1818L67.5305 42H58.4396L51.1101 20.1818H59.3487L62.8714 34.6136H63.0987L66.6214 20.1818H74.8601ZM77.0902 42V20.1818H84.9311V42H77.0902ZM81.0107 17.9091C79.95 17.9091 79.041 17.5587 78.2834 16.858C77.5258 16.1572 77.147 15.3144 77.147 14.3295C77.147 13.3447 77.5258 12.5019 78.2834 11.8011C79.041 11.1004 79.95 10.75 81.0107 10.75C82.0807 10.75 82.9898 11.1004 83.7379 11.8011C84.4955 12.5019 84.8743 13.3447 84.8743 14.3295C84.8743 15.3144 84.4955 16.1572 83.7379 16.858C82.9898 17.5587 82.0807 17.9091 81.0107 17.9091ZM99.3807 42.3977C97.0511 42.3977 95.0436 41.9527 93.358 41.0625C91.6818 40.1629 90.3892 38.875 89.4801 37.1989C88.5805 35.5133 88.1307 33.4962 88.1307 31.1477C88.1307 28.8939 88.5852 26.9242 89.4943 25.2386C90.4034 23.553 91.6866 22.2415 93.3438 21.304C95.0009 20.3665 96.9564 19.8977 99.2102 19.8977C100.858 19.8977 102.349 20.1534 103.685 20.6648C105.02 21.1761 106.161 21.9195 107.108 22.8949C108.055 23.8608 108.784 25.035 109.295 26.4176C109.807 27.8002 110.062 29.358 110.062 31.0909V32.9091H90.5739V28.5909H102.847C102.837 27.9659 102.676 27.4167 102.364 26.9432C102.061 26.4602 101.649 26.0862 101.128 25.821C100.616 25.5464 100.034 25.4091 99.3807 25.4091C98.7462 25.4091 98.1638 25.5464 97.6335 25.821C97.1032 26.0862 96.6771 26.4555 96.3551 26.929C96.0426 27.4025 95.8769 27.9564 95.858 28.5909V33.25C95.858 33.9508 96.0047 34.5758 96.2983 35.125C96.5919 35.6742 97.0133 36.1051 97.5625 36.4176C98.1117 36.7301 98.7746 36.8864 99.5511 36.8864C100.091 36.8864 100.583 36.8106 101.028 36.6591C101.483 36.5076 101.871 36.2898 102.193 36.0057C102.515 35.7121 102.752 35.3617 102.903 34.9545H110.062C109.816 36.4697 109.234 37.786 108.315 38.9034C107.397 40.0114 106.18 40.8731 104.665 41.4886C103.159 42.0947 101.398 42.3977 99.3807 42.3977ZM116.852 42L111.398 20.1818H119.239L121.739 33.4773H121.909L124.693 20.1818H132.307L135.205 33.3636H135.375L137.761 20.1818H145.602L140.148 42H131.682L128.614 30.2955H128.386L125.318 42H116.852Z" fill="#FFB907"/>
<path d="M48.5582 65.1918C48.0398 65.1918 47.5692 65.0941 47.1467 64.8988C46.7241 64.6999 46.3885 64.4141 46.1399 64.0412C45.8913 63.6648 45.767 63.2102 45.767 62.6776C45.767 62.2088 45.8594 61.8288 46.044 61.5376C46.2287 61.2429 46.4755 61.0121 46.7844 60.8452C47.0934 60.6783 47.4343 60.554 47.8072 60.4723C48.1836 60.3871 48.5618 60.3196 48.9418 60.2699C49.4389 60.206 49.842 60.158 50.1509 60.1261C50.4634 60.0906 50.6907 60.032 50.8327 59.9503C50.9783 59.8686 51.0511 59.7266 51.0511 59.5241V59.4815C51.0511 58.956 50.9073 58.5476 50.6197 58.2564C50.3356 57.9652 49.9041 57.8196 49.3253 57.8196C48.7251 57.8196 48.2546 57.951 47.9137 58.2138C47.5728 58.4766 47.3331 58.7571 47.1946 59.0554L46.0014 58.6293C46.2145 58.1321 46.4986 57.745 46.8537 57.468C47.2124 57.1875 47.603 56.9922 48.0256 56.8821C48.4517 56.7685 48.8707 56.7116 49.2827 56.7116C49.5455 56.7116 49.8473 56.7436 50.1882 56.8075C50.5327 56.8679 50.8647 56.994 51.1843 57.1857C51.5075 57.3775 51.7756 57.6669 51.9886 58.054C52.2017 58.4411 52.3082 58.9595 52.3082 59.6094V65H51.0511V63.892H50.9872C50.902 64.0696 50.7599 64.2596 50.5611 64.462C50.3622 64.6644 50.0977 64.8366 49.7674 64.9787C49.4371 65.1207 49.0341 65.1918 48.5582 65.1918ZM48.75 64.0625C49.2472 64.0625 49.6662 63.9648 50.0071 63.7695C50.3516 63.5742 50.6108 63.3221 50.7848 63.0131C50.9624 62.7042 51.0511 62.3793 51.0511 62.0384V60.8878C50.9979 60.9517 50.8807 61.0103 50.6996 61.0636C50.522 61.1133 50.3161 61.1577 50.0817 61.1967C49.8509 61.2322 49.6254 61.2642 49.4052 61.2926C49.1886 61.3175 49.0128 61.3388 48.8778 61.3565C48.5511 61.3991 48.2457 61.4684 47.9616 61.5643C47.6811 61.6566 47.4538 61.7969 47.2798 61.9851C47.1094 62.1697 47.0241 62.4219 47.0241 62.7415C47.0241 63.1783 47.1857 63.5085 47.5089 63.7322C47.8356 63.9524 48.2493 64.0625 48.75 64.0625ZM61.0001 56.8182L57.9745 65H56.6961L53.6705 56.8182H55.0342L57.2927 63.3381H57.3779L59.6365 56.8182H61.0001ZM64.818 65.1918C64.2995 65.1918 63.829 65.0941 63.4064 64.8988C62.9838 64.6999 62.6483 64.4141 62.3997 64.0412C62.1511 63.6648 62.0268 63.2102 62.0268 62.6776C62.0268 62.2088 62.1191 61.8288 62.3038 61.5376C62.4885 61.2429 62.7353 61.0121 63.0442 60.8452C63.3532 60.6783 63.6941 60.554 64.0669 60.4723C64.4434 60.3871 64.8216 60.3196 65.2015 60.2699C65.6987 60.206 66.1017 60.158 66.4107 60.1261C66.7232 60.0906 66.9505 60.032 67.0925 59.9503C67.2381 59.8686 67.3109 59.7266 67.3109 59.5241V59.4815C67.3109 58.956 67.1671 58.5476 66.8794 58.2564C66.5953 57.9652 66.1639 57.8196 65.585 57.8196C64.9849 57.8196 64.5144 57.951 64.1735 58.2138C63.8326 58.4766 63.5929 58.7571 63.4544 59.0554L62.2612 58.6293C62.4743 58.1321 62.7583 57.745 63.1135 57.468C63.4721 57.1875 63.8627 56.9922 64.2853 56.8821C64.7115 56.7685 65.1305 56.7116 65.5424 56.7116C65.8052 56.7116 66.1071 56.7436 66.448 56.8075C66.7924 56.8679 67.1245 56.994 67.4441 57.1857C67.7672 57.3775 68.0353 57.6669 68.2484 58.054C68.4615 58.4411 68.568 58.9595 68.568 59.6094V65H67.3109V63.892H67.247C67.1618 64.0696 67.0197 64.2596 66.8208 64.462C66.622 64.6644 66.3574 64.8366 66.0272 64.9787C65.6969 65.1207 65.2939 65.1918 64.818 65.1918ZM65.0098 64.0625C65.5069 64.0625 65.926 63.9648 66.2669 63.7695C66.6113 63.5742 66.8706 63.3221 67.0446 63.0131C67.2221 62.7042 67.3109 62.3793 67.3109 62.0384V60.8878C67.2576 60.9517 67.1404 61.0103 66.9593 61.0636C66.7818 61.1133 66.5758 61.1577 66.3414 61.1967C66.1106 61.2322 65.8851 61.2642 65.665 61.2926C65.4483 61.3175 65.2725 61.3388 65.1376 61.3565C64.8109 61.3991 64.5055 61.4684 64.2214 61.5643C63.9409 61.6566 63.7136 61.7969 63.5396 61.9851C63.3691 62.1697 63.2839 62.4219 63.2839 62.7415C63.2839 63.1783 63.4455 63.5085 63.7686 63.7322C64.0953 63.9524 64.5091 64.0625 65.0098 64.0625ZM72.1196 54.0909V65H70.8625V54.0909H72.1196ZM74.4221 65V56.8182H75.6792V65H74.4221ZM75.0613 55.4545C74.8162 55.4545 74.6049 55.3711 74.4274 55.2042C74.2534 55.0373 74.1664 54.8366 74.1664 54.6023C74.1664 54.3679 74.2534 54.1673 74.4274 54.0004C74.6049 53.8335 74.8162 53.75 75.0613 53.75C75.3063 53.75 75.5158 53.8335 75.6898 54.0004C75.8674 54.1673 75.9561 54.3679 75.9561 54.6023C75.9561 54.8366 75.8674 55.0373 75.6898 55.2042C75.5158 55.3711 75.3063 55.4545 75.0613 55.4545ZM80.3893 65.1918C79.8708 65.1918 79.4003 65.0941 78.9777 64.8988C78.5551 64.6999 78.2195 64.4141 77.971 64.0412C77.7224 63.6648 77.5981 63.2102 77.5981 62.6776C77.5981 62.2088 77.6904 61.8288 77.8751 61.5376C78.0597 61.2429 78.3066 61.0121 78.6155 60.8452C78.9244 60.6783 79.2654 60.554 79.6382 60.4723C80.0146 60.3871 80.3928 60.3196 80.7728 60.2699C81.27 60.206 81.673 60.158 81.982 60.1261C82.2945 60.0906 82.5218 60.032 82.6638 59.9503C82.8094 59.8686 82.8822 59.7266 82.8822 59.5241V59.4815C82.8822 58.956 82.7384 58.5476 82.4507 58.2564C82.1666 57.9652 81.7352 57.8196 81.1563 57.8196C80.5562 57.8196 80.0857 57.951 79.7448 58.2138C79.4039 58.4766 79.1642 58.7571 79.0257 59.0554L77.8325 58.6293C78.0455 58.1321 78.3296 57.745 78.6847 57.468C79.0434 57.1875 79.434 56.9922 79.8566 56.8821C80.2828 56.7685 80.7018 56.7116 81.1137 56.7116C81.3765 56.7116 81.6784 56.7436 82.0193 56.8075C82.3637 56.8679 82.6958 56.994 83.0154 57.1857C83.3385 57.3775 83.6066 57.6669 83.8197 58.054C84.0328 58.4411 84.1393 58.9595 84.1393 59.6094V65H82.8822V63.892H82.8183C82.733 64.0696 82.591 64.2596 82.3921 64.462C82.1933 64.6644 81.9287 64.8366 81.5985 64.9787C81.2682 65.1207 80.8651 65.1918 80.3893 65.1918ZM80.5811 64.0625C81.0782 64.0625 81.4972 63.9648 81.8382 63.7695C82.1826 63.5742 82.4419 63.3221 82.6159 63.0131C82.7934 62.7042 82.8822 62.3793 82.8822 62.0384V60.8878C82.8289 60.9517 82.7117 61.0103 82.5306 61.0636C82.3531 61.1133 82.1471 61.1577 81.9127 61.1967C81.6819 61.2322 81.4564 61.2642 81.2362 61.2926C81.0196 61.3175 80.8438 61.3388 80.7089 61.3565C80.3822 61.3991 80.0768 61.4684 79.7927 61.5643C79.5122 61.6566 79.2849 61.7969 79.1109 61.9851C78.9404 62.1697 78.8552 62.4219 78.8552 62.7415C78.8552 63.1783 79.0168 63.5085 79.3399 63.7322C79.6666 63.9524 80.0803 64.0625 80.5811 64.0625ZM89.7576 65.1705C88.9906 65.1705 88.3301 64.9893 87.7761 64.6271C87.2221 64.2649 86.796 63.766 86.4977 63.1303C86.1994 62.4947 86.0502 61.7685 86.0502 60.9517C86.0502 60.1207 86.2029 59.3874 86.5083 58.7518C86.8173 58.1126 87.247 57.6136 87.7974 57.255C88.3514 56.8928 88.9977 56.7116 89.7363 56.7116C90.3116 56.7116 90.8301 56.8182 91.2917 57.0312C91.7534 57.2443 92.1316 57.5426 92.4263 57.9261C92.7211 58.3097 92.9039 58.7571 92.975 59.2685H91.7179C91.622 58.8956 91.4089 58.5653 91.0787 58.2777C90.752 57.9865 90.3116 57.8409 89.7576 57.8409C89.2676 57.8409 88.8379 57.9687 88.4686 58.2244C88.1028 58.4766 87.8169 58.8335 87.611 59.2951C87.4086 59.7532 87.3074 60.2912 87.3074 60.9091C87.3074 61.5412 87.4068 62.0916 87.6056 62.5604C87.8081 63.0291 88.0922 63.3931 88.4579 63.6523C88.8272 63.9116 89.2605 64.0412 89.7576 64.0412C90.0843 64.0412 90.3809 63.9844 90.6472 63.8707C90.9135 63.7571 91.139 63.5938 91.3237 63.3807C91.5083 63.1676 91.6397 62.9119 91.7179 62.6136H92.975C92.9039 63.0966 92.7282 63.5316 92.4476 63.9187C92.1706 64.3022 91.8031 64.6076 91.345 64.8349C90.8904 65.0586 90.3613 65.1705 89.7576 65.1705ZM89.161 64.9574H90.2051L90.1199 65.3835C90.3968 65.4261 90.6507 65.5415 90.8816 65.7298C91.1124 65.9215 91.2278 66.2251 91.2278 66.6406C91.2278 67.0987 91.0378 67.4716 90.6578 67.7592C90.2814 68.0504 89.7257 68.196 88.9906 68.196L88.948 67.3651C89.2782 67.3651 89.5517 67.3118 89.7683 67.2053C89.9885 67.1023 90.0985 66.9283 90.0985 66.6832C90.0985 66.4382 90.008 66.2713 89.8269 66.1825C89.6458 66.0938 89.3528 66.0334 88.948 66.0014L89.161 64.9574ZM97.2203 65.1918C96.7019 65.1918 96.2314 65.0941 95.8088 64.8988C95.3862 64.6999 95.0506 64.4141 94.802 64.0412C94.5534 63.6648 94.4292 63.2102 94.4292 62.6776C94.4292 62.2088 94.5215 61.8288 94.7061 61.5376C94.8908 61.2429 95.1376 61.0121 95.4466 60.8452C95.7555 60.6783 96.0964 60.554 96.4693 60.4723C96.8457 60.3871 97.2239 60.3196 97.6039 60.2699C98.101 60.206 98.5041 60.158 98.813 60.1261C99.1255 60.0906 99.3528 60.032 99.4949 59.9503C99.6404 59.8686 99.7132 59.7266 99.7132 59.5241V59.4815C99.7132 58.956 99.5694 58.5476 99.2818 58.2564C98.9977 57.9652 98.5662 57.8196 97.9874 57.8196C97.3873 57.8196 96.9167 57.951 96.5758 58.2138C96.2349 58.4766 95.9952 58.7571 95.8567 59.0554L94.6635 58.6293C94.8766 58.1321 95.1607 57.745 95.5158 57.468C95.8745 57.1875 96.2651 56.9922 96.6877 56.8821C97.1138 56.7685 97.5328 56.7116 97.9448 56.7116C98.2076 56.7116 98.5094 56.7436 98.8503 56.8075C99.1948 56.8679 99.5268 56.994 99.8464 57.1857C100.17 57.3775 100.438 57.6669 100.651 58.054C100.864 58.4411 100.97 58.9595 100.97 59.6094V65H99.7132V63.892H99.6493C99.5641 64.0696 99.4221 64.2596 99.2232 64.462C99.0243 64.6644 98.7598 64.8366 98.4295 64.9787C98.0993 65.1207 97.6962 65.1918 97.2203 65.1918ZM97.4121 64.0625C97.9093 64.0625 98.3283 63.9648 98.6692 63.7695C99.0137 63.5742 99.2729 63.3221 99.4469 63.0131C99.6245 62.7042 99.7132 62.3793 99.7132 62.0384V60.8878C99.66 60.9517 99.5428 61.0103 99.3617 61.0636C99.1841 61.1133 98.9782 61.1577 98.7438 61.1967C98.513 61.2322 98.2875 61.2642 98.0673 61.2926C97.8507 61.3175 97.6749 61.3388 97.54 61.3565C97.2132 61.3991 96.9078 61.4684 96.6238 61.5643C96.3432 61.6566 96.1159 61.7969 95.9419 61.9851C95.7715 62.1697 95.6863 62.4219 95.6863 62.7415C95.6863 63.1783 95.8478 63.5085 96.171 63.7322C96.4977 63.9524 96.9114 64.0625 97.4121 64.0625ZM96.3894 55.8381L95.4093 55.7955C95.4093 55.2521 95.5637 54.8082 95.8727 54.4638C96.1852 54.1158 96.5705 53.9418 97.0286 53.9418C97.231 53.9418 97.4103 53.9773 97.5666 54.0483C97.7228 54.1158 97.872 54.1939 98.014 54.2827C98.1561 54.3714 98.3017 54.4513 98.4508 54.5224C98.6035 54.5898 98.7757 54.6236 98.9675 54.6236C99.1699 54.6236 99.3404 54.5455 99.4789 54.3892C99.6209 54.2294 99.6919 54.0376 99.6919 53.8139L100.651 53.8991C100.651 54.4531 100.494 54.8935 100.182 55.2202C99.873 55.5469 99.4895 55.7102 99.0314 55.7102C98.7864 55.7102 98.584 55.6765 98.4242 55.609C98.2644 55.538 98.1223 55.4581 97.998 55.3693C97.8738 55.2805 97.7424 55.2024 97.6039 55.1349C97.4654 55.0639 97.2949 55.0284 97.0925 55.0284C96.8901 55.0284 96.7214 55.1083 96.5865 55.2681C96.4551 55.4244 96.3894 55.6143 96.3894 55.8381ZM106.589 65.1705C105.85 65.1705 105.202 64.9947 104.644 64.6431C104.09 64.2915 103.657 63.7997 103.345 63.1676C103.036 62.5355 102.881 61.7969 102.881 60.9517C102.881 60.0994 103.036 59.3555 103.345 58.7198C103.657 58.0842 104.09 57.5906 104.644 57.239C105.202 56.8874 105.85 56.7116 106.589 56.7116C107.327 56.7116 107.974 56.8874 108.528 57.239C109.085 57.5906 109.518 58.0842 109.827 58.7198C110.14 59.3555 110.296 60.0994 110.296 60.9517C110.296 61.7969 110.14 62.5355 109.827 63.1676C109.518 63.7997 109.085 64.2915 108.528 64.6431C107.974 64.9947 107.327 65.1705 106.589 65.1705ZM106.589 64.0412C107.15 64.0412 107.611 63.8974 107.974 63.6097C108.336 63.3221 108.604 62.9439 108.778 62.4751C108.952 62.0064 109.039 61.4986 109.039 60.9517C109.039 60.4048 108.952 59.8952 108.778 59.4229C108.604 58.9506 108.336 58.5689 107.974 58.2777C107.611 57.9865 107.15 57.8409 106.589 57.8409C106.028 57.8409 105.566 57.9865 105.204 58.2777C104.842 58.5689 104.573 58.9506 104.399 59.4229C104.225 59.8952 104.138 60.4048 104.138 60.9517C104.138 61.4986 104.225 62.0064 104.399 62.4751C104.573 62.9439 104.842 63.3221 105.204 63.6097C105.566 63.8974 106.028 64.0412 106.589 64.0412Z" fill="white"/>
<path d="M43.9055 83V74.8182H46.1747V83H43.9055ZM45.0455 73.7635C44.7081 73.7635 44.4187 73.6516 44.1772 73.4279C43.9393 73.2006 43.8203 72.929 43.8203 72.6129C43.8203 72.3004 43.9393 72.0323 44.1772 71.8086C44.4187 71.5813 44.7081 71.4677 45.0455 71.4677C45.3828 71.4677 45.6705 71.5813 45.9084 71.8086C46.1499 72.0323 46.2706 72.3004 46.2706 72.6129C46.2706 72.929 46.1499 73.2006 45.9084 73.4279C45.6705 73.6516 45.3828 73.7635 45.0455 73.7635ZM50.2616 78.2699V83H47.9925V74.8182H50.1551V76.2617H50.251C50.4321 75.7859 50.7357 75.4094 51.1618 75.1325C51.588 74.8519 52.1047 74.7116 52.7119 74.7116C53.2801 74.7116 53.7755 74.8359 54.1981 75.0845C54.6207 75.3331 54.9491 75.6882 55.1835 76.1499C55.4179 76.608 55.5351 77.1548 55.5351 77.7905V83H53.2659V78.1953C53.2694 77.6946 53.1416 77.304 52.8824 77.0234C52.6231 76.7393 52.2662 76.5973 51.8117 76.5973C51.5063 76.5973 51.2364 76.663 51.002 76.7944C50.7712 76.9258 50.5901 77.1175 50.4587 77.3697C50.3309 77.6183 50.2652 77.9183 50.2616 78.2699ZM61.6754 74.8182V76.5227H56.7482V74.8182H61.6754ZM57.8668 72.858H60.136V80.4858C60.136 80.6953 60.168 80.8587 60.2319 80.9759C60.2958 81.0895 60.3846 81.1694 60.4982 81.2156C60.6154 81.2617 60.7504 81.2848 60.9031 81.2848C61.0096 81.2848 61.1161 81.2759 61.2227 81.2582C61.3292 81.2369 61.4109 81.2209 61.4677 81.2102L61.8246 82.8988C61.7109 82.9343 61.5511 82.9751 61.3452 83.0213C61.1392 83.071 60.8888 83.1012 60.5941 83.1119C60.0472 83.1332 59.5678 83.0604 59.1559 82.8935C58.7475 82.7266 58.4297 82.4673 58.2024 82.1158C57.9751 81.7642 57.8633 81.3203 57.8668 80.7841V72.858ZM66.7944 83.1598C65.9528 83.1598 65.2283 82.9893 64.6211 82.6484C64.0174 82.304 63.5522 81.8175 63.2255 81.1889C62.8988 80.5568 62.7354 79.8093 62.7354 78.9464C62.7354 78.1048 62.8988 77.3661 63.2255 76.7305C63.5522 76.0948 64.0121 75.5994 64.6051 75.2443C65.2017 74.8892 65.9013 74.7116 66.7038 74.7116C67.2436 74.7116 67.7461 74.7987 68.2113 74.9727C68.68 75.1431 69.0884 75.4006 69.4364 75.745C69.788 76.0895 70.0614 76.5227 70.2567 77.0447C70.4521 77.5632 70.5497 78.1705 70.5497 78.8665V79.4897H63.641V78.0835H68.4137C68.4137 77.7567 68.3427 77.4673 68.2006 77.2152C68.0586 76.9631 67.8615 76.766 67.6094 76.6239C67.3608 76.4783 67.0714 76.4055 66.7411 76.4055C66.3967 76.4055 66.0913 76.4854 65.8249 76.6452C65.5621 76.8015 65.3562 77.0128 65.207 77.2791C65.0579 77.5419 64.9815 77.8349 64.978 78.158V79.495C64.978 79.8999 65.0526 80.2496 65.2017 80.5444C65.3544 80.8391 65.5692 81.0664 65.8462 81.2262C66.1232 81.386 66.4517 81.4659 66.8317 81.4659C67.0838 81.4659 67.3146 81.4304 67.5241 81.3594C67.7337 81.2884 67.913 81.1818 68.0621 81.0398C68.2113 80.8977 68.3249 80.7237 68.4031 80.5178L70.5018 80.6562C70.3952 81.1605 70.1768 81.6009 69.8466 81.9773C69.5199 82.3501 69.0973 82.6413 68.5788 82.8509C68.0639 83.0568 67.4691 83.1598 66.7944 83.1598ZM72.0305 83V74.8182H74.2305V76.2457H74.3157C74.4648 75.7379 74.7152 75.3544 75.0668 75.0952C75.4183 74.8324 75.8232 74.701 76.2812 74.701C76.3949 74.701 76.5174 74.7081 76.6488 74.7223C76.7802 74.7365 76.8956 74.756 76.995 74.7809V76.7944C76.8885 76.7624 76.7411 76.734 76.5529 76.7092C76.3647 76.6843 76.1925 76.6719 76.0362 76.6719C75.7024 76.6719 75.4041 76.7447 75.1413 76.8903C74.8821 77.0323 74.6761 77.2312 74.5234 77.4869C74.3743 77.7425 74.2997 78.0373 74.2997 78.3711V83H72.0305ZM80.267 83.1545C79.7449 83.1545 79.2797 83.0639 78.8714 82.8828C78.463 82.6982 78.1398 82.4265 77.9019 82.0678C77.6675 81.7056 77.5503 81.2546 77.5503 80.7148C77.5503 80.2603 77.6338 79.8786 77.8007 79.5696C77.9676 79.2607 78.1949 79.0121 78.4825 78.8239C78.7702 78.6357 79.0969 78.4936 79.4626 78.3977C79.8319 78.3018 80.219 78.2344 80.6238 78.1953C81.0997 78.1456 81.4832 78.0994 81.7744 78.0568C82.0656 78.0107 82.2769 77.9432 82.4083 77.8544C82.5397 77.7656 82.6054 77.6342 82.6054 77.4602V77.4283C82.6054 77.0909 82.4988 76.8299 82.2858 76.6452C82.0763 76.4606 81.778 76.3683 81.3909 76.3683C80.9825 76.3683 80.6576 76.4588 80.4161 76.6399C80.1746 76.8175 80.0148 77.0412 79.9367 77.3111L77.838 77.1406C77.9445 76.6435 78.154 76.2138 78.4665 75.8516C78.779 75.4858 79.1821 75.2053 79.6757 75.0099C80.1729 74.8111 80.7481 74.7116 81.4015 74.7116C81.8561 74.7116 82.2911 74.7649 82.7066 74.8714C83.1256 74.978 83.4967 75.1431 83.8199 75.3668C84.1466 75.5906 84.404 75.8782 84.5922 76.2298C84.7805 76.5778 84.8746 76.995 84.8746 77.4815V83H82.7226V81.8654H82.6586C82.5273 82.1211 82.3515 82.3466 82.1313 82.5419C81.9111 82.7337 81.6466 82.8846 81.3376 82.9947C81.0287 83.1012 80.6718 83.1545 80.267 83.1545ZM80.9168 81.5884C81.2506 81.5884 81.5454 81.5227 81.801 81.3913C82.0567 81.2564 82.2574 81.0753 82.403 80.848C82.5486 80.6207 82.6214 80.3633 82.6214 80.0756V79.2074C82.5503 79.2536 82.4527 79.2962 82.3284 79.3352C82.2077 79.3707 82.0709 79.4045 81.9182 79.4364C81.7655 79.4648 81.6128 79.4915 81.4601 79.5163C81.3074 79.5376 81.1689 79.5572 81.0447 79.5749C80.7783 79.614 80.5457 79.6761 80.3469 79.7614C80.148 79.8466 79.9935 79.962 79.8834 80.1076C79.7733 80.2496 79.7183 80.4272 79.7183 80.6403C79.7183 80.9492 79.8302 81.1854 80.0539 81.3487C80.2812 81.5085 80.5688 81.5884 80.9168 81.5884ZM90.3318 83.1598C89.4937 83.1598 88.7728 82.9822 88.1691 82.6271C87.569 82.2685 87.1073 81.7713 86.7842 81.1357C86.4646 80.5 86.3048 79.7685 86.3048 78.9411C86.3048 78.103 86.4664 77.3679 86.7895 76.7358C87.1162 76.1001 87.5796 75.6048 88.1798 75.2496C88.7799 74.891 89.4937 74.7116 90.3211 74.7116C91.0349 74.7116 91.6599 74.8413 92.1961 75.1005C92.7323 75.3597 93.1567 75.7237 93.4692 76.1925C93.7817 76.6612 93.9539 77.2116 93.9859 77.8438H91.8445C91.7842 77.4354 91.6244 77.1069 91.3651 76.8583C91.1095 76.6062 90.7739 76.4801 90.3584 76.4801C90.0068 76.4801 89.6997 76.576 89.4369 76.7678C89.1776 76.956 88.9752 77.2312 88.8296 77.5934C88.684 77.9556 88.6112 78.3942 88.6112 78.9091C88.6112 79.4311 88.6823 79.875 88.8243 80.2408C88.9699 80.6065 89.1741 80.8853 89.4369 81.0771C89.6997 81.2688 90.0068 81.3647 90.3584 81.3647C90.6176 81.3647 90.8502 81.3114 91.0562 81.2049C91.2657 81.0984 91.4379 80.9439 91.5729 80.7415C91.7114 80.5355 91.8019 80.2887 91.8445 80.0011H93.9859C93.9504 80.6261 93.7799 81.1765 93.4745 81.6523C93.1727 82.1246 92.7554 82.494 92.2227 82.7603C91.6901 83.0266 91.0597 83.1598 90.3318 83.1598ZM89.7991 82.9574H90.8431L90.7579 83.4208C91.1237 83.4776 91.422 83.6143 91.6528 83.831C91.8872 84.0476 92.0061 84.3423 92.0097 84.7152C92.0132 85.2443 91.7682 85.6651 91.2746 85.9776C90.781 86.2937 90.0885 86.4517 89.1972 86.4517L89.1759 85.4396C89.6233 85.4396 89.9731 85.3846 90.2252 85.2745C90.4809 85.168 90.6141 85.0011 90.6247 84.7738C90.6318 84.5572 90.5484 84.392 90.3744 84.2784C90.2004 84.1648 89.9287 84.0849 89.5594 84.0387L89.7991 82.9574ZM97.7718 83.1545C97.2498 83.1545 96.7846 83.0639 96.3762 82.8828C95.9679 82.6982 95.6447 82.4265 95.4068 82.0678C95.1724 81.7056 95.0552 81.2546 95.0552 80.7148C95.0552 80.2603 95.1387 79.8786 95.3056 79.5696C95.4725 79.2607 95.6998 79.0121 95.9874 78.8239C96.275 78.6357 96.6017 78.4936 96.9675 78.3977C97.3368 78.3018 97.7239 78.2344 98.1287 78.1953C98.6046 78.1456 98.9881 78.0994 99.2793 78.0568C99.5705 78.0107 99.7818 77.9432 99.9132 77.8544C100.045 77.7656 100.11 77.6342 100.11 77.4602V77.4283C100.11 77.0909 100.004 76.8299 99.7907 76.6452C99.5811 76.4606 99.2828 76.3683 98.8958 76.3683C98.4874 76.3683 98.1625 76.4588 97.921 76.6399C97.6795 76.8175 97.5197 77.0412 97.4416 77.3111L95.3429 77.1406C95.4494 76.6435 95.6589 76.2138 95.9714 75.8516C96.2839 75.4858 96.687 75.2053 97.1806 75.0099C97.6777 74.8111 98.253 74.7116 98.9064 74.7116C99.361 74.7116 99.796 74.7649 100.211 74.8714C100.631 74.978 101.002 75.1431 101.325 75.3668C101.651 75.5906 101.909 75.8782 102.097 76.2298C102.285 76.5778 102.379 76.995 102.379 77.4815V83H100.227V81.8654H100.164C100.032 82.1211 99.8564 82.3466 99.6362 82.5419C99.416 82.7337 99.1515 82.8846 98.8425 82.9947C98.5336 83.1012 98.1767 83.1545 97.7718 83.1545ZM98.4217 81.5884C98.7555 81.5884 99.0502 81.5227 99.3059 81.3913C99.5616 81.2564 99.7623 81.0753 99.9078 80.848C100.053 80.6207 100.126 80.3633 100.126 80.0756V79.2074C100.055 79.2536 99.9576 79.2962 99.8333 79.3352C99.7125 79.3707 99.5758 79.4045 99.4231 79.4364C99.2704 79.4648 99.1177 79.4915 98.965 79.5163C98.8123 79.5376 98.6738 79.5572 98.5495 79.5749C98.2832 79.614 98.0506 79.6761 97.8517 79.7614C97.6529 79.8466 97.4984 79.962 97.3883 80.1076C97.2782 80.2496 97.2232 80.4272 97.2232 80.6403C97.2232 80.9492 97.335 81.1854 97.5588 81.3487C97.786 81.5085 98.0737 81.5884 98.4217 81.5884ZM97.4682 73.8114L96.2058 73.7955C96.2058 73.1172 96.3727 72.5969 96.7065 72.2347C97.0439 71.8725 97.454 71.6896 97.937 71.6861C98.1855 71.6861 98.3986 71.7269 98.5762 71.8086C98.7573 71.8867 98.9189 71.979 99.0609 72.0856C99.2065 72.1921 99.345 72.2862 99.4764 72.3679C99.6078 72.446 99.7498 72.4851 99.9025 72.4851C100.108 72.4815 100.265 72.4052 100.371 72.256C100.481 72.1033 100.536 71.9045 100.536 71.6594L101.778 71.6967C101.77 72.3679 101.6 72.8864 101.266 73.2521C100.932 73.6143 100.526 73.7972 100.046 73.8008C99.78 73.8008 99.5563 73.7617 99.3752 73.6836C99.1976 73.6019 99.0414 73.5096 98.9064 73.4066C98.7715 73.3001 98.6401 73.206 98.5123 73.1243C98.3844 73.0426 98.2406 73.0018 98.0808 73.0018C97.8961 73.0018 97.747 73.0746 97.6333 73.2202C97.5233 73.3658 97.4682 73.5629 97.4682 73.8114ZM107.837 83.1598C107.009 83.1598 106.294 82.984 105.69 82.6325C105.09 82.2773 104.626 81.7837 104.3 81.1516C103.973 80.516 103.81 79.7791 103.81 78.9411C103.81 78.0959 103.973 77.3572 104.3 76.7251C104.626 76.0895 105.09 75.5959 105.69 75.2443C106.294 74.8892 107.009 74.7116 107.837 74.7116C108.664 74.7116 109.378 74.8892 109.978 75.2443C110.582 75.5959 111.047 76.0895 111.374 76.7251C111.7 77.3572 111.864 78.0959 111.864 78.9411C111.864 79.7791 111.7 80.516 111.374 81.1516C111.047 81.7837 110.582 82.2773 109.978 82.6325C109.378 82.984 108.664 83.1598 107.837 83.1598ZM107.847 81.402C108.224 81.402 108.538 81.2955 108.79 81.0824C109.042 80.8658 109.232 80.571 109.36 80.1982C109.491 79.8253 109.557 79.4009 109.557 78.9251C109.557 78.4492 109.491 78.0249 109.36 77.652C109.232 77.2791 109.042 76.9844 108.79 76.7678C108.538 76.5511 108.224 76.4428 107.847 76.4428C107.467 76.4428 107.148 76.5511 106.888 76.7678C106.633 76.9844 106.439 77.2791 106.308 77.652C106.18 78.0249 106.116 78.4492 106.116 78.9251C106.116 79.4009 106.18 79.8253 106.308 80.1982C106.439 80.571 106.633 80.8658 106.888 81.0824C107.148 81.2955 107.467 81.402 107.847 81.402Z" fill="white"/>
</svg>
