<svg width="56" height="56" viewBox="0 0 56 56" fill="none" xmlns="http://www.w3.org/2000/svg">
<path d="M54.866 49.5936L44.1238 38.8468C52.1616 28.1054 49.9699 12.8818 39.2286 4.84395C28.4872 -3.1939 13.2636 -1.00224 5.22572 9.73913C-2.81212 20.4805 -0.620465 35.7041 10.1209 43.742C18.7493 50.1987 30.6001 50.1987 39.2286 43.742L49.9753 54.4887C51.3259 55.8393 53.5155 55.8393 54.8659 54.4887C56.2164 53.1382 56.2164 50.9486 54.8659 49.5982L54.866 49.5936ZM24.7643 41.6678C15.2179 41.6678 7.47907 33.9289 7.47907 24.3825C7.47907 14.8361 15.2179 7.09729 24.7643 7.09729C34.3107 7.09729 42.0495 14.8361 42.0495 24.3825C42.0394 33.9246 34.3065 41.6576 24.7643 41.6678Z" fill="#9479CF"/>
</svg>
