<svg width="26" height="24" viewBox="0 0 26 24" fill="none" xmlns="http://www.w3.org/2000/svg">
<path d="M11.2723 1.96328C12.0439 0.639828 13.9561 0.639828 14.7278 1.96328L17.3049 6.38327C17.5949 6.88048 18.0849 7.22869 18.6498 7.33887L23.6859 8.32113C25.2357 8.62341 25.8405 10.5182 24.7523 11.6624L21.3518 15.2381C20.9412 15.6698 20.7445 16.2622 20.8152 16.8538L21.3998 21.7434C21.5839 23.2826 20.0225 24.437 18.6048 23.8098L13.8092 21.6881C13.2938 21.4601 12.7062 21.4601 12.1908 21.6881L7.39522 23.8098C5.97755 24.437 4.41615 23.2826 4.60018 21.7434L5.18477 16.8538C5.2555 16.2622 5.05878 15.6698 4.64818 15.2381L1.2477 11.6624C0.159538 10.5182 0.76427 8.62341 2.31409 8.32113L7.35018 7.33887C7.91508 7.22869 8.40514 6.88048 8.69505 6.38327L11.2723 1.96328Z" fill="#FFB907"/>
</svg>
