<svg width="25" height="23" viewBox="0 0 25 23" fill="none" xmlns="http://www.w3.org/2000/svg">
<path d="M10.7577 1.09124C11.5227 -0.266046 13.4773 -0.266048 14.2423 1.09124L16.6529 5.36807C16.9383 5.87443 17.4299 6.23157 17.9996 6.34653L22.8121 7.31754C24.3393 7.62569 24.9433 9.48458 23.8889 10.6316L20.5663 14.2458C20.1729 14.6737 19.9851 15.2516 20.0519 15.829L20.6155 20.7059C20.7944 22.2537 19.2131 23.4025 17.7964 22.7541L13.3323 20.711C12.8038 20.4691 12.1962 20.4691 11.6677 20.711L7.2036 22.7541C5.78689 23.4025 4.20562 22.2537 4.38449 20.7059L4.94814 15.829C5.01487 15.2516 4.82711 14.6737 4.43373 14.2458L1.11114 10.6316C0.0566859 9.48458 0.660674 7.62569 2.18794 7.31754L7.00036 6.34653C7.57013 6.23157 8.0617 5.87443 8.3471 5.36807L10.7577 1.09124Z" fill="#4B4C47"/>
</svg>
