<svg width="61" height="58" viewBox="0 0 61 58" fill="none" xmlns="http://www.w3.org/2000/svg">
<path d="M59.6898 21.2234C59.1853 19.6173 58.1772 18.2163 56.8148 17.2275C55.4524 16.2386 53.8079 15.7145 52.1245 15.7326H41.3475L38.0743 5.53034C37.5595 3.92443 36.548 2.52349 35.1857 1.52954C33.8233 0.535591 32.1805 0 30.4941 0C28.8077 0 27.1649 0.535591 25.8026 1.52954C24.4402 2.52349 23.4287 3.92443 22.914 5.53034L19.6407 15.7326H8.86375C7.18577 15.735 5.55147 16.2675 4.19427 17.2543C2.83707 18.241 1.8264 19.6314 1.30662 21.2268C0.786839 22.8223 0.784539 24.5412 1.30004 26.138C1.81555 27.7348 2.82249 29.1279 4.17705 30.1183L12.9486 36.5317L9.61363 46.8597C9.07468 48.4615 9.06786 50.1946 9.59416 51.8007C10.1205 53.4067 11.1517 54.7996 12.5342 55.7718C13.893 56.7752 15.5396 57.3128 17.2287 57.3043C18.9178 57.2959 20.5589 56.7419 21.9076 55.725L30.4941 49.4053L39.0831 55.7176C40.4394 56.7152 42.0772 57.2571 43.7609 57.2653C45.4446 57.2735 47.0875 56.7476 48.4535 55.7632C49.8195 54.7788 50.8381 53.3866 51.363 51.7868C51.8879 50.187 51.892 48.462 51.3746 46.8597L48.0397 36.5317L56.8211 30.1183C58.1911 29.1404 59.2099 27.7473 59.7265 26.1453C60.2432 24.5433 60.2303 22.8175 59.6898 21.2234ZM53.9104 26.1346L43.6884 33.6062C43.2686 33.9125 42.9562 34.3435 42.7958 34.8379C42.6355 35.3322 42.6354 35.8646 42.7955 36.359L46.6805 48.3718C46.8771 48.981 46.8754 49.637 46.6757 50.2452C46.476 50.8535 46.0886 51.3828 45.5691 51.757C45.0496 52.1312 44.4249 52.331 43.7847 52.3277C43.1445 52.3245 42.5218 52.1183 42.0062 51.7388L31.9544 44.3387C31.531 44.0277 31.0194 43.86 30.4941 43.86C29.9688 43.86 29.4572 44.0277 29.0338 44.3387L18.9821 51.7388C18.4668 52.1234 17.8423 52.3339 17.1993 52.3397C16.5563 52.3455 15.9282 52.1464 15.406 51.7712C14.8837 51.3961 14.4946 50.8643 14.2949 50.2531C14.0952 49.6418 14.0954 48.9829 14.2954 48.3718L18.1928 36.359C18.3529 35.8646 18.3528 35.3322 18.1924 34.8379C18.0321 34.3435 17.7197 33.9125 17.2998 33.6062L7.07787 26.1346C6.56308 25.7577 6.18058 25.2277 5.98498 24.6204C5.78939 24.0131 5.79073 23.3595 5.98879 22.753C6.18686 22.1465 6.57152 21.6181 7.08784 21.2433C7.60416 20.8685 8.22573 20.6664 8.86375 20.6659H21.4439C21.9661 20.6659 22.4748 20.5002 22.8969 20.1925C23.3189 19.8849 23.6323 19.4512 23.7921 18.9541L27.6155 7.03749C27.8118 6.42769 28.1964 5.89588 28.7142 5.51862C29.2319 5.14136 29.856 4.93811 30.4966 4.93811C31.1372 4.93811 31.7613 5.14136 32.279 5.51862C32.7967 5.89588 33.1814 6.42769 33.3777 7.03749L37.201 18.9541C37.3609 19.4512 37.6743 19.8849 38.0963 20.1925C38.5183 20.5002 39.0271 20.6659 39.5493 20.6659H52.1294C52.7675 20.6664 53.389 20.8685 53.9053 21.2433C54.4217 21.6181 54.8063 22.1465 55.0044 22.753C55.2025 23.3595 55.2038 24.0131 55.0082 24.6204C54.8126 25.2277 54.4301 25.7577 53.9153 26.1346H53.9104Z" fill="#FFB907"/>
</svg>
