<svg width="78" height="75" viewBox="0 0 78 75" fill="none" xmlns="http://www.w3.org/2000/svg">
<path d="M63.7092 23.7679L63.7092 51.2127L38.9903 64.9351L14.2714 51.2127L14.2714 23.7679L38.9903 10.0455L63.7092 23.7679Z" fill="#FFB907"/>
<path d="M44.9467 51.3338C41.8748 55.2175 35.9715 55.179 32.9546 51.2557C29.0953 46.237 32.7047 38.9729 39.0372 39.0142C45.3696 39.0554 48.8763 46.3659 44.9467 51.3338Z" fill="#C5910C"/>
<path d="M53.6701 38.1434C53.6437 43.2975 47.1814 47.4452 39.2363 47.4075C31.2911 47.3698 24.8717 43.161 24.8982 38.0069C24.9246 32.8528 31.3869 28.7051 39.332 28.7428C47.2771 28.7805 53.6965 32.9892 53.6701 38.1434Z" fill="#C5910C"/>
<path d="M49.1294 47.0053C46.8637 50.0342 44.4279 52.0754 43.5087 51.4397C42.5896 50.8041 43.6812 47.8334 45.9469 44.8044C48.2126 41.7755 50.7944 39.8354 51.7135 40.471C52.6327 41.1066 51.3951 43.9764 49.1294 47.0053Z" fill="#261251"/>
<path d="M28.1534 46.1412C26.2565 42.8864 25.3626 39.9009 26.3502 39.3688C27.3379 38.8366 29.6763 41.0437 31.5732 44.2985C33.4701 47.5534 34.2071 50.6233 33.2195 51.1555C32.2318 51.6876 30.0503 49.396 28.1534 46.1412Z" fill="#261251"/>
<ellipse rx="1.10308" ry="8.43127" transform="matrix(0.866028 -0.499996 0.529675 0.848201 29.7312 27.8115)" fill="#261251"/>
<ellipse rx="1.10193" ry="8.44038" transform="matrix(0.850815 0.525465 -0.555475 0.831533 48.3344 28.6595)" fill="#261251"/>
</svg>
