<svg width="180" height="56" viewBox="0 0 180 56" fill="none" xmlns="http://www.w3.org/2000/svg">
<path d="M41.4482 14V3.09091H45.8161C46.6186 3.09091 47.288 3.20987 47.8242 3.4478C48.3604 3.68572 48.7635 4.01598 49.0334 4.43857C49.3033 4.8576 49.4382 5.34055 49.4382 5.88743C49.4382 6.31357 49.353 6.68821 49.1825 7.01136C49.0121 7.33097 48.7777 7.59375 48.4794 7.79972C48.1847 8.00213 47.8473 8.14595 47.4673 8.23118V8.33771C47.8828 8.35547 48.2717 8.47266 48.6339 8.68928C48.9996 8.90589 49.2962 9.20952 49.5234 9.60014C49.7507 9.98722 49.8643 10.4489 49.8643 10.9851C49.8643 11.5639 49.7205 12.0806 49.4329 12.5352C49.1488 12.9862 48.728 13.343 48.1705 13.6058C47.6129 13.8686 46.9258 14 46.109 14H41.4482ZM43.7546 12.1143H45.6349C46.2777 12.1143 46.7464 11.9918 47.0412 11.7468C47.3359 11.4982 47.4833 11.168 47.4833 10.756C47.4833 10.4542 47.4105 10.1879 47.2649 9.95703C47.1193 9.72621 46.9116 9.5451 46.6417 9.41371C46.3754 9.28232 46.0575 9.21662 45.6882 9.21662H43.7546V12.1143ZM43.7546 7.65589H45.4645C45.7805 7.65589 46.0611 7.60085 46.3061 7.49077C46.5547 7.37713 46.75 7.21733 46.892 7.01136C47.0376 6.8054 47.1104 6.55859 47.1104 6.27095C47.1104 5.87678 46.9702 5.55895 46.6896 5.31747C46.4126 5.07599 46.0185 4.95526 45.5071 4.95526H43.7546V7.65589ZM55.0512 14.1598C54.2096 14.1598 53.4852 13.9893 52.8779 13.6484C52.2742 13.304 51.809 12.8175 51.4823 12.1889C51.1556 11.5568 50.9923 10.8093 50.9923 9.94638C50.9923 9.10476 51.1556 8.36612 51.4823 7.73047C51.809 7.09482 52.2689 6.59943 52.8619 6.24432C53.4585 5.8892 54.1581 5.71165 54.9607 5.71165C55.5004 5.71165 56.0029 5.79865 56.4681 5.97266C56.9369 6.14311 57.3453 6.40057 57.6933 6.74503C58.0448 7.08949 58.3183 7.52273 58.5136 8.04474C58.7089 8.56321 58.8066 9.17045 58.8066 9.86648V10.4897H51.8978V9.08345H56.6705C56.6705 8.75675 56.5995 8.46733 56.4575 8.2152C56.3154 7.96307 56.1183 7.76598 55.8662 7.62393C55.6176 7.47834 55.3282 7.40554 54.998 7.40554C54.6535 7.40554 54.3481 7.48544 54.0818 7.64524C53.819 7.80149 53.613 8.01278 53.4639 8.27912C53.3147 8.5419 53.2384 8.83487 53.2348 9.15803V10.495C53.2348 10.8999 53.3094 11.2496 53.4585 11.5444C53.6112 11.8391 53.8261 12.0664 54.1031 12.2262C54.3801 12.386 54.7085 12.4659 55.0885 12.4659C55.3406 12.4659 55.5715 12.4304 55.781 12.3594C55.9905 12.2884 56.1698 12.1818 56.319 12.0398C56.4681 11.8977 56.5818 11.7237 56.6599 11.5178L58.7586 11.6562C58.6521 12.1605 58.4337 12.6009 58.1034 12.9773C57.7767 13.3501 57.3541 13.6413 56.8357 13.8509C56.3208 14.0568 55.7259 14.1598 55.0512 14.1598ZM60.2874 14V5.81818H62.45V7.26172H62.5459C62.7164 6.78232 63.0004 6.40412 63.3982 6.12713C63.7959 5.85014 64.2718 5.71165 64.8257 5.71165C65.3868 5.71165 65.8644 5.85192 66.2586 6.13246C66.6528 6.40945 66.9156 6.78587 67.047 7.26172H67.1322C67.2991 6.79297 67.6009 6.41832 68.0377 6.13778C68.4781 5.85369 68.9983 5.71165 69.5985 5.71165C70.362 5.71165 70.9816 5.9549 71.4575 6.44141C71.9369 6.92436 72.1766 7.60973 72.1766 8.49751V14H69.9127V8.94496C69.9127 8.49041 69.792 8.1495 69.5505 7.92223C69.309 7.69496 69.0072 7.58132 68.645 7.58132C68.233 7.58132 67.9117 7.71271 67.6808 7.9755C67.45 8.23473 67.3346 8.57741 67.3346 9.00355V14H65.1347V8.89702C65.1347 8.49574 65.0193 8.17614 64.7884 7.93821C64.5612 7.70028 64.2611 7.58132 63.8882 7.58132C63.6361 7.58132 63.4088 7.64524 63.2064 7.77308C63.0075 7.89737 62.8495 8.07315 62.7323 8.30043C62.6151 8.52415 62.5566 8.78693 62.5566 9.08878V14H60.2874ZM85.0685 5.81818L82.2081 14H79.6513L76.7908 5.81818H79.1879L80.8871 11.6722H80.9723L82.6662 5.81818H85.0685ZM86.2298 14V5.81818H88.4989V14H86.2298ZM87.3697 4.76349C87.0323 4.76349 86.7429 4.65163 86.5014 4.42791C86.2635 4.20064 86.1445 3.92898 86.1445 3.61293C86.1445 3.30043 86.2635 3.03232 86.5014 2.80859C86.7429 2.58132 87.0323 2.46768 87.3697 2.46768C87.707 2.46768 87.9947 2.58132 88.2326 2.80859C88.4741 3.03232 88.5948 3.30043 88.5948 3.61293C88.5948 3.92898 88.4741 4.20064 88.2326 4.42791C87.9947 4.65163 87.707 4.76349 87.3697 4.76349ZM92.5858 9.26989V14H90.3167V5.81818H92.4793V7.26172H92.5752C92.7563 6.78587 93.0599 6.40945 93.4861 6.13246C93.9122 5.85192 94.4289 5.71165 95.0361 5.71165C95.6043 5.71165 96.0997 5.83594 96.5223 6.08452C96.9449 6.3331 97.2733 6.68821 97.5077 7.14986C97.7421 7.60795 97.8593 8.15483 97.8593 8.79048V14H95.5901V9.19531C95.5937 8.6946 95.4658 8.30398 95.2066 8.02344C94.9474 7.73935 94.5905 7.5973 94.1359 7.5973C93.8305 7.5973 93.5606 7.663 93.3263 7.79439C93.0954 7.92578 92.9143 8.11754 92.7829 8.36967C92.6551 8.61825 92.5894 8.91832 92.5858 9.26989ZM102.663 14.1332C102.041 14.1332 101.478 13.9734 100.974 13.6538C100.473 13.3306 100.076 12.8565 99.7809 12.2315C99.4897 11.603 99.3441 10.8324 99.3441 9.91974C99.3441 8.98224 99.495 8.20277 99.7969 7.58132C100.099 6.95632 100.5 6.48935 101.001 6.1804C101.505 5.8679 102.057 5.71165 102.657 5.71165C103.115 5.71165 103.497 5.78977 103.803 5.94602C104.112 6.09872 104.36 6.29048 104.548 6.52131C104.74 6.74858 104.886 6.9723 104.985 7.19247H105.054V3.09091H107.318V14H105.081V12.6896H104.985C104.879 12.9169 104.728 13.1424 104.532 13.3661C104.341 13.5863 104.09 13.7692 103.781 13.9148C103.476 14.0604 103.103 14.1332 102.663 14.1332ZM103.382 12.3274C103.748 12.3274 104.056 12.228 104.309 12.0291C104.564 11.8267 104.76 11.5444 104.895 11.1822C105.033 10.82 105.102 10.3956 105.102 9.90909C105.102 9.42259 105.035 9 104.9 8.64133C104.765 8.28267 104.57 8.00568 104.314 7.81037C104.058 7.61506 103.748 7.5174 103.382 7.5174C103.009 7.5174 102.695 7.61861 102.439 7.82102C102.183 8.02344 101.99 8.30398 101.858 8.66264C101.727 9.02131 101.661 9.43679 101.661 9.90909C101.661 10.3849 101.727 10.8058 101.858 11.1715C101.993 11.5337 102.187 11.8178 102.439 12.0238C102.695 12.2262 103.009 12.3274 103.382 12.3274ZM112.881 14.1598C112.053 14.1598 111.338 13.984 110.734 13.6325C110.134 13.2773 109.67 12.7837 109.344 12.1516C109.017 11.516 108.854 10.7791 108.854 9.94105C108.854 9.09588 109.017 8.35724 109.344 7.72514C109.67 7.08949 110.134 6.59588 110.734 6.24432C111.338 5.8892 112.053 5.71165 112.881 5.71165C113.708 5.71165 114.422 5.8892 115.022 6.24432C115.626 6.59588 116.091 7.08949 116.418 7.72514C116.744 8.35724 116.908 9.09588 116.908 9.94105C116.908 10.7791 116.744 11.516 116.418 12.1516C116.091 12.7837 115.626 13.2773 115.022 13.6325C114.422 13.984 113.708 14.1598 112.881 14.1598ZM112.891 12.402C113.268 12.402 113.582 12.2955 113.834 12.0824C114.086 11.8658 114.276 11.571 114.404 11.1982C114.535 10.8253 114.601 10.4009 114.601 9.92507C114.601 9.44922 114.535 9.02486 114.404 8.65199C114.276 8.27912 114.086 7.98437 113.834 7.76776C113.582 7.55114 113.268 7.44283 112.891 7.44283C112.511 7.44283 112.192 7.55114 111.932 7.76776C111.677 7.98437 111.483 8.27912 111.352 8.65199C111.224 9.02486 111.16 9.44922 111.16 9.92507C111.16 10.4009 111.224 10.8253 111.352 11.1982C111.483 11.571 111.677 11.8658 111.932 12.0824C112.192 12.2955 112.511 12.402 112.891 12.402ZM124.188 14.1545C123.666 14.1545 123.201 14.0639 122.792 13.8828C122.384 13.6982 122.061 13.4265 121.823 13.0678C121.588 12.7056 121.471 12.2546 121.471 11.7148C121.471 11.2603 121.555 10.8786 121.722 10.5696C121.888 10.2607 122.116 10.0121 122.403 9.82386C122.691 9.63565 123.018 9.49361 123.384 9.39773C123.753 9.30185 124.14 9.23438 124.545 9.19531C125.021 9.1456 125.404 9.09943 125.695 9.05682C125.987 9.01065 126.198 8.94318 126.329 8.8544C126.461 8.76562 126.526 8.63423 126.526 8.46023V8.42827C126.526 8.09091 126.42 7.8299 126.207 7.64524C125.997 7.46058 125.699 7.36825 125.312 7.36825C124.903 7.36825 124.578 7.45881 124.337 7.63991C124.096 7.81747 123.936 8.04119 123.858 8.31108L121.759 8.14062C121.865 7.64347 122.075 7.21378 122.387 6.85156C122.7 6.4858 123.103 6.20526 123.597 6.00994C124.094 5.81108 124.669 5.71165 125.322 5.71165C125.777 5.71165 126.212 5.76491 126.627 5.87145C127.047 5.97798 127.418 6.14311 127.741 6.36683C128.067 6.59055 128.325 6.8782 128.513 7.22976C128.701 7.57777 128.795 7.99503 128.795 8.48153V14H126.643V12.8654H126.58C126.448 13.1211 126.272 13.3466 126.052 13.5419C125.832 13.7337 125.567 13.8846 125.259 13.9947C124.95 14.1012 124.593 14.1545 124.188 14.1545ZM124.838 12.5884C125.172 12.5884 125.466 12.5227 125.722 12.3913C125.978 12.2564 126.178 12.0753 126.324 11.848C126.469 11.6207 126.542 11.3633 126.542 11.0756V10.2074C126.471 10.2536 126.374 10.2962 126.249 10.3352C126.129 10.3707 125.992 10.4045 125.839 10.4364C125.686 10.4648 125.534 10.4915 125.381 10.5163C125.228 10.5376 125.09 10.5572 124.966 10.5749C124.699 10.614 124.467 10.6761 124.268 10.7614C124.069 10.8466 123.914 10.962 123.804 11.1076C123.694 11.2496 123.639 11.4272 123.639 11.6403C123.639 11.9492 123.751 12.1854 123.975 12.3487C124.202 12.5085 124.49 12.5884 124.838 12.5884ZM134.253 14.1598C133.425 14.1598 132.71 13.984 132.106 13.6325C131.506 13.2773 131.042 12.7837 130.716 12.1516C130.389 11.516 130.226 10.7791 130.226 9.94105C130.226 9.09588 130.389 8.35724 130.716 7.72514C131.042 7.08949 131.506 6.59588 132.106 6.24432C132.71 5.8892 133.425 5.71165 134.253 5.71165C135.08 5.71165 135.794 5.8892 136.394 6.24432C136.998 6.59588 137.463 7.08949 137.79 7.72514C138.116 8.35724 138.28 9.09588 138.28 9.94105C138.28 10.7791 138.116 11.516 137.79 12.1516C137.463 12.7837 136.998 13.2773 136.394 13.6325C135.794 13.984 135.08 14.1598 134.253 14.1598ZM134.263 12.402C134.64 12.402 134.954 12.2955 135.206 12.0824C135.458 11.8658 135.648 11.571 135.776 11.1982C135.907 10.8253 135.973 10.4009 135.973 9.92507C135.973 9.44922 135.907 9.02486 135.776 8.65199C135.648 8.27912 135.458 7.98437 135.206 7.76776C134.954 7.55114 134.64 7.44283 134.263 7.44283C133.883 7.44283 133.564 7.55114 133.305 7.76776C133.049 7.98437 132.855 8.27912 132.724 8.65199C132.596 9.02486 132.532 9.44922 132.532 9.92507C132.532 10.4009 132.596 10.8253 132.724 11.1982C132.855 11.571 133.049 11.8658 133.305 12.0824C133.564 12.2955 133.883 12.402 134.263 12.402Z" fill="#261251"/>
<path d="M11.2386 48.3729C9.28314 48.3729 7.60109 47.9586 6.19247 47.13C4.79214 46.2931 3.71496 45.133 2.96094 43.6499C2.2152 42.1667 1.84233 40.4598 1.84233 38.5291C1.84233 36.5736 2.21934 34.8584 2.97337 33.3835C3.73568 31.9003 4.817 30.7444 6.21733 29.9158C7.61766 29.079 9.28314 28.6605 11.2138 28.6605C12.8793 28.6605 14.3376 28.9629 15.5888 29.5678C16.84 30.1727 17.8301 31.022 18.5593 32.1158C19.2885 33.2095 19.6903 34.4938 19.7649 35.9688H14.7685C14.6276 35.0159 14.2547 34.2494 13.6499 33.6694C13.0533 33.0811 12.2702 32.7869 11.3008 32.7869C10.4805 32.7869 9.76373 33.0107 9.15057 33.4581C8.54569 33.8973 8.07339 34.5394 7.73366 35.3846C7.39394 36.2298 7.22408 37.2531 7.22408 38.4545C7.22408 39.6726 7.3898 40.7083 7.72124 41.5618C8.06096 42.4152 8.53741 43.0657 9.15057 43.5131C9.76373 43.9606 10.4805 44.1843 11.3008 44.1843C11.9057 44.1843 12.4484 44.06 12.929 43.8114C13.4179 43.5629 13.8197 43.2024 14.1346 42.7301C14.4577 42.2495 14.669 41.6737 14.7685 41.0025H19.7649C19.6821 42.4608 19.2843 43.7451 18.5717 44.8555C17.8674 45.9575 16.8938 46.8192 15.6509 47.4407C14.408 48.0621 12.9373 48.3729 11.2386 48.3729ZM55.5573 48V28.9091H60.6034V32.2773H60.8271C61.2249 31.1587 61.8878 30.2763 62.8158 29.63C63.7438 28.9837 64.8541 28.6605 66.1468 28.6605C67.4559 28.6605 68.5704 28.9878 69.4901 29.6424C70.4099 30.2887 71.0231 31.167 71.3296 32.2773H71.5285C71.9179 31.1836 72.6222 30.3094 73.6414 29.6548C74.6689 28.992 75.8828 28.6605 77.2831 28.6605C79.0646 28.6605 80.5105 29.2281 81.6208 30.3633C82.7394 31.4902 83.2987 33.0894 83.2987 35.1609V48H78.0164V36.2049C78.0164 35.1443 77.7347 34.3488 77.1713 33.8185C76.6078 33.2882 75.9035 33.0231 75.0583 33.0231C74.0972 33.0231 73.3473 33.3297 72.8087 33.9428C72.2701 34.5477 72.0008 35.3473 72.0008 36.3416V48H66.8676V36.093C66.8676 35.1567 66.5983 34.411 66.0597 33.8558C65.5294 33.3007 64.8293 33.0231 63.9593 33.0231C63.3709 33.0231 62.8406 33.1722 62.3683 33.4705C61.9043 33.7605 61.5356 34.1707 61.2622 34.701C60.9887 35.223 60.852 35.8362 60.852 36.5405V48H55.5573ZM87.5805 48V22.5455H92.8753V32.1158H93.0368C93.2689 31.602 93.6044 31.08 94.0436 30.5497C94.491 30.0111 95.0711 29.5637 95.7836 29.2074C96.5045 28.8428 97.3994 28.6605 98.4683 28.6605C99.8604 28.6605 101.145 29.0251 102.321 29.7543C103.498 30.4751 104.438 31.5647 105.143 33.0231C105.847 34.4731 106.199 36.2919 106.199 38.4794C106.199 40.6089 105.855 42.407 105.168 43.8736C104.488 45.3319 103.56 46.4381 102.383 47.1921C101.215 47.9379 99.9059 48.3107 98.4559 48.3107C97.4284 48.3107 96.5542 48.1409 95.8334 47.8011C95.1208 47.4614 94.5366 47.0347 94.0809 46.521C93.6251 45.9989 93.2771 45.4728 93.0368 44.9425H92.8007V48H87.5805ZM92.7634 38.4545C92.7634 39.5897 92.9208 40.5799 93.2357 41.4251C93.5506 42.2702 94.0063 42.929 94.6029 43.4013C95.1995 43.8653 95.9245 44.0973 96.778 44.0973C97.6397 44.0973 98.3689 43.8612 98.9655 43.3888C99.5621 42.9083 100.014 42.2454 100.32 41.4002C100.635 40.5468 100.793 39.5649 100.793 38.4545C100.793 37.3525 100.639 36.383 100.333 35.5462C100.026 34.7093 99.5745 34.0547 98.9779 33.5824C98.3813 33.1101 97.648 32.8739 96.778 32.8739C95.9162 32.8739 95.1871 33.1018 94.5905 33.5575C94.0022 34.0133 93.5506 34.6596 93.2357 35.4964C92.9208 36.3333 92.7634 37.3194 92.7634 38.4545ZM118.432 48.3729C116.469 48.3729 114.778 47.9751 113.361 47.1797C111.953 46.3759 110.867 45.2408 110.105 43.7741C109.343 42.2992 108.961 40.555 108.961 38.5415C108.961 36.5778 109.343 34.8543 110.105 33.3711C110.867 31.8879 111.94 30.732 113.324 29.9034C114.716 29.0748 116.348 28.6605 118.221 28.6605C119.481 28.6605 120.653 28.8635 121.738 29.2695C122.832 29.6673 123.785 30.268 124.597 31.0717C125.417 31.8755 126.055 32.8864 126.511 34.1044C126.967 35.3142 127.195 36.7311 127.195 38.3551V39.8093H111.074V36.5281H122.211C122.211 35.7657 122.045 35.0904 121.714 34.5021C121.382 33.9138 120.922 33.454 120.334 33.1225C119.754 32.7828 119.079 32.6129 118.308 32.6129C117.504 32.6129 116.792 32.7994 116.17 33.1722C115.557 33.5368 115.077 34.0298 114.729 34.6513C114.381 35.2644 114.202 35.948 114.194 36.7021V39.8217C114.194 40.7663 114.368 41.5825 114.716 42.2702C115.072 42.958 115.574 43.4883 116.22 43.8612C116.866 44.234 117.633 44.4205 118.519 44.4205C119.108 44.4205 119.646 44.3376 120.135 44.1719C120.624 44.0062 121.042 43.7576 121.39 43.4261C121.738 43.0947 122.004 42.6887 122.186 42.2081L127.083 42.5312C126.834 43.7079 126.325 44.7353 125.554 45.6136C124.792 46.4837 123.806 47.1631 122.596 47.652C121.395 48.1326 120.007 48.3729 118.432 48.3729ZM139.35 48.3729C137.387 48.3729 135.696 47.9751 134.279 47.1797C132.871 46.3759 131.785 45.2408 131.023 43.7741C130.261 42.2992 129.879 40.555 129.879 38.5415C129.879 36.5778 130.261 34.8543 131.023 33.3711C131.785 31.8879 132.858 30.732 134.242 29.9034C135.634 29.0748 137.266 28.6605 139.139 28.6605C140.398 28.6605 141.571 28.8635 142.656 29.2695C143.75 29.6673 144.703 30.268 145.515 31.0717C146.335 31.8755 146.973 32.8864 147.429 34.1044C147.885 35.3142 148.113 36.7311 148.113 38.3551V39.8093H131.992V36.5281H143.129C143.129 35.7657 142.963 35.0904 142.632 34.5021C142.3 33.9138 141.84 33.454 141.252 33.1225C140.672 32.7828 139.997 32.6129 139.226 32.6129C138.422 32.6129 137.71 32.7994 137.088 33.1722C136.475 33.5368 135.994 34.0298 135.646 34.6513C135.298 35.2644 135.12 35.948 135.112 36.7021V39.8217C135.112 40.7663 135.286 41.5825 135.634 42.2702C135.99 42.958 136.492 43.4883 137.138 43.8612C137.784 44.234 138.551 44.4205 139.437 44.4205C140.026 44.4205 140.564 44.3376 141.053 44.1719C141.542 44.0062 141.96 43.7576 142.308 43.4261C142.656 43.0947 142.922 42.6887 143.104 42.2081L148.001 42.5312C147.752 43.7079 147.243 44.7353 146.472 45.6136C145.71 46.4837 144.724 47.1631 143.514 47.652C142.313 48.1326 140.925 48.3729 139.35 48.3729ZM155.197 48L150.002 28.9091H155.359L158.317 41.7358H158.491L161.573 28.9091H166.831L169.963 41.6612H170.124L173.033 28.9091H178.377L173.194 48H167.589L164.308 35.9936H164.072L160.79 48H155.197Z" fill="#261251"/>
<path d="M27.8757 31.4434L37.5 25.8868L47.1244 31.4434V42.5566L37.5 48.1132L27.8757 42.5566V31.4434Z" stroke="#FFB907" stroke-width="5"/>
</svg>
