<svg width="529" height="79" viewBox="0 0 529 79" fill="none" xmlns="http://www.w3.org/2000/svg">
<rect width="529" height="79" rx="7" fill="#2C2D2B"/>
<path d="M62.9211 27.9213L62.9211 52.079L42 64.1578L21.0788 52.079L21.0788 27.9213L42 15.8424L62.9211 27.9213Z" fill="#FFB907"/>
<mask id="mask0_202_1128" style="mask-type:alpha" maskUnits="userSpaceOnUse" x="21" y="15" width="42" height="50">
<path d="M21.0789 52.0788L21.0788 27.9212L42 15.8423L62.9212 27.9212L62.9212 52.0788L42 64.1577L21.0789 52.0788Z" fill="#FFB907"/>
</mask>
<g mask="url(#mask0_202_1128)">
</g>
<path d="M47.541 51.9226C44.8807 55.4203 39.6075 55.3845 36.9949 51.8511C33.7658 47.4839 36.9082 41.3046 42.3394 41.3414C47.7705 41.3782 50.8289 47.5995 47.541 51.9226Z" fill="#C5910C"/>
<path d="M54.7242 40.5748C54.7018 45.1116 49.2324 48.7625 42.5079 48.7293C35.7834 48.6962 30.3503 44.9915 30.3727 40.4547C30.3951 35.9179 35.8645 32.267 42.5889 32.3002C49.3134 32.3333 54.7465 36.038 54.7242 40.5748Z" fill="#C5910C"/>
<path d="M50.8812 48.3754C48.9636 51.0415 46.902 52.8382 46.124 52.2787C45.3461 51.7191 46.27 49.1042 48.1876 46.4381C50.1052 43.7719 52.2904 42.0642 53.0683 42.6237C53.8462 43.1832 52.7988 45.7092 50.8812 48.3754Z" fill="#261251"/>
<path d="M33.1278 47.6148C31.5223 44.7498 30.7657 42.1219 31.6017 41.6535C32.4376 41.1851 34.4167 43.1278 36.0222 45.9928C37.6276 48.8578 38.2515 51.56 37.4155 52.0285C36.5796 52.4969 34.7333 50.4797 33.1278 47.6148Z" fill="#261251"/>
<ellipse cx="34.4633" cy="31.4805" rx="0.943084" ry="7.34245" transform="rotate(-30.9825 34.4633 31.4805)" fill="#261251"/>
<ellipse cx="50.2084" cy="32.2268" rx="0.943084" ry="7.34245" transform="rotate(32.7131 50.2084 32.2268)" fill="#261251"/>
<path d="M85.2784 46V34.3636H92.5739V35.875H87.0341V39.4205H92.1932V40.9261H87.0341V44.4886H92.642V46H85.2784ZM101.322 39.4034L99.7827 39.6761C99.7183 39.4792 99.616 39.2917 99.4759 39.1136C99.3395 38.9356 99.1539 38.7898 98.919 38.6761C98.6842 38.5625 98.3906 38.5057 98.0384 38.5057C97.5573 38.5057 97.1558 38.6136 96.8338 38.8295C96.5118 39.0417 96.3509 39.3163 96.3509 39.6534C96.3509 39.9451 96.4588 40.1799 96.6747 40.358C96.8906 40.536 97.2391 40.6818 97.7202 40.7955L99.1065 41.1136C99.9096 41.2992 100.508 41.5852 100.902 41.9716C101.296 42.358 101.493 42.8598 101.493 43.4773C101.493 44 101.341 44.4659 101.038 44.875C100.739 45.2803 100.321 45.5985 99.7827 45.8295C99.2486 46.0606 98.6293 46.1761 97.9247 46.1761C96.9474 46.1761 96.1501 45.9678 95.5327 45.5511C94.9152 45.1307 94.5365 44.5341 94.3963 43.7614L96.0384 43.5114C96.1406 43.9394 96.3509 44.2633 96.669 44.483C96.9872 44.6989 97.402 44.8068 97.9134 44.8068C98.4702 44.8068 98.9152 44.6913 99.2486 44.4602C99.5819 44.2254 99.7486 43.9394 99.7486 43.6023C99.7486 43.3295 99.6463 43.1004 99.4418 42.9148C99.241 42.7292 98.9323 42.589 98.5156 42.4943L97.0384 42.1705C96.224 41.9848 95.6217 41.6894 95.2315 41.2841C94.8452 40.8788 94.652 40.3655 94.652 39.7443C94.652 39.2292 94.7959 38.7784 95.0838 38.392C95.3717 38.0057 95.7694 37.7045 96.277 37.4886C96.7846 37.2689 97.366 37.1591 98.0213 37.1591C98.9645 37.1591 99.7069 37.3636 100.249 37.7727C100.79 38.178 101.148 38.7216 101.322 39.4034ZM107.037 46.1761C106.192 46.1761 105.465 45.9848 104.855 45.6023C104.249 45.2159 103.783 44.6837 103.457 44.0057C103.132 43.3277 102.969 42.5511 102.969 41.6761C102.969 40.7898 103.135 40.0076 103.469 39.3295C103.802 38.6477 104.272 38.1155 104.878 37.733C105.484 37.3504 106.198 37.1591 107.02 37.1591C107.683 37.1591 108.274 37.2822 108.793 37.5284C109.312 37.7708 109.73 38.1117 110.048 38.5511C110.37 38.9905 110.562 39.5038 110.622 40.0909H108.969C108.878 39.6818 108.67 39.3295 108.344 39.0341C108.022 38.7386 107.59 38.5909 107.048 38.5909C106.575 38.5909 106.16 38.7159 105.804 38.9659C105.452 39.2121 105.177 39.5644 104.98 40.0227C104.783 40.4773 104.685 41.0152 104.685 41.6364C104.685 42.2727 104.781 42.822 104.974 43.2841C105.168 43.7462 105.44 44.1042 105.793 44.358C106.149 44.6117 106.567 44.7386 107.048 44.7386C107.37 44.7386 107.662 44.6799 107.923 44.5625C108.188 44.4413 108.41 44.2689 108.588 44.0455C108.77 43.822 108.897 43.553 108.969 43.2386H110.622C110.562 43.803 110.378 44.3068 110.071 44.75C109.764 45.1932 109.353 45.5417 108.838 45.7955C108.327 46.0492 107.726 46.1761 107.037 46.1761ZM112.439 46V37.2727H114.081V38.6591H114.172C114.331 38.1894 114.611 37.8201 115.013 37.5511C115.418 37.2784 115.876 37.142 116.388 37.142C116.494 37.142 116.619 37.1458 116.763 37.1534C116.911 37.161 117.026 37.1705 117.109 37.1818V38.8068C117.041 38.7879 116.92 38.767 116.746 38.7443C116.571 38.7178 116.397 38.7045 116.223 38.7045C115.821 38.7045 115.464 38.7898 115.149 38.9602C114.839 39.1269 114.592 39.3598 114.411 39.6591C114.229 39.9545 114.138 40.2917 114.138 40.6705V46H112.439ZM122.028 46.1761C121.169 46.1761 120.428 45.9924 119.807 45.625C119.189 45.2538 118.712 44.733 118.375 44.0625C118.042 43.3883 117.875 42.5985 117.875 41.6932C117.875 40.7992 118.042 40.0114 118.375 39.3295C118.712 38.6477 119.182 38.1155 119.784 37.733C120.39 37.3504 121.098 37.1591 121.909 37.1591C122.402 37.1591 122.879 37.2405 123.341 37.4034C123.803 37.5663 124.218 37.822 124.585 38.1705C124.953 38.5189 125.242 38.9716 125.455 39.5284C125.667 40.0814 125.773 40.7538 125.773 41.5455V42.1477H118.835V40.875H124.108C124.108 40.428 124.017 40.0322 123.835 39.6875C123.653 39.339 123.398 39.0644 123.068 38.8636C122.742 38.6629 122.36 38.5625 121.92 38.5625C121.443 38.5625 121.027 38.6799 120.67 38.9148C120.318 39.1458 120.045 39.4489 119.852 39.8239C119.663 40.1951 119.568 40.5985 119.568 41.0341V42.0284C119.568 42.6117 119.67 43.108 119.875 43.517C120.083 43.9261 120.373 44.2386 120.744 44.4545C121.116 44.6667 121.549 44.7727 122.045 44.7727C122.367 44.7727 122.661 44.7273 122.926 44.6364C123.191 44.5417 123.42 44.4015 123.614 44.2159C123.807 44.0303 123.955 43.8011 124.057 43.5284L125.665 43.8182C125.536 44.2917 125.305 44.7064 124.972 45.0625C124.642 45.4148 124.227 45.6894 123.727 45.8864C123.231 46.0795 122.665 46.1761 122.028 46.1761ZM134.874 37.2727L131.709 46H129.891L126.72 37.2727H128.544L130.754 43.9886H130.845L133.05 37.2727H134.874ZM138.76 46.1932C138.207 46.1932 137.707 46.0909 137.26 45.8864C136.813 45.678 136.459 45.3769 136.197 44.983C135.94 44.589 135.811 44.1061 135.811 43.5341C135.811 43.0417 135.906 42.6364 136.095 42.3182C136.285 42 136.54 41.7481 136.862 41.5625C137.184 41.3769 137.544 41.2367 137.942 41.142C138.339 41.0473 138.745 40.9754 139.158 40.9261C139.68 40.8655 140.105 40.8163 140.43 40.7784C140.756 40.7367 140.993 40.6705 141.141 40.5795C141.288 40.4886 141.362 40.3409 141.362 40.1364V40.0966C141.362 39.6004 141.222 39.2159 140.942 38.9432C140.665 38.6705 140.252 38.5341 139.703 38.5341C139.131 38.5341 138.68 38.661 138.351 38.9148C138.025 39.1648 137.8 39.4432 137.675 39.75L136.078 39.3864C136.268 38.8561 136.544 38.428 136.908 38.1023C137.275 37.7727 137.697 37.5341 138.175 37.3864C138.652 37.2348 139.154 37.1591 139.68 37.1591C140.029 37.1591 140.398 37.2008 140.788 37.2841C141.182 37.3636 141.55 37.5114 141.891 37.7273C142.235 37.9432 142.518 38.2519 142.737 38.6534C142.957 39.0511 143.067 39.5682 143.067 40.2045V46H141.408V44.8068H141.339C141.23 45.0265 141.065 45.2424 140.845 45.4545C140.625 45.6667 140.343 45.8428 139.999 45.983C139.654 46.1231 139.241 46.1932 138.76 46.1932ZM139.129 44.8295C139.599 44.8295 140 44.7367 140.334 44.5511C140.671 44.3655 140.927 44.1231 141.101 43.8239C141.279 43.5208 141.368 43.197 141.368 42.8523V41.7273C141.307 41.7879 141.19 41.8447 141.016 41.8977C140.845 41.947 140.65 41.9905 140.43 42.0284C140.211 42.0625 139.997 42.0947 139.788 42.125C139.58 42.1515 139.406 42.1742 139.266 42.1932C138.936 42.2348 138.635 42.3049 138.362 42.4034C138.093 42.5019 137.877 42.6439 137.714 42.8295C137.555 43.0114 137.476 43.2538 137.476 43.5568C137.476 43.9773 137.631 44.2955 137.942 44.5114C138.252 44.7235 138.648 44.8295 139.129 44.8295ZM152.104 46.1932C151.551 46.1932 151.051 46.0909 150.604 45.8864C150.157 45.678 149.803 45.3769 149.541 44.983C149.284 44.589 149.155 44.1061 149.155 43.5341C149.155 43.0417 149.25 42.6364 149.439 42.3182C149.628 42 149.884 41.7481 150.206 41.5625C150.528 41.3769 150.888 41.2367 151.286 41.142C151.683 41.0473 152.089 40.9754 152.501 40.9261C153.024 40.8655 153.448 40.8163 153.774 40.7784C154.1 40.7367 154.337 40.6705 154.484 40.5795C154.632 40.4886 154.706 40.3409 154.706 40.1364V40.0966C154.706 39.6004 154.566 39.2159 154.286 38.9432C154.009 38.6705 153.596 38.5341 153.047 38.5341C152.475 38.5341 152.024 38.661 151.695 38.9148C151.369 39.1648 151.143 39.4432 151.018 39.75L149.422 39.3864C149.611 38.8561 149.888 38.428 150.251 38.1023C150.619 37.7727 151.041 37.5341 151.518 37.3864C151.996 37.2348 152.498 37.1591 153.024 37.1591C153.373 37.1591 153.742 37.2008 154.132 37.2841C154.526 37.3636 154.893 37.5114 155.234 37.7273C155.579 37.9432 155.861 38.2519 156.081 38.6534C156.301 39.0511 156.411 39.5682 156.411 40.2045V46H154.751V44.8068H154.683C154.573 45.0265 154.409 45.2424 154.189 45.4545C153.969 45.6667 153.687 45.8428 153.342 45.983C152.998 46.1231 152.585 46.1932 152.104 46.1932ZM152.473 44.8295C152.943 44.8295 153.344 44.7367 153.678 44.5511C154.015 44.3655 154.27 44.1231 154.445 43.8239C154.623 43.5208 154.712 43.197 154.712 42.8523V41.7273C154.651 41.7879 154.534 41.8447 154.359 41.8977C154.189 41.947 153.994 41.9905 153.774 42.0284C153.554 42.0625 153.34 42.0947 153.132 42.125C152.924 42.1515 152.75 42.1742 152.609 42.1932C152.28 42.2348 151.979 42.3049 151.706 42.4034C151.437 42.5019 151.221 42.6439 151.058 42.8295C150.899 43.0114 150.82 43.2538 150.82 43.5568C150.82 43.9773 150.975 44.2955 151.286 44.5114C151.596 44.7235 151.992 44.8295 152.473 44.8295ZM160.372 34.3636V46H158.673V34.3636H160.372ZM166.317 49.4545C165.624 49.4545 165.027 49.3636 164.527 49.1818C164.031 49 163.625 48.7595 163.311 48.4602C162.997 48.161 162.762 47.8333 162.607 47.4773L164.067 46.875C164.169 47.0417 164.305 47.2178 164.476 47.4034C164.65 47.5928 164.885 47.7538 165.18 47.8864C165.48 48.0189 165.864 48.0852 166.334 48.0852C166.978 48.0852 167.51 47.928 167.93 47.6136C168.351 47.303 168.561 46.8068 168.561 46.125V44.4091H168.453C168.351 44.5947 168.203 44.8011 168.01 45.0284C167.821 45.2557 167.559 45.4527 167.226 45.6193C166.893 45.786 166.459 45.8693 165.925 45.8693C165.235 45.8693 164.614 45.7083 164.061 45.3864C163.512 45.0606 163.076 44.5814 162.754 43.9489C162.436 43.3125 162.277 42.5303 162.277 41.6023C162.277 40.6742 162.434 39.8788 162.749 39.2159C163.067 38.553 163.502 38.0455 164.055 37.6932C164.608 37.3371 165.235 37.1591 165.936 37.1591C166.478 37.1591 166.915 37.25 167.249 37.4318C167.582 37.6098 167.841 37.8182 168.027 38.0568C168.216 38.2955 168.362 38.5057 168.464 38.6875H168.589V37.2727H170.254V46.1932C170.254 46.9432 170.08 47.5587 169.732 48.0398C169.383 48.5208 168.911 48.8769 168.317 49.108C167.726 49.339 167.059 49.4545 166.317 49.4545ZM166.3 44.4602C166.788 44.4602 167.201 44.3466 167.538 44.1193C167.879 43.8883 168.137 43.5587 168.311 43.1307C168.489 42.6989 168.578 42.1818 168.578 41.5795C168.578 40.9924 168.491 40.4754 168.317 40.0284C168.143 39.5814 167.887 39.233 167.55 38.983C167.213 38.7292 166.796 38.6023 166.3 38.6023C165.788 38.6023 165.362 38.7348 165.021 39C164.68 39.2614 164.423 39.6174 164.249 40.0682C164.078 40.5189 163.993 41.0227 163.993 41.5795C163.993 42.1515 164.08 42.6534 164.254 43.0852C164.429 43.517 164.686 43.8542 165.027 44.0966C165.372 44.339 165.796 44.4602 166.3 44.4602ZM178.061 42.3807V37.2727H179.766V46H178.095V44.4886H178.004C177.804 44.9545 177.482 45.3428 177.038 45.6534C176.599 45.9602 176.052 46.1136 175.396 46.1136C174.836 46.1136 174.339 45.9905 173.908 45.7443C173.48 45.4943 173.143 45.125 172.896 44.6364C172.654 44.1477 172.533 43.5436 172.533 42.8239V37.2727H174.232V42.6193C174.232 43.214 174.396 43.6875 174.726 44.0398C175.055 44.392 175.483 44.5682 176.01 44.5682C176.328 44.5682 176.644 44.4886 176.959 44.3295C177.277 44.1705 177.54 43.9299 177.749 43.608C177.961 43.286 178.065 42.8769 178.061 42.3807ZM182.048 46V37.2727H183.679V38.6932H183.787C183.969 38.2121 184.266 37.8371 184.679 37.5682C185.092 37.2955 185.586 37.1591 186.162 37.1591C186.745 37.1591 187.234 37.2955 187.628 37.5682C188.026 37.8409 188.319 38.2159 188.509 38.6932H188.599C188.808 38.2273 189.139 37.8561 189.594 37.5795C190.048 37.2992 190.59 37.1591 191.219 37.1591C192.01 37.1591 192.656 37.4072 193.156 37.9034C193.66 38.3996 193.912 39.1477 193.912 40.1477V46H192.213V40.3068C192.213 39.7159 192.052 39.2879 191.73 39.0227C191.408 38.7576 191.024 38.625 190.577 38.625C190.024 38.625 189.594 38.7955 189.287 39.1364C188.98 39.4735 188.827 39.9072 188.827 40.4375V46H187.134V40.1989C187.134 39.7254 186.986 39.3447 186.69 39.0568C186.395 38.7689 186.01 38.625 185.537 38.625C185.215 38.625 184.918 38.7102 184.645 38.8807C184.376 39.0473 184.158 39.2803 183.991 39.5795C183.829 39.8788 183.747 40.2254 183.747 40.6193V46H182.048ZM198.729 46.1932C198.176 46.1932 197.676 46.0909 197.229 45.8864C196.782 45.678 196.428 45.3769 196.166 44.983C195.909 44.589 195.78 44.1061 195.78 43.5341C195.78 43.0417 195.875 42.6364 196.064 42.3182C196.253 42 196.509 41.7481 196.831 41.5625C197.153 41.3769 197.513 41.2367 197.911 41.142C198.308 41.0473 198.714 40.9754 199.126 40.9261C199.649 40.8655 200.073 40.8163 200.399 40.7784C200.725 40.7367 200.962 40.6705 201.109 40.5795C201.257 40.4886 201.331 40.3409 201.331 40.1364V40.0966C201.331 39.6004 201.191 39.2159 200.911 38.9432C200.634 38.6705 200.221 38.5341 199.672 38.5341C199.1 38.5341 198.649 38.661 198.32 38.9148C197.994 39.1648 197.768 39.4432 197.643 39.75L196.047 39.3864C196.236 38.8561 196.513 38.428 196.876 38.1023C197.244 37.7727 197.666 37.5341 198.143 37.3864C198.621 37.2348 199.123 37.1591 199.649 37.1591C199.998 37.1591 200.367 37.2008 200.757 37.2841C201.151 37.3636 201.518 37.5114 201.859 37.7273C202.204 37.9432 202.486 38.2519 202.706 38.6534C202.926 39.0511 203.036 39.5682 203.036 40.2045V46H201.376V44.8068H201.308C201.198 45.0265 201.034 45.2424 200.814 45.4545C200.594 45.6667 200.312 45.8428 199.967 45.983C199.623 46.1231 199.21 46.1932 198.729 46.1932ZM199.098 44.8295C199.568 44.8295 199.969 44.7367 200.303 44.5511C200.64 44.3655 200.895 44.1231 201.07 43.8239C201.248 43.5208 201.337 43.197 201.337 42.8523V41.7273C201.276 41.7879 201.159 41.8447 200.984 41.8977C200.814 41.947 200.619 41.9905 200.399 42.0284C200.179 42.0625 199.965 42.0947 199.757 42.125C199.549 42.1515 199.375 42.1742 199.234 42.1932C198.905 42.2348 198.604 42.3049 198.331 42.4034C198.062 42.5019 197.846 42.6439 197.683 42.8295C197.524 43.0114 197.445 43.2538 197.445 43.5568C197.445 43.9773 197.6 44.2955 197.911 44.5114C198.221 44.7235 198.617 44.8295 199.098 44.8295ZM213.209 46.1761C212.364 46.1761 211.637 45.9848 211.027 45.6023C210.421 45.2159 209.955 44.6837 209.629 44.0057C209.304 43.3277 209.141 42.5511 209.141 41.6761C209.141 40.7898 209.307 40.0076 209.641 39.3295C209.974 38.6477 210.444 38.1155 211.05 37.733C211.656 37.3504 212.37 37.1591 213.192 37.1591C213.855 37.1591 214.446 37.2822 214.964 37.5284C215.483 37.7708 215.902 38.1117 216.22 38.5511C216.542 38.9905 216.733 39.5038 216.794 40.0909H215.141C215.05 39.6818 214.841 39.3295 214.516 39.0341C214.194 38.7386 213.762 38.5909 213.22 38.5909C212.747 38.5909 212.332 38.7159 211.976 38.9659C211.624 39.2121 211.349 39.5644 211.152 40.0227C210.955 40.4773 210.857 41.0152 210.857 41.6364C210.857 42.2727 210.953 42.822 211.146 43.2841C211.339 43.7462 211.612 44.1042 211.964 44.358C212.321 44.6117 212.739 44.7386 213.22 44.7386C213.542 44.7386 213.834 44.6799 214.095 44.5625C214.36 44.4413 214.582 44.2689 214.76 44.0455C214.942 43.822 215.069 43.553 215.141 43.2386H216.794C216.733 43.803 216.55 44.3068 216.243 44.75C215.936 45.1932 215.525 45.5417 215.01 45.7955C214.499 46.0492 213.898 46.1761 213.209 46.1761ZM222.287 46.1761C221.469 46.1761 220.755 45.9886 220.145 45.6136C219.535 45.2386 219.062 44.714 218.724 44.0398C218.387 43.3655 218.219 42.5777 218.219 41.6761C218.219 40.7708 218.387 39.9792 218.724 39.3011C219.062 38.6231 219.535 38.0966 220.145 37.7216C220.755 37.3466 221.469 37.1591 222.287 37.1591C223.105 37.1591 223.819 37.3466 224.429 37.7216C225.039 38.0966 225.512 38.6231 225.849 39.3011C226.187 39.9792 226.355 40.7708 226.355 41.6761C226.355 42.5777 226.187 43.3655 225.849 44.0398C225.512 44.714 225.039 45.2386 224.429 45.6136C223.819 45.9886 223.105 46.1761 222.287 46.1761ZM222.293 44.75C222.823 44.75 223.262 44.6098 223.611 44.3295C223.959 44.0492 224.217 43.6761 224.384 43.2102C224.554 42.7443 224.639 42.2311 224.639 41.6705C224.639 41.1136 224.554 40.6023 224.384 40.1364C224.217 39.6667 223.959 39.2898 223.611 39.0057C223.262 38.7216 222.823 38.5795 222.293 38.5795C221.759 38.5795 221.315 38.7216 220.963 39.0057C220.615 39.2898 220.355 39.6667 220.185 40.1364C220.018 40.6023 219.935 41.1136 219.935 41.6705C219.935 42.2311 220.018 42.7443 220.185 43.2102C220.355 43.6761 220.615 44.0492 220.963 44.3295C221.315 44.6098 221.759 44.75 222.293 44.75ZM228.251 46V37.2727H229.95V46H228.251ZM229.109 35.9261C228.814 35.9261 228.56 35.8277 228.348 35.6307C228.14 35.4299 228.036 35.1913 228.036 34.9148C228.036 34.6345 228.14 34.3958 228.348 34.1989C228.56 33.9981 228.814 33.8977 229.109 33.8977C229.405 33.8977 229.657 33.9981 229.865 34.1989C230.077 34.3958 230.183 34.6345 230.183 34.9148C230.183 35.1913 230.077 35.4299 229.865 35.6307C229.657 35.8277 229.405 35.9261 229.109 35.9261ZM238.776 39.4034L237.236 39.6761C237.171 39.4792 237.069 39.2917 236.929 39.1136C236.793 38.9356 236.607 38.7898 236.372 38.6761C236.137 38.5625 235.844 38.5057 235.491 38.5057C235.01 38.5057 234.609 38.6136 234.287 38.8295C233.965 39.0417 233.804 39.3163 233.804 39.6534C233.804 39.9451 233.912 40.1799 234.128 40.358C234.344 40.536 234.692 40.6818 235.173 40.7955L236.56 41.1136C237.363 41.2992 237.961 41.5852 238.355 41.9716C238.749 42.358 238.946 42.8598 238.946 43.4773C238.946 44 238.795 44.4659 238.491 44.875C238.192 45.2803 237.774 45.5985 237.236 45.8295C236.702 46.0606 236.082 46.1761 235.378 46.1761C234.401 46.1761 233.603 45.9678 232.986 45.5511C232.368 45.1307 231.99 44.5341 231.849 43.7614L233.491 43.5114C233.594 43.9394 233.804 44.2633 234.122 44.483C234.44 44.6989 234.855 44.8068 235.366 44.8068C235.923 44.8068 236.368 44.6913 236.702 44.4602C237.035 44.2254 237.202 43.9394 237.202 43.6023C237.202 43.3295 237.099 43.1004 236.895 42.9148C236.694 42.7292 236.385 42.589 235.969 42.4943L234.491 42.1705C233.677 41.9848 233.075 41.6894 232.685 41.2841C232.298 40.8788 232.105 40.3655 232.105 39.7443C232.105 39.2292 232.249 38.7784 232.537 38.392C232.825 38.0057 233.223 37.7045 233.73 37.4886C234.238 37.2689 234.819 37.1591 235.474 37.1591C236.418 37.1591 237.16 37.3636 237.702 37.7727C238.243 38.178 238.601 38.7216 238.776 39.4034ZM243.354 46.1932C242.801 46.1932 242.301 46.0909 241.854 45.8864C241.407 45.678 241.053 45.3769 240.791 44.983C240.534 44.589 240.405 44.1061 240.405 43.5341C240.405 43.0417 240.5 42.6364 240.689 42.3182C240.878 42 241.134 41.7481 241.456 41.5625C241.778 41.3769 242.138 41.2367 242.536 41.142C242.933 41.0473 243.339 40.9754 243.751 40.9261C244.274 40.8655 244.698 40.8163 245.024 40.7784C245.35 40.7367 245.587 40.6705 245.734 40.5795C245.882 40.4886 245.956 40.3409 245.956 40.1364V40.0966C245.956 39.6004 245.816 39.2159 245.536 38.9432C245.259 38.6705 244.846 38.5341 244.297 38.5341C243.725 38.5341 243.274 38.661 242.945 38.9148C242.619 39.1648 242.393 39.4432 242.268 39.75L240.672 39.3864C240.861 38.8561 241.138 38.428 241.501 38.1023C241.869 37.7727 242.291 37.5341 242.768 37.3864C243.246 37.2348 243.748 37.1591 244.274 37.1591C244.623 37.1591 244.992 37.2008 245.382 37.2841C245.776 37.3636 246.143 37.5114 246.484 37.7273C246.829 37.9432 247.111 38.2519 247.331 38.6534C247.551 39.0511 247.661 39.5682 247.661 40.2045V46H246.001V44.8068H245.933C245.823 45.0265 245.659 45.2424 245.439 45.4545C245.219 45.6667 244.937 45.8428 244.592 45.983C244.248 46.1231 243.835 46.1932 243.354 46.1932ZM243.723 44.8295C244.193 44.8295 244.594 44.7367 244.928 44.5511C245.265 44.3655 245.52 44.1231 245.695 43.8239C245.873 43.5208 245.962 43.197 245.962 42.8523V41.7273C245.901 41.7879 245.784 41.8447 245.609 41.8977C245.439 41.947 245.244 41.9905 245.024 42.0284C244.804 42.0625 244.59 42.0947 244.382 42.125C244.174 42.1515 244 42.1742 243.859 42.1932C243.53 42.2348 243.229 42.3049 242.956 42.4034C242.687 42.5019 242.471 42.6439 242.308 42.8295C242.149 43.0114 242.07 43.2538 242.07 43.5568C242.07 43.9773 242.225 44.2955 242.536 44.5114C242.846 44.7235 243.242 44.8295 243.723 44.8295ZM251.043 46.108C250.732 46.108 250.465 45.9981 250.241 45.7784C250.018 45.5549 249.906 45.286 249.906 44.9716C249.906 44.661 250.018 44.3958 250.241 44.1761C250.465 43.9527 250.732 43.8409 251.043 43.8409C251.353 43.8409 251.62 43.9527 251.844 44.1761C252.067 44.3958 252.179 44.661 252.179 44.9716C252.179 45.1799 252.126 45.3712 252.02 45.5455C251.918 45.7159 251.781 45.8523 251.611 45.9545C251.44 46.0568 251.251 46.108 251.043 46.108ZM255.574 46.108C255.263 46.108 254.996 45.9981 254.773 45.7784C254.549 45.5549 254.438 45.286 254.438 44.9716C254.438 44.661 254.549 44.3958 254.773 44.1761C254.996 43.9527 255.263 43.8409 255.574 43.8409C255.884 43.8409 256.152 43.9527 256.375 44.1761C256.598 44.3958 256.71 44.661 256.71 44.9716C256.71 45.1799 256.657 45.3712 256.551 45.5455C256.449 45.7159 256.312 45.8523 256.142 45.9545C255.972 46.0568 255.782 46.108 255.574 46.108ZM260.105 46.108C259.795 46.108 259.527 45.9981 259.304 45.7784C259.08 45.5549 258.969 45.286 258.969 44.9716C258.969 44.661 259.08 44.3958 259.304 44.1761C259.527 43.9527 259.795 43.8409 260.105 43.8409C260.416 43.8409 260.683 43.9527 260.906 44.1761C261.13 44.3958 261.241 44.661 261.241 44.9716C261.241 45.1799 261.188 45.3712 261.082 45.5455C260.98 45.7159 260.844 45.8523 260.673 45.9545C260.503 46.0568 260.313 46.108 260.105 46.108Z" fill="#4B4C47"/>
<path d="M500.012 27H483.813C482.525 27.0014 481.289 27.5155 480.378 28.4294C479.467 29.3434 478.955 30.5825 478.953 31.875V48.125C478.955 49.4175 479.467 50.6566 480.378 51.5706C481.289 52.4845 482.525 52.9986 483.813 53H500.012C501.301 52.9986 502.536 52.4845 503.447 51.5706C504.358 50.6566 504.871 49.4175 504.872 48.125V31.875C504.871 30.5825 504.358 29.3434 503.447 28.4294C502.536 27.5155 501.301 27.0014 500.012 27V27ZM483.813 30.25H500.012C500.442 30.25 500.854 30.4212 501.158 30.726C501.462 31.0307 501.632 31.444 501.632 31.875V48.125C501.633 48.3384 501.591 48.5497 501.509 48.7468C501.428 48.9439 501.308 49.1229 501.157 49.2733L491.727 39.8137C490.917 39.0013 489.818 38.5449 488.673 38.5449C487.527 38.5449 486.429 39.0013 485.619 39.8137L482.193 43.25V31.875C482.193 31.444 482.364 31.0307 482.668 30.726C482.971 30.4212 483.383 30.25 483.813 30.25Z" fill="#4B4C47"/>
<path d="M495.693 37.8333C497.184 37.8333 498.392 36.6207 498.392 35.125C498.392 33.6292 497.184 32.4166 495.693 32.4166C494.201 32.4166 492.993 33.6292 492.993 35.125C492.993 36.6207 494.201 37.8333 495.693 37.8333Z" fill="#4B4C47"/>
<path d="M448.601 44.4472C447.968 43.8133 447.968 42.7828 448.601 42.1489C449.234 41.5139 450.259 41.5139 450.892 42.1489C452.325 43.5857 454.824 43.5868 456.257 42.1489L461.646 36.7429C463.124 35.2594 463.124 32.8452 461.646 31.3617C460.167 29.8783 457.76 29.8783 456.281 31.3617C455.648 31.9967 454.623 31.9967 453.99 31.3617C453.357 30.7278 453.357 29.6973 453.99 29.0634C456.732 26.3122 461.195 26.3122 463.937 29.0634C466.679 31.8147 466.679 36.2899 463.937 39.0412L458.548 44.4472C457.176 45.8234 455.375 46.5104 453.574 46.5104C451.774 46.5104 449.972 45.8223 448.601 44.4472ZM447.106 53C448.907 53 450.708 52.3119 452.079 50.9368C452.712 50.3029 452.712 49.2724 452.079 48.6385C451.446 48.0036 450.421 48.0036 449.788 48.6385C448.308 50.1231 445.902 50.122 444.424 48.6385C442.945 47.1551 442.945 44.7409 444.424 43.2574L449.783 37.8817C451.263 36.3972 453.669 36.3972 455.147 37.8817C455.78 38.5167 456.805 38.5167 457.438 37.8817C458.071 37.2478 458.071 36.2173 457.438 35.5834C454.696 32.8322 450.234 32.8322 447.492 35.5834L442.132 40.9591C439.389 43.7104 439.389 48.1856 442.132 50.9368C443.504 52.313 445.304 53 447.105 53H447.106Z" fill="#4B4C47"/>
</svg>
